# Blender v2.70 (sub 0) OBJ File: 'Simple Bookcase.blend'
# www.blender.org
mtllib Simple Bookcase.mtl
o Plane.001_Plane.002
v 7.963508 7.566506 4.490344
v 7.963502 -1.450408 4.490344
v 7.963508 7.566506 -4.526571
v 7.963502 -1.450408 -4.526571
usemtl Material
s off
f 1 2 4 3
o Cube
v 0.308279 -0.892387 0.061927
v 0.308279 -0.892387 -2.247361
v 1.388367 -0.892387 -2.247361
v 1.388367 -0.892387 0.061927
v 0.308279 4.228338 0.061927
v 0.308279 4.228338 -2.247361
v 1.388367 4.228338 -2.247361
v 1.388367 4.228338 0.061927
v 0.308279 4.228337 -0.011115
v 0.308279 4.228338 -0.357944
v 0.308279 4.228338 -0.567879
v 0.308279 4.228338 -0.777815
v 0.308279 4.228338 -0.987750
v 0.308279 4.228338 -1.197685
v 0.308279 4.228338 -1.407620
v 0.308279 4.228338 -1.617556
v 0.308279 4.228338 -1.827491
v 0.308279 4.228337 -2.177640
v 0.308279 -0.892387 -2.037426
v 0.308279 -0.892387 -1.827491
v 0.308279 -0.892387 -1.617556
v 0.308279 -0.892387 -1.407620
v 0.308279 -0.892387 -1.197685
v 0.308279 -0.892387 -0.987750
v 0.308279 -0.892387 -0.777815
v 0.308279 -0.892387 -0.567879
v 0.308279 -0.892387 -0.357944
v 0.308279 -0.892387 -0.148009
v 1.388367 4.228338 -2.037426
v 1.388367 4.228338 -1.827491
v 1.388367 4.228338 -1.617556
v 1.388367 4.228338 -1.407620
v 1.388367 4.228338 -1.197685
v 1.388367 4.228338 -0.987750
v 1.388367 4.228338 -0.777815
v 1.388367 4.228338 -0.567879
v 1.388367 4.228338 -0.357944
v 1.388367 4.228338 -0.148009
v 1.388367 -0.892387 -0.148009
v 1.388367 -0.892387 -0.357944
v 1.388367 -0.892387 -0.567879
v 1.388367 -0.892387 -0.777815
v 1.388367 -0.892387 -0.987750
v 1.388367 -0.892387 -1.197685
v 1.388367 -0.892387 -1.407620
v 1.388367 -0.892387 -1.617556
v 1.388367 -0.892387 -1.827491
v 1.388367 -0.892387 -2.037426
v 0.308279 -0.396761 0.061927
v 0.308279 -0.396834 0.061927
v 0.308279 -0.231649 0.061927
v 0.308279 -0.066464 0.061927
v 0.308279 0.098721 0.061927
v 0.308279 0.263905 0.061927
v 0.308279 0.429090 0.061927
v 0.308279 0.594275 0.061927
v 0.308279 0.759459 0.061927
v 0.308279 0.924644 0.061927
v 0.308279 1.089829 0.061927
v 0.308279 1.255013 0.061927
v 0.308279 1.420198 0.061927
v 0.308279 1.585383 0.061927
v 0.308279 1.750567 0.061927
v 0.308279 1.915752 0.061927
v 0.308279 2.080937 0.061927
v 0.308279 2.246121 0.061927
v 0.308279 2.411306 0.061927
v 0.308279 2.576491 0.061927
v 0.308279 2.741675 0.061927
v 0.308279 2.906860 0.061927
v 0.308279 3.072045 0.061927
v 0.308279 3.237229 0.061927
v 0.308279 3.402414 0.061927
v 0.308279 3.567599 0.061927
v 0.308279 3.732783 0.061927
v 0.308279 3.897968 0.061927
v 0.308279 4.063153 0.061927
v 0.308279 4.063153 -2.247361
v 0.308279 3.897969 -2.247361
v 0.308279 3.732784 -2.247361
v 0.308279 3.567599 -2.247361
v 0.308279 3.402414 -2.247361
v 0.308279 3.237230 -2.247361
v 0.308279 3.072045 -2.247361
v 0.308279 2.906860 -2.247361
v 0.308279 2.741675 -2.247361
v 0.308279 2.576491 -2.247361
v 0.308279 2.411306 -2.247361
v 0.308279 2.246122 -2.247361
v 0.308279 2.080937 -2.247361
v 0.308279 1.915752 -2.247361
v 0.308279 1.750567 -2.247361
v 0.308279 1.585383 -2.247361
v 0.308279 1.420198 -2.247361
v 0.308279 1.255013 -2.247361
v 0.308279 1.089829 -2.247361
v 0.308279 0.924644 -2.247361
v 0.308279 0.759459 -2.247361
v 0.308279 0.594275 -2.247361
v 0.308279 0.429090 -2.247361
v 0.308279 0.263906 -2.247361
v 0.308279 0.098721 -2.247361
v 0.308279 -0.066464 -2.247361
v 0.308279 -0.231648 -2.247361
v 0.308279 -0.396834 -2.247361
v 0.308279 -0.396761 -2.247361
v 1.388367 4.063153 -2.247361
v 1.388367 3.897969 -2.247361
v 1.388367 3.732784 -2.247361
v 1.388367 3.567599 -2.247361
v 1.388367 3.402414 -2.247361
v 1.388367 3.237230 -2.247361
v 1.388367 3.072045 -2.247361
v 1.388367 2.906860 -2.247361
v 1.388367 2.741675 -2.247361
v 1.388367 2.576491 -2.247361
v 1.388367 2.411306 -2.247361
v 1.388367 2.246122 -2.247361
v 1.388367 2.080937 -2.247361
v 1.388367 1.915752 -2.247361
v 1.388367 1.750567 -2.247361
v 1.388367 1.585383 -2.247361
v 1.388367 1.420198 -2.247361
v 1.388367 1.255013 -2.247361
v 1.388367 1.089829 -2.247361
v 1.388367 0.924644 -2.247361
v 1.388367 0.759459 -2.247361
v 1.388367 0.594275 -2.247361
v 1.388367 0.429090 -2.247361
v 1.388367 0.263906 -2.247361
v 1.388367 0.098721 -2.247361
v 1.388367 -0.066464 -2.247361
v 1.388367 -0.231648 -2.247361
v 1.388367 -0.396834 -2.247361
v 1.388367 -0.396761 -2.247361
v 1.388367 4.063153 0.061927
v 1.388367 3.897969 0.061927
v 1.388367 3.732784 0.061927
v 1.388367 3.567599 0.061927
v 1.388367 3.402414 0.061927
v 1.388367 3.237230 0.061927
v 1.388367 3.072045 0.061927
v 1.388367 2.906860 0.061927
v 1.388367 2.741675 0.061927
v 1.388367 2.576491 0.061927
v 1.388367 2.411306 0.061927
v 1.388367 2.246122 0.061927
v 1.388367 2.080937 0.061927
v 1.388367 1.915752 0.061927
v 1.388367 1.750567 0.061927
v 1.388367 1.585383 0.061927
v 1.388367 1.420198 0.061927
v 1.388367 1.255013 0.061927
v 1.388367 1.089829 0.061927
v 1.388367 0.924644 0.061927
v 1.388367 0.759459 0.061927
v 1.388367 0.594275 0.061927
v 1.388367 0.429090 0.061927
v 1.388367 0.263906 0.061927
v 1.388367 0.098721 0.061927
v 1.388367 -0.066464 0.061927
v 1.388367 -0.231648 0.061927
v 1.388367 -0.396834 0.061927
v 1.388367 -0.396761 0.061927
v 0.308279 4.063153 -0.011115
v 0.308279 3.897968 -0.011115
v 0.308279 3.732783 -0.011115
v 0.308279 3.464082 -0.011115
v 0.308279 3.402414 -0.011115
v 0.308279 3.237229 -0.011115
v 0.308279 3.072045 -0.011115
v 0.308279 2.803343 -0.011115
v 0.308279 2.741675 -0.011115
v 0.308279 2.576490 -0.011115
v 0.308279 2.411306 -0.011115
v 0.308279 2.142605 -0.011115
v 0.308279 2.080937 -0.011115
v 0.308279 1.915752 -0.011115
v 0.308279 1.750567 -0.011115
v 0.308279 1.481866 -0.011115
v 0.308279 1.420198 -0.011115
v 0.308279 1.255013 -0.011115
v 0.308279 1.089829 -0.011115
v 0.308279 0.821127 -0.011115
v 0.308279 0.759459 -0.011115
v 0.308279 0.594275 -0.011115
v 0.308279 0.429090 -0.011115
v 0.308279 0.160389 -0.011115
v 0.308279 0.098721 -0.011115
v 0.308279 -0.066464 -0.011115
v 0.308279 -0.231648 -0.011115
v 0.308279 -0.396834 -0.011115
v 0.308279 -0.396761 -0.011115
v 0.308279 4.063153 -0.357944
v 0.308279 3.897969 -0.357944
v 0.308279 3.732784 -0.357944
v 0.308279 3.464082 -0.357944
v 0.308279 3.402414 -0.357944
v 0.308279 3.237230 -0.357944
v 0.308279 3.072045 -0.357944
v 0.308279 2.803344 -0.357944
v 0.308279 2.741675 -0.357944
v 0.308279 2.576491 -0.357944
v 0.308279 2.411306 -0.357944
v 0.308279 2.142605 -0.357944
v 0.308279 2.080937 -0.357944
v 0.308279 1.915752 -0.357944
v 0.308279 1.750567 -0.357944
v 0.308279 1.481866 -0.357944
v 0.308279 1.420198 -0.357944
v 0.308279 1.255013 -0.357944
v 0.308279 1.089829 -0.357944
v 0.308279 0.821128 -0.357944
v 0.308279 0.759459 -0.357944
v 0.308279 0.594275 -0.357944
v 0.308279 0.429090 -0.357944
v 0.308279 0.160389 -0.357944
v 0.308279 0.098721 -0.357944
v 0.308279 -0.066464 -0.357944
v 0.308279 -0.231648 -0.357944
v 0.308279 -0.396834 -0.357944
v 0.308279 -0.396761 -0.357944
v 0.308279 4.063153 -0.567879
v 0.308279 3.897969 -0.567879
v 0.308279 3.732784 -0.567879
v 0.308279 3.464082 -0.567879
v 0.308279 3.402414 -0.567879
v 0.308279 3.237230 -0.567879
v 0.308279 3.072045 -0.567879
v 0.308279 2.803344 -0.567879
v 0.308279 2.741675 -0.567879
v 0.308279 2.576491 -0.567879
v 0.308279 2.411306 -0.567879
v 0.308279 2.142605 -0.567879
v 0.308279 2.080937 -0.567879
v 0.308279 1.915752 -0.567879
v 0.308279 1.750567 -0.567879
v 0.308279 1.481866 -0.567879
v 0.308279 1.420198 -0.567879
v 0.308279 1.255013 -0.567879
v 0.308279 1.089829 -0.567879
v 0.308279 0.821128 -0.567879
v 0.308279 0.759459 -0.567879
v 0.308279 0.594275 -0.567879
v 0.308279 0.429090 -0.567879
v 0.308279 0.160389 -0.567879
v 0.308279 0.098721 -0.567879
v 0.308279 -0.066464 -0.567879
v 0.308279 -0.231648 -0.567879
v 0.308279 -0.396834 -0.567879
v 0.308279 -0.396761 -0.567879
v 0.308279 4.063153 -0.777815
v 0.308279 3.897969 -0.777815
v 0.308279 3.732784 -0.777815
v 0.308279 3.464082 -0.777815
v 0.308279 3.402414 -0.777815
v 0.308279 3.237230 -0.777815
v 0.308279 3.072045 -0.777815
v 0.308279 2.803344 -0.777815
v 0.308279 2.741675 -0.777815
v 0.308279 2.576491 -0.777815
v 0.308279 2.411306 -0.777815
v 0.308279 2.142605 -0.777815
v 0.308279 2.080937 -0.777815
v 0.308279 1.915752 -0.777815
v 0.308279 1.750567 -0.777815
v 0.308279 1.481866 -0.777815
v 0.308279 1.420198 -0.777815
v 0.308279 1.255013 -0.777815
v 0.308279 1.089829 -0.777815
v 0.308279 0.821128 -0.777815
v 0.308279 0.759459 -0.777815
v 0.308279 0.594275 -0.777815
v 0.308279 0.429090 -0.777815
v 0.308279 0.160389 -0.777815
v 0.308279 0.098721 -0.777815
v 0.308279 -0.066464 -0.777815
v 0.308279 -0.231648 -0.777815
v 0.308279 -0.396834 -0.777815
v 0.308279 -0.396761 -0.777815
v 0.308279 4.063153 -0.987750
v 0.308279 3.897969 -0.987750
v 0.308279 3.732784 -0.987750
v 0.308279 3.464082 -0.987750
v 0.308279 3.402414 -0.987750
v 0.308279 3.237230 -0.987750
v 0.308279 3.072045 -0.987750
v 0.308279 2.803344 -0.987750
v 0.308279 2.741675 -0.987750
v 0.308279 2.576491 -0.987750
v 0.308279 2.411306 -0.987750
v 0.308279 2.142605 -0.987750
v 0.308279 2.080937 -0.987750
v 0.308279 1.915752 -0.987750
v 0.308279 1.750567 -0.987750
v 0.308279 1.481866 -0.987750
v 0.308279 1.420198 -0.987750
v 0.308279 1.255013 -0.987750
v 0.308279 1.089829 -0.987750
v 0.308279 0.821128 -0.987750
v 0.308279 0.759459 -0.987750
v 0.308279 0.594275 -0.987750
v 0.308279 0.429090 -0.987750
v 0.308279 0.160389 -0.987750
v 0.308279 0.098721 -0.987750
v 0.308279 -0.066464 -0.987750
v 0.308279 -0.231648 -0.987750
v 0.308279 -0.396834 -0.987750
v 0.308279 -0.396761 -0.987750
v 0.308279 4.063153 -1.197685
v 0.308279 3.897969 -1.197685
v 0.308279 3.732784 -1.197685
v 0.308279 3.567599 -1.197685
v 0.308279 3.402414 -1.197685
v 0.308279 3.237230 -1.197685
v 0.308279 3.072045 -1.197685
v 0.308279 2.906860 -1.197685
v 0.308279 2.741675 -1.197685
v 0.308279 2.576491 -1.197685
v 0.308279 2.411306 -1.197685
v 0.308279 2.246122 -1.197685
v 0.308279 2.080937 -1.197685
v 0.308279 1.915752 -1.197685
v 0.308279 1.750567 -1.197685
v 0.308279 1.585383 -1.197685
v 0.308279 1.420198 -1.197685
v 0.308279 1.255013 -1.197685
v 0.308279 1.089829 -1.197685
v 0.308279 0.924644 -1.197685
v 0.308279 0.759459 -1.197685
v 0.308279 0.594275 -1.197685
v 0.308279 0.429090 -1.197685
v 0.308279 0.263906 -1.197685
v 0.308279 0.098721 -1.197685
v 0.308279 -0.066464 -1.197685
v 0.308279 -0.231648 -1.197685
v 0.308279 -0.396834 -1.197685
v 0.308279 -0.396761 -1.197685
v 0.308279 4.063153 -1.407620
v 0.308279 3.897969 -1.407620
v 0.308279 3.732784 -1.407620
v 0.308279 3.567599 -1.407620
v 0.308279 3.402414 -1.407620
v 0.308279 3.237230 -1.407620
v 0.308279 3.072045 -1.407620
v 0.308279 2.906860 -1.407620
v 0.308279 2.741675 -1.407620
v 0.308279 2.576491 -1.407620
v 0.308279 2.411306 -1.407620
v 0.308279 2.246122 -1.407620
v 0.308279 2.080937 -1.407620
v 0.308279 1.915752 -1.407620
v 0.308279 1.750567 -1.407620
v 0.308279 1.585383 -1.407620
v 0.308279 1.420198 -1.407620
v 0.308279 1.255013 -1.407620
v 0.308279 1.089829 -1.407620
v 0.308279 0.924644 -1.407620
v 0.308279 0.759459 -1.407620
v 0.308279 0.594275 -1.407620
v 0.308279 0.429090 -1.407620
v 0.308279 0.263906 -1.407620
v 0.308279 0.098721 -1.407620
v 0.308279 -0.066464 -1.407620
v 0.308279 -0.231648 -1.407620
v 0.308279 -0.396834 -1.407620
v 0.308279 -0.396761 -1.407620
v 0.308279 4.063153 -1.617556
v 0.308279 3.897969 -1.617556
v 0.308279 3.732784 -1.617556
v 0.308279 3.567599 -1.617556
v 0.308279 3.402414 -1.617556
v 0.308279 3.237230 -1.617556
v 0.308279 3.072045 -1.617556
v 0.308279 2.906860 -1.617556
v 0.308279 2.741675 -1.617556
v 0.308279 2.576491 -1.617556
v 0.308279 2.411306 -1.617556
v 0.308279 2.246122 -1.617556
v 0.308279 2.080937 -1.617556
v 0.308279 1.915752 -1.617556
v 0.308279 1.750567 -1.617556
v 0.308279 1.585383 -1.617556
v 0.308279 1.420198 -1.617556
v 0.308279 1.255013 -1.617556
v 0.308279 1.089829 -1.617556
v 0.308279 0.924644 -1.617556
v 0.308279 0.759459 -1.617556
v 0.308279 0.594275 -1.617556
v 0.308279 0.429090 -1.617556
v 0.308279 0.263906 -1.617556
v 0.308279 0.098721 -1.617556
v 0.308279 -0.066464 -1.617556
v 0.308279 -0.231648 -1.617556
v 0.308279 -0.396834 -1.617556
v 0.308279 -0.396761 -1.617556
v 0.308279 4.063153 -1.827491
v 0.308279 3.897969 -1.827491
v 0.308279 3.732784 -1.827491
v 0.308279 3.567599 -1.827491
v 0.308279 3.402414 -1.827491
v 0.308279 3.237230 -1.827491
v 0.308279 3.072045 -1.827491
v 0.308279 2.906860 -1.827491
v 0.308279 2.741675 -1.827491
v 0.308279 2.576491 -1.827491
v 0.308279 2.411306 -1.827491
v 0.308279 2.246122 -1.827491
v 0.308279 2.080937 -1.827491
v 0.308279 1.915752 -1.827491
v 0.308279 1.750567 -1.827491
v 0.308279 1.585383 -1.827491
v 0.308279 1.420198 -1.827491
v 0.308279 1.255013 -1.827491
v 0.308279 1.089829 -1.827491
v 0.308279 0.924644 -1.827491
v 0.308279 0.759459 -1.827491
v 0.308279 0.594275 -1.827491
v 0.308279 0.429090 -1.827491
v 0.308279 0.263906 -1.827491
v 0.308279 0.098721 -1.827491
v 0.308279 -0.066464 -1.827491
v 0.308279 -0.231648 -1.827491
v 0.308279 -0.396834 -1.827491
v 0.308279 -0.396761 -1.827491
v 0.308279 4.063153 -2.177640
v 0.308279 3.897968 -2.177640
v 0.308279 3.732783 -2.177640
v 0.308279 3.567598 -2.177640
v 0.308279 3.402414 -2.177640
v 0.308279 3.237229 -2.177640
v 0.308279 3.072045 -2.177640
v 0.308279 2.906860 -2.177640
v 0.308279 2.741675 -2.177640
v 0.308279 2.576490 -2.177640
v 0.308279 2.411306 -2.177640
v 0.308279 2.246121 -2.177640
v 0.308279 2.080937 -2.177640
v 0.308279 1.915752 -2.177640
v 0.308279 1.750567 -2.177640
v 0.308279 1.585383 -2.177640
v 0.308279 1.420198 -2.177640
v 0.308279 1.255013 -2.177640
v 0.308279 1.089829 -2.177640
v 0.308279 0.924644 -2.177640
v 0.308279 0.759459 -2.177640
v 0.308279 0.594275 -2.177640
v 0.308279 0.429090 -2.177640
v 0.308279 0.263906 -2.177640
v 0.308279 0.098721 -2.177640
v 0.308279 -0.066464 -2.177640
v 0.308279 -0.231648 -2.177640
v 0.308279 -0.396834 -2.177640
v 0.308279 -0.396761 -2.177640
v 1.388367 4.063153 -2.177640
v 1.388367 3.897968 -2.177640
v 1.388367 3.732783 -2.177640
v 1.388367 3.567598 -2.177640
v 1.388367 3.402414 -2.177640
v 1.388367 3.237229 -2.177640
v 1.388367 3.072045 -2.177640
v 1.388367 2.906860 -2.177640
v 1.388367 2.741675 -2.177640
v 1.388367 2.576490 -2.177640
v 1.388367 2.411306 -2.177640
v 1.388367 2.246121 -2.177640
v 1.388367 2.080937 -2.177640
v 1.388367 1.915752 -2.177640
v 1.388367 1.750567 -2.177640
v 1.388367 1.585383 -2.177640
v 1.388367 1.420198 -2.177640
v 1.388367 1.255013 -2.177640
v 1.388367 1.089829 -2.177640
v 1.388367 0.924644 -2.177640
v 1.388367 0.759459 -2.177640
v 1.388367 0.594275 -2.177640
v 1.388367 0.429090 -2.177640
v 1.388367 0.263906 -2.177640
v 1.388367 0.098721 -2.177640
v 1.388367 -0.066464 -2.177640
v 1.388367 -0.231648 -2.177640
v 1.388367 -0.396834 -2.177640
v 1.388367 -0.396761 -2.177640
v 1.388367 4.063153 -1.827491
v 1.388367 -0.396761 -1.827491
v 1.388367 4.063153 -1.617556
v 1.388367 -0.396761 -1.617556
v 1.388367 4.063153 -1.407620
v 1.388367 -0.396761 -1.407620
v 1.388367 4.063153 -1.197685
v 1.388367 -0.396761 -1.197685
v 1.388367 4.063153 -0.987750
v 1.388367 -0.396761 -0.987750
v 1.388367 4.063153 -0.777815
v 1.388367 -0.396761 -0.777815
v 1.388367 4.063153 -0.567879
v 1.388367 -0.396761 -0.567879
v 1.388367 4.063153 -0.357944
v 1.388367 -0.396761 -0.357944
v 1.388367 4.063153 -0.011115
v 1.388367 3.897968 -0.011115
v 1.388367 3.732783 -0.011115
v 1.388367 3.567598 -0.011115
v 1.388367 3.402414 -0.011115
v 1.388367 3.237229 -0.011115
v 1.388367 3.072045 -0.011115
v 1.388367 2.906860 -0.011115
v 1.388367 2.741675 -0.011115
v 1.388367 2.576490 -0.011115
v 1.388367 2.411306 -0.011115
v 1.388367 2.246121 -0.011115
v 1.388367 2.080937 -0.011115
v 1.388367 1.915752 -0.011115
v 1.388367 1.750567 -0.011115
v 1.388367 1.585383 -0.011115
v 1.388367 1.420198 -0.011115
v 1.388367 1.255013 -0.011115
v 1.388367 1.089829 -0.011115
v 1.388367 0.924644 -0.011115
v 1.388367 0.759459 -0.011115
v 1.388367 0.594275 -0.011115
v 1.388367 0.429090 -0.011115
v 1.388367 0.263906 -0.011115
v 1.388367 0.098721 -0.011115
v 1.388367 -0.066464 -0.011115
v 1.388367 -0.231648 -0.011115
v 1.388367 -0.396834 -0.011115
v 1.388367 -0.396761 -0.011115
v 0.308279 -0.495886 -2.247361
v 0.308279 -0.595012 -2.247361
v 0.308279 -0.694137 -2.247361
v 0.308279 -0.793262 -2.247361
v 1.388367 -0.495886 -2.247361
v 1.388367 -0.595012 -2.247361
v 1.388367 -0.694137 -2.247361
v 1.388367 -0.793262 -2.247361
v 1.388367 -0.495886 0.061927
v 1.388367 -0.595012 0.061927
v 1.388367 -0.694137 0.061927
v 1.388367 -0.793262 0.061927
v 0.308279 -0.495886 -0.038494
v 0.308279 -0.595011 -0.065872
v 0.308279 -0.694137 -0.093251
v 0.308279 -0.793262 -0.120630
v 0.308279 -0.495886 -0.357944
v 0.308279 -0.595012 -0.357944
v 0.308279 -0.694137 -0.357944
v 0.308279 -0.793262 -0.357944
v 0.308279 -0.495886 -0.567879
v 0.308279 -0.595012 -0.567879
v 0.308279 -0.694137 -0.567879
v 0.308279 -0.793262 -0.567879
v 0.308279 -0.495886 -0.777815
v 0.308279 -0.595012 -0.777815
v 0.308279 -0.694137 -0.777815
v 0.308279 -0.793262 -0.777815
v 0.308279 -0.495886 -0.987750
v 0.308279 -0.595012 -0.987750
v 0.308279 -0.694137 -0.987750
v 0.308279 -0.793262 -0.987750
v 0.308279 -0.495886 -1.197685
v 0.308279 -0.595012 -1.197685
v 0.308279 -0.694137 -1.197685
v 0.308279 -0.793262 -1.197685
v 0.308279 -0.495886 -1.407620
v 0.308279 -0.595012 -1.407620
v 0.308279 -0.694137 -1.407620
v 0.308279 -0.793262 -1.407620
v 0.308279 -0.495886 -1.617556
v 0.308279 -0.595012 -1.617556
v 0.308279 -0.694137 -1.617556
v 0.308279 -0.793262 -1.617556
v 0.308279 -0.495886 -1.827491
v 0.308279 -0.595012 -1.827491
v 0.308279 -0.694137 -1.827491
v 0.308279 -0.793262 -1.827491
v 0.308279 -0.495886 -2.149598
v 0.308279 -0.595011 -2.121555
v 0.308279 -0.694137 -2.093512
v 0.308279 -0.793262 -2.065469
v 1.388367 -0.495886 -2.149598
v 1.388367 -0.595011 -2.121555
v 1.388367 -0.694137 -2.093512
v 1.388367 -0.793262 -2.065469
v 1.388367 -0.495886 -1.827491
v 1.388367 -0.793262 -1.827491
v 1.388367 -0.495886 -1.617556
v 1.388367 -0.793262 -1.617556
v 1.388367 -0.495886 -1.407620
v 1.388367 -0.793262 -1.407620
v 1.388367 -0.495886 -1.197685
v 1.388367 -0.793262 -1.197685
v 1.388367 -0.495886 -0.987750
v 1.388367 -0.793262 -0.987750
v 1.388367 -0.495886 -0.777815
v 1.388367 -0.793262 -0.777815
v 1.388367 -0.495886 -0.567879
v 1.388367 -0.793262 -0.567879
v 1.388367 -0.495886 -0.357944
v 1.388367 -0.793262 -0.357944
v 1.388367 -0.495886 -0.038494
v 1.388367 -0.595011 -0.065872
v 1.388367 -0.694137 -0.093251
v 1.388367 -0.793262 -0.120630
v 0.308279 -0.495886 0.061927
v 0.308279 -0.595012 0.061927
v 0.308279 -0.694137 0.061927
v 0.308279 -0.793262 0.061927
v 1.265707 -0.495886 -2.149598
v 1.265707 -0.595011 -2.121555
v 1.265707 -0.694137 -2.093512
v 1.265707 -0.793262 -2.065469
v 1.265707 -0.495886 -1.827491
v 1.265707 -0.595012 -1.827491
v 1.265707 -0.694137 -1.827491
v 1.265707 -0.793262 -1.827491
v 1.265707 -0.495886 -1.617556
v 1.265707 -0.595012 -1.617556
v 1.265707 -0.694137 -1.617556
v 1.265707 -0.793262 -1.617556
v 1.265707 -0.495886 -1.407620
v 1.265707 -0.595012 -1.407620
v 1.265707 -0.694137 -1.407620
v 1.265707 -0.793262 -1.407620
v 1.265707 -0.495886 -1.197685
v 1.265707 -0.595012 -1.197685
v 1.265707 -0.694137 -1.197685
v 1.265707 -0.793262 -1.197685
v 1.265707 -0.495886 -0.987750
v 1.265707 -0.595012 -0.987750
v 1.265707 -0.694137 -0.987750
v 1.265707 -0.793262 -0.987750
v 1.265707 -0.495886 -0.777815
v 1.265707 -0.595012 -0.777815
v 1.265707 -0.694137 -0.777815
v 1.265707 -0.793262 -0.777815
v 1.265707 -0.495886 -0.567879
v 1.265707 -0.595012 -0.567879
v 1.265707 -0.694137 -0.567879
v 1.265707 -0.793262 -0.567879
v 1.265707 -0.495886 -0.357944
v 1.265707 -0.595012 -0.357944
v 1.265707 -0.694137 -0.357944
v 1.265707 -0.793262 -0.357944
v 1.265707 -0.495886 -0.038494
v 1.265707 -0.595011 -0.065872
v 1.265707 -0.694137 -0.093251
v 1.265707 -0.793262 -0.120630
v 0.308279 4.228338 -1.127707
v 0.308279 4.228338 -1.057728
v 1.388367 4.228338 -1.057728
v 1.388367 4.228338 -1.127707
v 0.308279 4.063153 -1.127707
v 0.308279 4.063153 -1.057728
v 0.308279 3.897969 -1.127707
v 0.308279 3.897969 -1.057728
v 0.308279 3.732784 -1.127707
v 0.308279 3.732784 -1.057728
v 0.308279 3.567599 -1.127707
v 0.308279 3.464082 -1.057728
v 0.308279 3.402414 -1.127707
v 0.308279 3.402414 -1.057728
v 0.308279 3.135710 -1.127707
v 0.308279 3.237230 -1.057728
v 0.308279 3.072045 -1.127707
v 0.308279 3.072045 -1.057728
v 0.308279 2.906860 -1.127707
v 0.308279 2.803344 -1.057728
v 0.308279 2.741675 -1.127707
v 0.308279 2.741675 -1.057728
v 0.308279 2.474971 -1.127707
v 0.308279 2.576491 -1.057728
v 0.308279 2.411306 -1.127707
v 0.308279 2.411306 -1.057728
v 0.308279 2.246122 -1.127707
v 0.308279 2.142605 -1.057728
v 0.308279 2.080937 -1.127707
v 0.308279 2.080937 -1.057728
v 0.308279 1.814233 -1.127707
v 0.308279 1.915752 -1.057728
v 0.308279 1.750567 -1.127707
v 0.308279 1.750567 -1.057728
v 0.308279 1.585383 -1.127707
v 0.308279 1.481866 -1.057728
v 0.308279 1.420198 -1.127707
v 0.308279 1.420198 -1.057728
v 0.308279 1.153494 -1.127707
v 0.308279 1.255013 -1.057728
v 0.308279 1.089829 -1.127707
v 0.308279 1.089829 -1.057728
v 0.308279 0.924644 -1.127707
v 0.308279 0.821128 -1.057728
v 0.308279 0.759459 -1.127707
v 0.308279 0.759459 -1.057728
v 0.308279 0.492755 -1.127707
v 0.308279 0.594275 -1.057728
v 0.308279 0.429090 -1.127707
v 0.308279 0.429090 -1.057728
v 0.308279 0.263906 -1.127707
v 0.308279 0.160389 -1.057728
v 0.308279 0.098721 -1.127707
v 0.308279 0.098721 -1.057728
v 0.308279 -0.066464 -1.127707
v 0.308279 -0.066464 -1.057728
v 0.308279 -0.231648 -1.127707
v 0.308279 -0.231648 -1.057728
v 0.308279 -0.396834 -1.127707
v 0.308279 -0.396834 -1.057728
v 1.388367 4.063153 -1.057728
v 1.388367 4.063153 -1.127707
v 1.388456 4.063153 -1.127707
v 1.388456 4.063153 -1.057728
v 1.388456 3.897969 -1.127707
v 1.388456 3.897969 -1.057728
v 1.388456 3.732784 -1.127707
v 1.388456 3.732784 -1.057728
v 1.388456 3.567599 -1.127707
v 1.388456 3.567599 -1.057728
v 1.388456 3.402414 -1.127707
v 1.388456 3.402414 -1.057728
v 1.388456 3.135710 -1.127707
v 1.388456 3.237230 -1.057728
v 1.388456 3.072045 -1.127707
v 1.388456 3.072045 -1.057728
v 1.388456 2.906860 -1.127707
v 1.388456 2.906860 -1.057728
v 1.388456 2.741675 -1.127707
v 1.388456 2.741675 -1.057728
v 1.388456 2.474971 -1.127707
v 1.388456 2.576491 -1.057728
v 1.388456 2.411306 -1.127707
v 1.388456 2.411306 -1.057728
v 1.388456 2.246122 -1.127707
v 1.388456 2.246122 -1.057728
v 1.388456 2.080937 -1.127707
v 1.388456 2.080937 -1.057728
v 1.388456 1.814233 -1.127707
v 1.388456 1.915752 -1.057728
v 1.388456 1.750567 -1.127707
v 1.388456 1.750567 -1.057728
v 1.388456 1.585383 -1.127707
v 1.388456 1.585383 -1.057728
v 1.388456 1.420198 -1.127707
v 1.388456 1.420198 -1.057728
v 1.388456 1.153494 -1.127707
v 1.388456 1.255013 -1.057728
v 1.388456 1.089829 -1.127707
v 1.388456 1.089829 -1.057728
v 1.388456 0.924644 -1.127707
v 1.388456 0.924644 -1.057728
v 1.388456 0.759459 -1.127707
v 1.388456 0.759459 -1.057728
v 1.388456 0.492755 -1.127707
v 1.388456 0.594275 -1.057728
v 1.388456 0.429090 -1.127707
v 1.388456 0.429090 -1.057728
v 1.388456 0.263906 -1.127707
v 1.388456 0.263906 -1.057728
v 1.388456 0.098721 -1.127707
v 1.388456 0.098721 -1.057728
v 1.388456 -0.066464 -1.127707
v 1.388456 -0.066464 -1.057728
v 1.388456 -0.231648 -1.127707
v 1.388456 -0.231648 -1.057728
v 1.388456 -0.396834 -1.127707
v 1.388456 -0.396834 -1.057728
v 0.308279 4.118215 0.061927
v 0.308279 4.173276 0.061927
v 0.308279 4.118215 -2.247361
v 0.308279 4.173276 -2.247361
v 1.388367 4.118215 -2.247361
v 1.388367 4.173276 -2.247361
v 1.388367 4.118215 0.061927
v 1.388367 4.173276 0.061927
v 0.308279 4.118215 -0.011115
v 0.308279 4.173276 -0.011115
v 0.308279 4.118215 -0.357944
v 0.308279 4.173276 -0.357944
v 0.308279 4.118215 -0.567879
v 0.308279 4.173276 -0.567879
v 0.308279 4.118215 -0.777815
v 0.308279 4.173276 -0.777815
v 0.308279 4.118215 -0.987750
v 0.308279 4.173276 -0.987750
v 0.308279 4.118215 -1.197685
v 0.308279 4.173276 -1.197685
v 0.308279 4.118215 -1.407620
v 0.308279 4.173276 -1.407620
v 0.308279 4.118215 -1.617556
v 0.308279 4.173276 -1.617556
v 0.308279 4.118215 -1.827491
v 0.308279 4.173276 -1.827491
v 0.308279 4.118215 -2.177640
v 0.308279 4.173276 -2.177640
v 1.388367 4.118215 -2.130902
v 1.388367 4.173276 -2.084164
v 1.388367 4.118215 -1.827491
v 1.388367 4.173276 -1.827491
v 1.388367 4.118215 -1.617556
v 1.388367 4.173276 -1.617556
v 1.388367 4.118215 -1.407620
v 1.388367 4.173276 -1.407620
v 1.388367 4.118215 -1.197685
v 1.388367 4.173276 -1.197685
v 1.388367 4.118215 -0.987750
v 1.388367 4.173276 -0.987750
v 1.388367 4.118215 -0.777815
v 1.388367 4.173276 -0.777815
v 1.388367 4.118215 -0.567879
v 1.388367 4.173276 -0.567879
v 1.388367 4.118215 -0.357944
v 1.388367 4.173276 -0.357944
v 1.388367 4.118215 -0.056746
v 1.388367 4.173276 -0.102377
v 0.308279 4.173276 -1.057728
v 0.308279 4.118215 -1.057728
v 0.308279 4.173276 -1.127707
v 0.308279 4.118215 -1.127707
v 1.388367 4.173276 -1.127707
v 1.388367 4.118215 -1.127707
v 1.388367 4.173276 -1.057728
v 1.388367 4.118215 -1.057728
v 1.340207 4.118215 -2.130902
v 1.340207 4.173276 -2.084164
v 1.340207 4.118215 -1.827491
v 1.340207 4.173276 -1.827491
v 1.340207 4.118215 -1.617556
v 1.340207 4.173276 -1.617556
v 1.340207 4.118215 -1.407620
v 1.340207 4.173276 -1.407620
v 1.340207 4.118215 -1.197685
v 1.340207 4.173276 -1.197685
v 1.340207 4.118215 -0.987750
v 1.340207 4.173276 -0.987750
v 1.340207 4.118215 -0.777815
v 1.340207 4.173276 -0.777815
v 1.340207 4.118215 -0.567879
v 1.340207 4.173276 -0.567879
v 1.340207 4.118215 -0.357944
v 1.340207 4.173276 -0.357944
v 1.340207 4.118215 -0.056746
v 1.340207 4.173276 -0.102377
v 1.340207 4.173276 -1.127707
v 1.340207 4.118215 -1.127707
v 1.340207 4.173276 -1.057728
v 1.340207 4.118215 -1.057728
v 1.388417 3.464082 -0.011115
v 1.388417 3.402414 -0.011115
v 1.388417 2.803343 -0.011115
v 1.388417 2.741675 -0.011115
v 1.388417 2.142605 -0.011115
v 1.388417 2.080937 -0.011115
v 1.388417 1.481866 -0.011115
v 1.388417 1.420198 -0.011115
v 1.388417 0.821127 -0.011115
v 1.388417 0.759459 -0.011115
v 1.388417 0.160389 -0.011115
v 1.388417 0.098721 -0.011115
v 1.388417 3.464082 -0.357944
v 1.388417 3.402414 -0.357944
v 1.388417 2.803344 -0.357944
v 1.388417 2.741675 -0.357944
v 1.388417 2.142605 -0.357944
v 1.388417 2.080937 -0.357944
v 1.388417 1.481866 -0.357944
v 1.388417 1.420198 -0.357944
v 1.388417 0.821128 -0.357944
v 1.388417 0.759459 -0.357944
v 1.388417 0.160389 -0.357944
v 1.388417 0.098721 -0.357944
v 1.388417 3.464082 -0.567879
v 1.388417 3.402414 -0.567879
v 1.388417 2.803344 -0.567879
v 1.388417 2.741675 -0.567879
v 1.388417 2.142605 -0.567879
v 1.388417 2.080937 -0.567879
v 1.388417 1.481866 -0.567879
v 1.388417 1.420198 -0.567879
v 1.388417 0.821128 -0.567879
v 1.388417 0.759459 -0.567879
v 1.388417 0.160389 -0.567879
v 1.388417 0.098721 -0.567879
v 1.388417 3.464082 -0.777815
v 1.388417 3.402414 -0.777815
v 1.388417 2.803344 -0.777815
v 1.388417 2.741675 -0.777815
v 1.388417 2.142605 -0.777815
v 1.388417 2.080937 -0.777815
v 1.388417 1.481866 -0.777815
v 1.388417 1.420198 -0.777815
v 1.388417 0.821128 -0.777815
v 1.388417 0.759459 -0.777815
v 1.388417 0.160389 -0.777815
v 1.388417 0.098721 -0.777815
v 1.388417 3.464082 -0.987750
v 1.388417 3.402414 -0.987750
v 1.388417 2.803344 -0.987750
v 1.388417 2.741675 -0.987750
v 1.388417 2.142605 -0.987750
v 1.388417 2.080937 -0.987750
v 1.388417 1.481866 -0.987750
v 1.388417 1.420198 -0.987750
v 1.388417 0.821128 -0.987750
v 1.388417 0.759459 -0.987750
v 1.388417 0.160389 -0.987750
v 1.388417 0.098721 -0.987750
v 1.388417 3.464082 -1.057728
v 1.388417 3.402414 -1.057728
v 1.388417 2.803344 -1.057728
v 1.388417 2.741675 -1.057728
v 1.388417 2.142605 -1.057728
v 1.388417 2.080937 -1.057728
v 1.388417 1.481866 -1.057728
v 1.388417 1.420198 -1.057728
v 1.388417 0.821128 -1.057728
v 1.388417 0.759459 -1.057728
v 1.388417 0.160389 -1.057728
v 1.388417 0.098721 -1.057728
v 0.308279 -0.674312 -2.247361
v 0.308279 -0.654487 -2.247361
v 0.308279 -0.634662 -2.247361
v 0.308279 -0.614837 -2.247361
v 1.388367 -0.674312 -2.247361
v 1.388367 -0.654487 -2.247361
v 1.388367 -0.634662 -2.247361
v 1.388367 -0.614837 -2.247361
v 1.388367 -0.674312 0.061927
v 1.388367 -0.654487 0.061927
v 1.388367 -0.634662 0.061927
v 1.388367 -0.614837 0.061927
v 0.308279 -0.674312 -0.087775
v 0.308279 -0.654487 -0.082299
v 0.308279 -0.634662 -0.076824
v 0.308279 -0.614836 -0.071348
v 0.308279 -0.674312 -0.357944
v 0.308279 -0.654487 -0.357944
v 0.308279 -0.634662 -0.357944
v 0.308279 -0.614837 -0.357944
v 0.308279 -0.674312 -0.567879
v 0.308279 -0.654487 -0.567879
v 0.308279 -0.634662 -0.567879
v 0.308279 -0.614837 -0.567879
v 0.308279 -0.674312 -0.777815
v 0.308279 -0.654487 -0.777815
v 0.308279 -0.634662 -0.777815
v 0.308279 -0.614837 -0.777815
v 0.308279 -0.674312 -0.987750
v 0.308279 -0.654487 -0.987750
v 0.308279 -0.634662 -0.987750
v 0.308279 -0.614837 -0.987750
v 0.308279 -0.674312 -1.197685
v 0.308279 -0.654487 -1.197685
v 0.308279 -0.634662 -1.197685
v 0.308279 -0.614837 -1.197685
v 0.308279 -0.674312 -1.407620
v 0.308279 -0.654487 -1.407620
v 0.308279 -0.634662 -1.407620
v 0.308279 -0.614837 -1.407620
v 0.308279 -0.674312 -1.617556
v 0.308279 -0.654487 -1.617556
v 0.308279 -0.634662 -1.617556
v 0.308279 -0.614837 -1.617556
v 0.308279 -0.674312 -1.827491
v 0.308279 -0.654487 -1.827491
v 0.308279 -0.634662 -1.827491
v 0.308279 -0.614837 -1.827491
v 0.308279 -0.674312 -2.099121
v 0.308279 -0.654487 -2.104729
v 0.308279 -0.634662 -2.110338
v 0.308279 -0.614836 -2.115946
v 1.388367 -0.674312 -2.099121
v 1.388367 -0.654487 -2.104729
v 1.388367 -0.634662 -2.110338
v 1.388367 -0.614836 -2.115946
v 1.388367 -0.674312 -0.087775
v 1.388367 -0.654487 -0.082299
v 1.388367 -0.634662 -0.076824
v 1.388367 -0.614836 -0.071348
v 0.308279 -0.674312 0.061927
v 0.308279 -0.654487 0.061927
v 0.308279 -0.634662 0.061927
v 0.308279 -0.614837 0.061927
v 1.265707 -0.674312 -2.099121
v 1.265707 -0.654487 -2.104729
v 1.265707 -0.634662 -2.110338
v 1.265707 -0.614836 -2.115946
v 1.265707 -0.674312 -1.827491
v 1.265707 -0.654487 -1.827491
v 1.265707 -0.634662 -1.827491
v 1.265707 -0.614837 -1.827491
v 1.265707 -0.674312 -0.357944
v 1.265707 -0.654487 -0.357944
v 1.265707 -0.634662 -0.357944
v 1.265707 -0.614837 -0.357944
v 1.265707 -0.674312 -0.087775
v 1.265707 -0.654487 -0.082299
v 1.265707 -0.634662 -0.076824
v 1.265707 -0.614836 -0.071348
v 0.308279 3.135710 -2.177761
v 0.308279 3.072045 -2.177761
v 0.308279 2.474971 -2.177761
v 0.308279 2.411306 -2.177761
v 0.308279 1.814233 -2.177761
v 0.308279 1.750567 -2.177761
v 0.308279 1.153494 -2.177761
v 0.308279 1.089829 -2.177761
v 0.308279 0.492755 -2.177761
v 0.308279 0.429090 -2.177761
v 1.388456 3.135710 -2.177761
v 1.388456 3.072045 -2.177761
v 1.388456 2.474971 -2.177761
v 1.388456 2.411306 -2.177761
v 1.388456 1.814233 -2.177761
v 1.388456 1.750567 -2.177761
v 1.388456 1.153494 -2.177761
v 1.388456 1.089829 -2.177761
v 1.388456 0.492755 -2.177761
v 1.388456 0.429090 -2.177761
vt 0.836324 0.080750
vt 0.913036 0.080750
vt 0.913037 0.075306
vt 0.836324 0.075306
vt 1.000000 0.006452
vt 1.000000 0.000000
vt 0.090909 0.006452
vt 0.000000 0.006452
vt 0.000000 0.000000
vt 0.090909 0.000000
vt 0.069198 0.080750
vt 0.069198 0.075306
vt 0.909091 0.000000
vt 0.909091 1.000000
vt 1.000000 1.000000
vt 0.913036 0.919144
vt 0.836324 0.919144
vt 0.145911 0.080750
vt 0.145911 0.075306
vt 0.222623 0.080750
vt 0.222623 0.075306
vt 0.299336 0.080750
vt 0.299336 0.075306
vt 0.376049 0.080750
vt 0.376049 0.075306
vt 0.452761 0.080750
vt 0.452761 0.075306
vt 0.529474 0.080750
vt 0.529474 0.075306
vt 0.606186 0.080750
vt 0.606186 0.075306
vt 0.682899 0.080750
vt 0.682899 0.075306
vt 0.759611 0.080750
vt 0.759611 0.075306
vt 0.909091 0.006452
vt 0.818182 0.006452
vt 0.818182 0.000000
vt 0.727273 0.006452
vt 0.727273 0.000000
vt 0.636364 0.006452
vt 0.636364 0.000000
vt 0.545455 0.006452
vt 0.545455 0.000000
vt 0.454545 0.006452
vt 0.454545 0.000000
vt 0.363636 0.006452
vt 0.363636 0.000000
vt 0.272727 0.006452
vt 0.272727 0.000000
vt 0.181818 0.006452
vt 0.181818 0.000000
vt 0.000000 1.000000
vt 0.090909 1.000000
vt 0.145911 0.919144
vt 0.069198 0.919144
vt 0.181818 1.000000
vt 0.222624 0.919144
vt 0.272728 1.000000
vt 0.299336 0.919144
vt 0.363637 1.000000
vt 0.376049 0.919144
vt 0.454546 1.000000
vt 0.452761 0.919144
vt 0.515152 1.000000
vt 0.545455 1.000000
vt 0.529474 0.919144
vt 0.503903 0.919144
vt 0.636364 1.000000
vt 0.606186 0.919144
vt 0.727273 1.000000
vt 0.682899 0.919144
vt 0.818182 1.000000
vt 0.759611 0.919144
vt 0.836324 0.900997
vt 0.913036 0.900997
vt 0.913036 0.891924
vt 0.836324 0.891924
vt 0.913036 0.864703
vt 0.836324 0.864703
vt 0.913036 0.837483
vt 0.836324 0.837483
vt 0.913036 0.810262
vt 0.836324 0.810262
vt 0.913036 0.783042
vt 0.836324 0.783042
vt 0.913036 0.755821
vt 0.836324 0.755821
vt 0.913036 0.728600
vt 0.836324 0.728600
vt 0.913036 0.701380
vt 0.836324 0.701380
vt 0.913036 0.674159
vt 0.836324 0.674159
vt 0.913036 0.646939
vt 0.836324 0.646939
vt 0.913036 0.619718
vt 0.836324 0.619718
vt 0.913036 0.592497
vt 0.836324 0.592497
vt 0.913036 0.565277
vt 0.836324 0.565277
vt 0.913036 0.538056
vt 0.836324 0.538056
vt 0.913036 0.510836
vt 0.836324 0.510836
vt 0.913036 0.483615
vt 0.836324 0.483615
vt 0.913036 0.456394
vt 0.836324 0.456394
vt 0.913036 0.429174
vt 0.836324 0.429174
vt 0.913036 0.401953
vt 0.836324 0.401953
vt 0.913037 0.374733
vt 0.836324 0.374733
vt 0.913037 0.347512
vt 0.836324 0.347512
vt 0.913037 0.320291
vt 0.836324 0.320291
vt 0.913037 0.293071
vt 0.836324 0.293071
vt 0.913037 0.265850
vt 0.836324 0.265850
vt 0.913037 0.238630
vt 0.836324 0.238630
vt 0.913037 0.211409
vt 0.836324 0.211409
vt 0.913037 0.184189
vt 0.836324 0.184189
vt 0.913037 0.156968
vt 0.836324 0.156968
vt 1.000000 0.978495
vt 1.000000 0.967742
vt 1.000000 0.935484
vt 1.000000 0.903226
vt 1.000000 0.870968
vt 1.000000 0.838710
vt 1.000000 0.806452
vt 1.000000 0.774194
vt 1.000000 0.741935
vt 1.000000 0.709677
vt 1.000000 0.677419
vt 1.000000 0.645161
vt 1.000000 0.612903
vt 1.000000 0.580645
vt 1.000000 0.548387
vt 1.000000 0.516129
vt 1.000000 0.483871
vt 1.000000 0.451613
vt 1.000000 0.419355
vt 1.000000 0.387097
vt 1.000000 0.354839
vt 1.000000 0.322581
vt 1.000000 0.290323
vt 1.000000 0.258065
vt 1.000000 0.225806
vt 1.000000 0.193548
vt 1.000000 0.161290
vt 1.000000 0.129032
vt 1.000000 0.096774
vt 0.090909 0.978494
vt 0.000000 0.978494
vt 0.000000 0.967742
vt 0.090909 0.967742
vt 0.000000 0.935484
vt 0.090909 0.935484
vt 0.000000 0.903226
vt 0.090909 0.903226
vt 0.000000 0.870968
vt 0.090909 0.870968
vt 0.000000 0.838709
vt 0.090909 0.838709
vt 0.000000 0.806451
vt 0.090909 0.806451
vt 0.000000 0.774193
vt 0.090909 0.774193
vt 0.000000 0.741935
vt 0.090909 0.741935
vt 0.000000 0.709677
vt 0.090909 0.709677
vt 0.000000 0.677419
vt 0.090909 0.677419
vt 0.000000 0.645161
vt 0.090909 0.645161
vt 0.000000 0.612903
vt 0.090909 0.612903
vt 0.000000 0.580645
vt 0.090909 0.580645
vt 0.000000 0.548387
vt 0.090909 0.548387
vt 0.000000 0.516129
vt 0.090909 0.516129
vt 0.000000 0.483871
vt 0.090909 0.483871
vt 0.000000 0.451613
vt 0.090909 0.451613
vt 0.000000 0.419355
vt 0.090909 0.419355
vt 0.000000 0.387097
vt 0.090909 0.387097
vt 0.000000 0.354839
vt 0.090909 0.354839
vt 0.000000 0.322581
vt 0.090909 0.322581
vt 0.000000 0.290322
vt 0.090909 0.290322
vt 0.000000 0.258064
vt 0.090909 0.258064
vt 0.000000 0.225806
vt 0.090909 0.225806
vt 0.000000 0.193548
vt 0.090909 0.193548
vt 0.000000 0.161290
vt 0.090909 0.161290
vt 0.000000 0.129032
vt 0.090909 0.129032
vt 0.000000 0.096774
vt 0.090909 0.096774
vt 0.069198 0.900997
vt 0.069198 0.891924
vt 0.069198 0.864703
vt 0.069198 0.837483
vt 0.069198 0.810262
vt 0.069198 0.783041
vt 0.069198 0.755821
vt 0.069198 0.728600
vt 0.069198 0.701380
vt 0.069198 0.674159
vt 0.069198 0.646939
vt 0.069198 0.619718
vt 0.069198 0.592497
vt 0.069198 0.565277
vt 0.069198 0.538056
vt 0.069198 0.510836
vt 0.069198 0.483615
vt 0.069198 0.456394
vt 0.069198 0.429174
vt 0.069198 0.401953
vt 0.069198 0.374733
vt 0.069198 0.347512
vt 0.069198 0.320292
vt 0.069198 0.293071
vt 0.069198 0.265850
vt 0.069198 0.238630
vt 0.069198 0.211409
vt 0.069198 0.184189
vt 0.069198 0.156968
vt 0.145911 0.900997
vt 0.145911 0.891924
vt 0.145911 0.864703
vt 0.145911 0.837483
vt 0.145911 0.810262
vt 0.145911 0.783041
vt 0.145911 0.755821
vt 0.145911 0.728600
vt 0.145911 0.701380
vt 0.145911 0.674159
vt 0.145911 0.646939
vt 0.145911 0.619718
vt 0.145911 0.592497
vt 0.145911 0.565277
vt 0.145911 0.538056
vt 0.145911 0.510836
vt 0.145911 0.483615
vt 0.145911 0.456394
vt 0.145911 0.429174
vt 0.145911 0.401953
vt 0.145911 0.374733
vt 0.145911 0.347512
vt 0.145911 0.320292
vt 0.145911 0.293071
vt 0.145911 0.265850
vt 0.145911 0.238630
vt 0.145911 0.211409
vt 0.145911 0.184189
vt 0.145911 0.156968
vt 0.222624 0.900997
vt 0.222624 0.891924
vt 0.222624 0.864703
vt 0.222624 0.837483
vt 0.222624 0.810262
vt 0.478332 0.701380
vt 0.478332 0.674159
vt 0.222624 0.783041
vt 0.222624 0.755821
vt 0.222624 0.728600
vt 0.222623 0.701380
vt 0.376049 0.483615
vt 0.452761 0.483615
vt 0.222623 0.674159
vt 0.222623 0.646939
vt 0.222623 0.619718
vt 0.222623 0.592497
vt 0.299336 0.701380
vt 0.376049 0.701380
vt 0.222623 0.565277
vt 0.222623 0.538056
vt 0.222623 0.510836
vt 0.222623 0.483615
vt 0.452761 0.265850
vt 0.478332 0.265850
vt 0.222623 0.456394
vt 0.222623 0.429174
vt 0.222623 0.401953
vt 0.222623 0.374733
vt 0.452761 0.674159
vt 0.222623 0.347512
vt 0.222623 0.320292
vt 0.222623 0.293071
vt 0.222623 0.265850
vt 0.478332 0.810262
vt 0.478332 0.783041
vt 0.222623 0.238630
vt 0.222623 0.211409
vt 0.222623 0.184189
vt 0.222623 0.156968
vt 0.299336 0.900997
vt 0.299336 0.891924
vt 0.299336 0.864703
vt 0.299336 0.837483
vt 0.299336 0.810262
vt 0.452761 0.701380
vt 0.299336 0.783041
vt 0.299336 0.755821
vt 0.299336 0.728600
vt 0.299336 0.674159
vt 0.299336 0.646939
vt 0.299336 0.619718
vt 0.299336 0.592497
vt 0.478332 0.483615
vt 0.299336 0.565277
vt 0.299336 0.538056
vt 0.299336 0.510836
vt 0.299336 0.483615
vt 0.299336 0.347512
vt 0.299336 0.456394
vt 0.299336 0.429174
vt 0.299336 0.401953
vt 0.299336 0.374733
vt 0.299336 0.320292
vt 0.299336 0.293071
vt 0.299336 0.265850
vt 0.299336 0.238630
vt 0.299336 0.211409
vt 0.299336 0.184189
vt 0.299336 0.156968
vt 0.376049 0.900997
vt 0.376049 0.891924
vt 0.376049 0.864703
vt 0.376049 0.837483
vt 0.376049 0.810262
vt 0.376049 0.783041
vt 0.376049 0.755821
vt 0.376049 0.728600
vt 0.376049 0.674159
vt 0.376049 0.646939
vt 0.376049 0.619718
vt 0.376049 0.592497
vt 0.376049 0.565277
vt 0.376049 0.538056
vt 0.376049 0.510836
vt 0.376049 0.347512
vt 0.376049 0.456394
vt 0.376049 0.429174
vt 0.376049 0.401953
vt 0.376049 0.374733
vt 0.376049 0.320292
vt 0.376049 0.293071
vt 0.376049 0.265850
vt 0.376049 0.238630
vt 0.376049 0.211409
vt 0.376049 0.184189
vt 0.376049 0.156968
vt 0.452761 0.900997
vt 0.452761 0.891924
vt 0.452761 0.864703
vt 0.452761 0.837483
vt 0.452761 0.810262
vt 0.452761 0.783041
vt 0.452761 0.755821
vt 0.452761 0.728600
vt 0.452761 0.646939
vt 0.452761 0.619718
vt 0.452761 0.592497
vt 0.452761 0.565277
vt 0.452761 0.538056
vt 0.452761 0.510836
vt 0.452761 0.347512
vt 0.452761 0.456394
vt 0.452761 0.429174
vt 0.452761 0.401953
vt 0.452761 0.374733
vt 0.452761 0.320292
vt 0.452761 0.293071
vt 0.452761 0.238630
vt 0.452761 0.211409
vt 0.452761 0.184189
vt 0.452761 0.156968
vt 0.503903 0.900997
vt 0.529474 0.900997
vt 0.529474 0.891924
vt 0.503903 0.891924
vt 0.529474 0.864703
vt 0.503903 0.864703
vt 0.529474 0.837483
vt 0.503903 0.837483
vt 0.529474 0.810262
vt 0.503903 0.810262
vt 0.529474 0.783041
vt 0.503903 0.783041
vt 0.529474 0.755821
vt 0.503903 0.755821
vt 0.529474 0.728600
vt 0.503903 0.728600
vt 0.529474 0.701380
vt 0.503903 0.701380
vt 0.529474 0.674159
vt 0.503903 0.674159
vt 0.529474 0.646939
vt 0.503903 0.646939
vt 0.529474 0.619718
vt 0.503903 0.619718
vt 0.529474 0.592497
vt 0.503903 0.592497
vt 0.529474 0.565277
vt 0.503903 0.565277
vt 0.529474 0.538056
vt 0.503903 0.538056
vt 0.529474 0.510836
vt 0.503903 0.510836
vt 0.529474 0.483615
vt 0.503903 0.483615
vt 0.529474 0.456394
vt 0.503903 0.456394
vt 0.529474 0.429174
vt 0.503903 0.429174
vt 0.529474 0.401953
vt 0.503903 0.401953
vt 0.529474 0.374733
vt 0.503903 0.374733
vt 0.529474 0.347512
vt 0.503903 0.347512
vt 0.529474 0.320292
vt 0.503903 0.320292
vt 0.529474 0.293071
vt 0.503903 0.293071
vt 0.529474 0.265850
vt 0.503903 0.265850
vt 0.529474 0.238630
vt 0.503903 0.238630
vt 0.529474 0.211409
vt 0.503903 0.211409
vt 0.529474 0.184189
vt 0.503903 0.184189
vt 0.529474 0.156968
vt 0.503903 0.156968
vt 0.606186 0.900997
vt 0.606186 0.891924
vt 0.606186 0.864703
vt 0.606186 0.837483
vt 0.606186 0.810262
vt 0.606186 0.783042
vt 0.606186 0.755821
vt 0.606186 0.728600
vt 0.606186 0.701380
vt 0.606186 0.674159
vt 0.606186 0.646939
vt 0.606186 0.619718
vt 0.606186 0.592497
vt 0.606186 0.565277
vt 0.606186 0.538056
vt 0.606186 0.510836
vt 0.606186 0.483615
vt 0.606186 0.456394
vt 0.606186 0.429174
vt 0.606186 0.401953
vt 0.606186 0.374733
vt 0.606186 0.347512
vt 0.606186 0.320292
vt 0.606186 0.293071
vt 0.606186 0.265850
vt 0.606186 0.238630
vt 0.606186 0.211409
vt 0.606186 0.184189
vt 0.606186 0.156968
vt 0.682899 0.900997
vt 0.682899 0.891924
vt 0.682899 0.864703
vt 0.682899 0.837483
vt 0.682899 0.810262
vt 0.682899 0.783042
vt 0.682899 0.755821
vt 0.682899 0.728600
vt 0.682899 0.701380
vt 0.682899 0.674159
vt 0.682899 0.646939
vt 0.682899 0.619718
vt 0.682899 0.592497
vt 0.682899 0.565277
vt 0.682899 0.538056
vt 0.682899 0.510836
vt 0.682899 0.483615
vt 0.682899 0.456394
vt 0.682899 0.429174
vt 0.682899 0.401953
vt 0.682899 0.374733
vt 0.682899 0.347512
vt 0.682899 0.320292
vt 0.682899 0.293071
vt 0.682899 0.265850
vt 0.682899 0.238630
vt 0.682899 0.211409
vt 0.682899 0.184189
vt 0.682899 0.156968
vt 0.759611 0.900997
vt 0.759611 0.891924
vt 0.759611 0.864703
vt 0.759611 0.837483
vt 0.759611 0.810262
vt 0.759611 0.783042
vt 0.759611 0.755821
vt 0.759611 0.728600
vt 0.759611 0.701380
vt 0.759611 0.674159
vt 0.759611 0.646939
vt 0.759611 0.619718
vt 0.759611 0.592497
vt 0.759611 0.565277
vt 0.759611 0.538056
vt 0.759611 0.510836
vt 0.759611 0.483615
vt 0.759611 0.456394
vt 0.759611 0.429174
vt 0.759611 0.401953
vt 0.759611 0.374733
vt 0.759611 0.347512
vt 0.759611 0.320292
vt 0.759611 0.293071
vt 0.759611 0.265850
vt 0.759611 0.238630
vt 0.759611 0.211409
vt 0.759611 0.184189
vt 0.759611 0.156968
vt 0.909091 0.978495
vt 0.909091 0.967742
vt 0.909091 0.935484
vt 0.909091 0.903226
vt 0.909091 0.870968
vt 0.909091 0.838710
vt 0.909091 0.806452
vt 0.909091 0.774193
vt 0.909091 0.741935
vt 0.909091 0.709677
vt 0.909091 0.677419
vt 0.909091 0.645161
vt 0.909091 0.612903
vt 0.909091 0.580645
vt 0.909091 0.548387
vt 0.909091 0.516129
vt 0.909091 0.483871
vt 0.909091 0.451613
vt 0.909091 0.419355
vt 0.909091 0.387097
vt 0.909091 0.354839
vt 0.909091 0.322581
vt 0.909091 0.290323
vt 0.909091 0.258064
vt 0.909091 0.225806
vt 0.909091 0.193548
vt 0.909091 0.161290
vt 0.909091 0.129032
vt 0.909091 0.096774
vt 0.818182 0.978495
vt 0.818182 0.967742
vt 0.727273 0.978495
vt 0.727273 0.967742
vt 0.636364 0.978495
vt 0.636364 0.967742
vt 0.545455 0.978495
vt 0.545455 0.967742
vt 0.484849 0.978494
vt 0.454546 0.978494
vt 0.454546 0.967742
vt 0.484849 0.967742
vt 0.363637 0.978495
vt 0.363637 0.967742
vt 0.272728 0.978494
vt 0.272728 0.967742
vt 0.181818 0.978494
vt 0.181818 0.967742
vt 0.913036 0.102527
vt 1.000000 0.032258
vt 0.909091 0.032258
vt 0.818182 0.032258
vt 0.727273 0.032258
vt 0.636364 0.032258
vt 0.545455 0.032258
vt 0.454545 0.032258
vt 0.363636 0.032258
vt 0.272727 0.032258
vt 0.181818 0.032258
vt 0.000000 0.032258
vt 0.069198 0.102527
vt 0.145911 0.102527
vt 0.222623 0.102527
vt 0.299336 0.102527
vt 0.376049 0.102527
vt 0.452761 0.102527
vt 0.529474 0.102527
vt 0.606186 0.102527
vt 0.682899 0.102527
vt 0.759611 0.102527
vt 0.836324 0.102527
vt 0.913036 0.097083
vt 0.836324 0.097083
vt 0.913037 0.091639
vt 0.836324 0.091639
vt 0.836324 0.087283
vt 0.913036 0.087283
vt 0.913036 0.086194
vt 0.836324 0.086194
vt 1.000000 0.025806
vt 1.000000 0.019355
vt 1.000000 0.014194
vt 1.000000 0.012903
vt 0.090909 0.032258
vt 0.000000 0.025807
vt 0.090909 0.025807
vt 0.000000 0.019355
vt 0.090909 0.019355
vt 0.090909 0.014194
vt 0.000000 0.014194
vt 0.000000 0.012903
vt 0.090909 0.012903
vt 0.069198 0.097083
vt 0.069198 0.091639
vt 0.069198 0.087283
vt 0.069198 0.086195
vt 0.145911 0.097083
vt 0.145911 0.091639
vt 0.145911 0.087283
vt 0.145911 0.086195
vt 0.222623 0.097083
vt 0.222623 0.091639
vt 0.222623 0.087283
vt 0.222623 0.086195
vt 0.299336 0.097083
vt 0.299336 0.091639
vt 0.299336 0.087283
vt 0.299336 0.086195
vt 0.376049 0.097083
vt 0.376049 0.091639
vt 0.376049 0.087283
vt 0.376049 0.086195
vt 0.452761 0.097083
vt 0.452761 0.091639
vt 0.452761 0.087283
vt 0.452761 0.086194
vt 0.529474 0.097083
vt 0.529474 0.091639
vt 0.529474 0.087283
vt 0.529474 0.086194
vt 0.606186 0.097083
vt 0.606186 0.091639
vt 0.606186 0.087283
vt 0.606186 0.086194
vt 0.682899 0.097083
vt 0.682899 0.091639
vt 0.682899 0.087283
vt 0.682899 0.086194
vt 0.759611 0.097083
vt 0.759611 0.091639
vt 0.759611 0.087283
vt 0.759611 0.086194
vt 0.909091 0.025806
vt 0.909091 0.019355
vt 0.909091 0.014194
vt 0.909091 0.012903
vt 0.818182 0.025806
vt 0.727273 0.025806
vt 0.545455 0.025807
vt 0.454545 0.025807
vt 0.636364 0.025806
vt 0.363636 0.025807
vt 0.272727 0.025807
vt 0.181818 0.025807
vt 0.909091 0.018065
vt 0.818182 0.019355
vt 0.818182 0.014194
vt 0.818182 0.012903
vt 0.727273 0.019355
vt 0.727273 0.012903
vt 0.636364 0.019355
vt 0.636364 0.012903
vt 0.545455 0.019355
vt 0.545455 0.012903
vt 0.454545 0.019355
vt 0.454545 0.012903
vt 0.363636 0.019355
vt 0.363636 0.012903
vt 0.272727 0.019355
vt 0.272727 0.012903
vt 0.181818 0.019355
vt 0.181818 0.012903
vt 0.181818 0.014194
vt 0.484849 1.000000
vt 0.478332 0.919144
vt 0.478332 0.900997
vt 0.478332 0.891924
vt 0.478332 0.864703
vt 0.478332 0.374733
vt 0.478332 0.401953
vt 0.478332 0.837483
vt 0.478332 0.755821
vt 0.478332 0.510836
vt 0.478332 0.728600
vt 0.478332 0.184189
vt 0.478332 0.211409
vt 0.478332 0.646939
vt 0.478332 0.619718
vt 0.478332 0.592497
vt 0.478332 0.293071
vt 0.478332 0.320292
vt 0.478332 0.565277
vt 0.478332 0.538056
vt 0.478332 0.429174
vt 0.478332 0.456394
vt 0.478332 0.347512
vt 0.478332 0.238630
vt 0.478332 0.156968
vt 0.515152 0.978495
vt 0.515152 0.967742
vt 0.913036 0.910071
vt 0.836324 0.910071
vt 1.000000 0.989247
vt 0.000000 0.989247
vt 0.090909 0.989247
vt 0.069198 0.910071
vt 0.145911 0.910071
vt 0.222624 0.910071
vt 0.299336 0.910071
vt 0.376049 0.910071
vt 0.452761 0.910071
vt 0.529474 0.910071
vt 0.503903 0.910071
vt 0.606186 0.910071
vt 0.682899 0.910071
vt 0.759611 0.910071
vt 0.909091 0.989247
vt 0.818182 0.989247
vt 0.727273 0.989247
vt 0.545455 0.989247
vt 0.515152 0.989247
vt 0.636364 0.989247
vt 0.454546 0.989247
vt 0.484849 0.989247
vt 0.363637 0.989247
vt 0.272728 0.989247
vt 0.181818 0.989247
vt 0.478332 0.910071
vt 0.913036 0.090550
vt 0.836324 0.090550
vt 0.913036 0.089461
vt 0.836324 0.089461
vt 0.913037 0.088372
vt 0.836324 0.088372
vt 1.000000 0.018065
vt 1.000000 0.016774
vt 1.000000 0.015484
vt 0.000000 0.018065
vt 0.090909 0.018065
vt 0.000000 0.016774
vt 0.090909 0.016774
vt 0.000000 0.015484
vt 0.090909 0.015484
vt 0.069198 0.090550
vt 0.069198 0.089461
vt 0.069198 0.088372
vt 0.145911 0.090550
vt 0.145911 0.089461
vt 0.145911 0.088372
vt 0.222623 0.090550
vt 0.222623 0.089461
vt 0.222623 0.088372
vt 0.299336 0.090550
vt 0.299336 0.089461
vt 0.299336 0.088372
vt 0.376049 0.090550
vt 0.376049 0.089461
vt 0.376049 0.088372
vt 0.452761 0.090550
vt 0.452761 0.089461
vt 0.452761 0.088372
vt 0.529474 0.090550
vt 0.529474 0.089461
vt 0.529474 0.088372
vt 0.606186 0.090550
vt 0.606186 0.089461
vt 0.606186 0.088372
vt 0.682899 0.090550
vt 0.682899 0.089461
vt 0.682899 0.088372
vt 0.759611 0.090550
vt 0.759611 0.089461
vt 0.759611 0.088372
vt 0.909091 0.016774
vt 0.909091 0.015484
vt 0.818182 0.018065
vt 0.818182 0.016774
vt 0.818182 0.015484
vt 0.181818 0.018065
vt 0.181818 0.016774
vt 0.181818 0.015484
usemtl bookcase
s off
f 584/1 536/2 6/3 23/4
f 536/2 540/5 7/6 6/3
f 608/7 544/8 8/9 43/10
f 544/8 612/11 5/12 8/9
f 23/4 6/3 7/6 52/13
f 33/14 11/15 10/16 22/17
f 612/11 548/18 32/19 5/12
f 548/18 552/20 31/21 32/19
f 552/20 556/22 30/23 31/21
f 556/22 560/24 29/25 30/23
f 560/24 564/26 28/27 29/25
f 564/26 568/28 27/29 28/27
f 568/28 572/30 26/31 27/29
f 572/30 576/32 25/33 26/31
f 576/32 580/34 24/35 25/33
f 580/34 584/1 23/4 24/35
f 540/5 588/36 52/13 7/6
f 588/36 590/37 51/38 52/13
f 590/37 592/39 50/40 51/38
f 592/39 594/41 49/42 50/40
f 594/41 596/43 48/44 49/42
f 596/43 598/45 47/46 48/44
f 598/45 600/47 46/48 47/46
f 600/47 602/49 45/50 46/48
f 602/49 604/51 44/52 45/50
f 604/51 608/7 43/10 44/52
f 5/12 32/19 43/10 8/9
f 32/19 31/21 44/52 43/10
f 31/21 30/23 45/50 44/52
f 30/23 29/25 46/48 45/50
f 29/25 28/27 47/46 46/48
f 28/27 27/29 48/44 47/46
f 27/29 26/31 49/42 48/44
f 26/31 25/33 50/40 49/42
f 25/33 24/35 51/38 50/40
f 24/35 23/4 52/13 51/38
f 12/53 42/54 13/55 9/56
f 42/54 41/57 14/58 13/55
f 41/57 40/59 15/60 14/58
f 40/59 39/61 16/62 15/60
f 39/61 38/63 17/64 16/62
f 656/65 37/66 18/67 653/68
f 37/66 36/69 19/70 18/67
f 36/69 35/71 20/72 19/70
f 35/71 34/73 21/74 20/72
f 34/73 33/14 22/17 21/74
f 797/75 773/76 82/77 430/78
f 430/78 82/77 83/79 431/80
f 431/80 83/79 84/81 432/82
f 432/82 84/81 85/83 433/84
f 433/84 85/83 86/85 434/86
f 434/86 86/85 87/87 435/88
f 435/88 87/87 88/89 436/90
f 436/90 88/89 89/91 437/92
f 437/92 89/91 90/93 438/94
f 438/94 90/93 91/95 439/96
f 439/96 91/95 92/97 440/98
f 440/98 92/97 93/99 441/100
f 441/100 93/99 94/101 442/102
f 442/102 94/101 95/103 443/104
f 443/104 95/103 96/105 444/106
f 444/106 96/105 97/107 445/108
f 445/108 97/107 98/109 446/110
f 446/110 98/109 99/111 447/112
f 447/112 99/111 100/113 448/114
f 448/114 100/113 101/115 449/116
f 449/116 101/115 102/117 450/118
f 450/118 102/117 103/119 451/120
f 451/120 103/119 104/121 452/122
f 452/122 104/121 105/123 453/124
f 453/124 105/123 106/125 454/126
f 454/126 106/125 107/127 455/128
f 455/128 107/127 108/129 456/130
f 456/130 108/129 109/131 457/132
f 773/76 775/133 111/134 82/77
f 82/77 111/134 112/135 83/79
f 83/79 112/135 113/136 84/81
f 84/81 113/136 114/137 85/83
f 85/83 114/137 115/138 86/85
f 86/85 115/138 116/139 87/87
f 87/87 116/139 117/140 88/89
f 88/89 117/140 118/141 89/91
f 89/91 118/141 119/142 90/93
f 90/93 119/142 120/143 91/95
f 91/95 120/143 121/144 92/97
f 92/97 121/144 122/145 93/99
f 93/99 122/145 123/146 94/101
f 94/101 123/146 124/147 95/103
f 95/103 124/147 125/148 96/105
f 96/105 125/148 126/149 97/107
f 97/107 126/149 127/150 98/109
f 98/109 127/150 128/151 99/111
f 99/111 128/151 129/152 100/113
f 100/113 129/152 130/153 101/115
f 101/115 130/153 131/154 102/117
f 102/117 131/154 132/155 103/119
f 103/119 132/155 133/156 104/121
f 104/121 133/156 134/157 105/123
f 105/123 134/157 135/158 106/125
f 106/125 135/158 136/159 107/127
f 107/127 136/159 137/160 108/129
f 108/129 137/160 138/161 109/131
f 817/162 777/163 140/164 504/165
f 504/165 140/164 141/166 505/167
f 505/167 141/166 142/168 506/169
f 506/169 142/168 143/170 507/171
f 507/171 143/170 144/172 508/173
f 508/173 144/172 145/174 509/175
f 509/175 145/174 146/176 510/177
f 510/177 146/176 147/178 511/179
f 511/179 147/178 148/180 512/181
f 512/181 148/180 149/182 513/183
f 513/183 149/182 150/184 514/185
f 514/185 150/184 151/186 515/187
f 515/187 151/186 152/188 516/189
f 516/189 152/188 153/190 517/191
f 517/191 153/190 154/192 518/193
f 518/193 154/192 155/194 519/195
f 519/195 155/194 156/196 520/197
f 520/197 156/196 157/198 521/199
f 521/199 157/198 158/200 522/201
f 522/201 158/200 159/202 523/203
f 523/203 159/202 160/204 524/205
f 524/205 160/204 161/206 525/207
f 525/207 161/206 162/208 526/209
f 526/209 162/208 163/210 527/211
f 527/211 163/210 164/212 528/213
f 528/213 164/212 165/214 529/215
f 529/215 165/214 166/216 530/217
f 530/217 166/216 167/218 531/219
f 777/163 771/220 81/221 140/164
f 140/164 81/221 80/222 141/166
f 141/166 80/222 79/223 142/168
f 142/168 79/223 78/224 143/170
f 143/170 78/224 77/225 144/172
f 144/172 77/225 76/226 145/174
f 145/174 76/226 75/227 146/176
f 146/176 75/227 74/228 147/178
f 147/178 74/228 73/229 148/180
f 148/180 73/229 72/230 149/182
f 149/182 72/230 71/231 150/184
f 150/184 71/231 70/232 151/186
f 151/186 70/232 69/233 152/188
f 152/188 69/233 68/234 153/190
f 153/190 68/234 67/235 154/192
f 154/192 67/235 66/236 155/194
f 155/194 66/236 65/237 156/196
f 156/196 65/237 64/238 157/198
f 157/198 64/238 63/239 158/200
f 158/200 63/239 62/240 159/202
f 159/202 62/240 61/241 160/204
f 160/204 61/241 60/242 161/206
f 161/206 60/242 59/243 162/208
f 162/208 59/243 58/244 163/210
f 163/210 58/244 57/245 164/212
f 164/212 57/245 56/246 165/214
f 165/214 56/246 55/247 166/216
f 166/216 55/247 54/248 167/218
f 771/220 779/249 169/250 81/221
f 81/221 169/250 170/251 80/222
f 80/222 170/251 171/252 79/223
f 79/223 171/252 172/253 78/224
f 78/224 172/253 173/254 77/225
f 77/225 173/254 174/255 76/226
f 76/226 174/255 175/256 75/227
f 75/227 175/256 176/257 74/228
f 74/228 176/257 177/258 73/229
f 73/229 177/258 178/259 72/230
f 72/230 178/259 179/260 71/231
f 71/231 179/260 180/261 70/232
f 70/232 180/261 181/262 69/233
f 69/233 181/262 182/263 68/234
f 68/234 182/263 183/264 67/235
f 67/235 183/264 184/265 66/236
f 66/236 184/265 185/266 65/237
f 65/237 185/266 186/267 64/238
f 64/238 186/267 187/268 63/239
f 63/239 187/268 188/269 62/240
f 62/240 188/269 189/270 61/241
f 61/241 189/270 190/271 60/242
f 60/242 190/271 191/272 59/243
f 59/243 191/272 192/273 58/244
f 58/244 192/273 193/274 57/245
f 57/245 193/274 194/275 56/246
f 56/246 194/275 195/276 55/247
f 55/247 195/276 196/277 54/248
f 779/249 781/278 198/279 169/250
f 169/250 198/279 199/280 170/251
f 170/251 199/280 200/281 171/252
f 171/252 200/281 201/282 172/253
f 672/283 674/284 914/284 913/283
f 173/254 202/285 203/286 174/255
f 174/255 203/286 204/287 175/256
f 175/256 204/287 205/288 176/257
f 271/289 300/290 905/290 893/289
f 177/258 206/291 207/292 178/259
f 178/259 207/292 208/293 179/260
f 179/260 208/293 209/294 180/261
f 234/295 263/296 889/296 877/295
f 181/262 210/297 211/298 182/263
f 182/263 211/298 212/299 183/264
f 183/264 212/299 213/300 184/265
f 308/301 704/302 921/302 909/301
f 185/266 214/303 215/304 186/267
f 186/267 215/304 216/305 187/268
f 187/268 216/305 217/306 188/269
f 674/284 293/307 902/307 914/284
f 189/270 218/308 219/309 190/271
f 190/271 219/309 220/310 191/272
f 191/272 220/310 221/311 192/273
f 664/312 666/313 912/313 911/312
f 193/274 222/314 223/315 194/275
f 194/275 223/315 224/316 195/276
f 195/276 224/316 225/317 196/277
f 781/278 783/318 227/319 198/279
f 198/279 227/319 228/320 199/280
f 199/280 228/320 229/321 200/281
f 200/281 229/321 230/322 201/282
f 263/296 292/323 901/323 889/296
f 202/285 231/324 232/325 203/286
f 203/286 232/325 233/326 204/287
f 204/287 233/326 234/295 205/288
f 218/308 189/270 860/270 872/308
f 206/291 235/327 236/328 207/292
f 207/292 236/328 237/329 208/293
f 208/293 237/329 238/330 209/294
f 300/290 688/331 917/331 905/290
f 210/297 239/332 240/333 211/298
f 211/298 240/333 241/334 212/299
f 212/299 241/334 242/335 213/300
f 247/336 218/308 872/308 884/336
f 214/303 243/337 244/338 215/304
f 215/304 244/338 245/339 216/305
f 216/305 245/339 246/340 217/306
f 210/297 181/262 856/262 868/297
f 218/308 247/336 248/341 219/309
f 219/309 248/341 249/342 220/310
f 220/310 249/342 250/343 221/311
f 189/270 188/269 859/269 860/270
f 222/314 251/344 252/345 223/315
f 223/315 252/345 253/346 224/316
f 224/316 253/346 254/347 225/317
f 783/318 785/348 256/349 227/319
f 227/319 256/349 257/350 228/320
f 228/320 257/350 258/351 229/321
f 229/321 258/351 259/352 230/322
f 292/323 672/283 913/283 901/323
f 231/324 260/353 261/354 232/325
f 232/325 261/354 262/355 233/326
f 233/326 262/355 263/296 234/295
f 188/269 217/306 871/306 859/269
f 235/327 264/356 265/357 236/328
f 236/328 265/357 266/358 237/329
f 237/329 266/358 267/359 238/330
f 181/262 180/261 855/261 856/262
f 239/332 268/360 269/361 240/333
f 240/333 269/361 270/362 241/334
f 241/334 270/362 271/289 242/335
f 276/363 247/336 884/336 896/363
f 243/337 272/364 273/365 244/338
f 244/338 273/365 274/366 245/339
f 245/339 274/366 275/367 246/340
f 239/332 210/297 868/297 880/332
f 247/336 276/363 277/368 248/341
f 248/341 277/368 278/369 249/342
f 249/342 278/369 279/370 250/343
f 202/285 173/254 852/254 864/285
f 251/344 280/371 281/372 252/345
f 252/345 281/372 282/373 253/346
f 253/346 282/373 283/374 254/347
f 785/348 787/375 285/376 256/349
f 256/349 285/376 286/377 257/350
f 257/350 286/377 287/378 258/351
f 258/351 287/378 288/379 259/352
f 217/306 246/340 883/340 871/306
f 260/353 289/380 290/381 261/354
f 261/354 290/381 291/382 262/355
f 262/355 291/382 292/323 263/296
f 180/261 209/294 867/294 855/261
f 264/356 293/307 294/383 265/357
f 265/357 294/383 295/384 266/358
f 266/358 295/384 296/385 267/359
f 173/254 172/253 851/253 852/254
f 268/360 297/386 298/387 269/361
f 269/361 298/387 299/388 270/362
f 270/362 299/388 300/290 271/289
f 305/389 276/363 896/363 908/389
f 272/364 301/390 302/391 273/365
f 273/365 302/391 303/392 274/366
f 274/366 303/392 304/393 275/367
f 268/360 239/332 880/332 892/360
f 276/363 305/389 306/394 277/368
f 277/368 306/394 307/395 278/369
f 278/369 307/395 308/301 279/370
f 231/324 202/285 864/285 876/324
f 280/371 309/396 310/397 281/372
f 281/372 310/397 311/398 282/373
f 282/373 311/398 312/399 283/374
f 822/400 789/401 314/402 657/403
f 657/403 314/402 315/404 659/405
f 659/405 315/404 316/406 661/407
f 661/407 316/406 317/408 663/409
f 663/409 317/408 318/410 665/411
f 665/411 318/410 319/412 667/413
f 667/413 319/412 320/414 669/415
f 669/415 320/414 321/416 671/417
f 671/417 321/416 322/418 673/419
f 673/419 322/418 323/420 675/421
f 675/421 323/420 324/422 677/423
f 677/423 324/422 325/424 679/425
f 679/425 325/424 326/426 681/427
f 681/427 326/426 327/428 683/429
f 683/429 327/428 328/430 685/431
f 685/431 328/430 329/432 687/433
f 687/433 329/432 330/434 689/435
f 689/435 330/434 331/436 691/437
f 691/437 331/436 332/438 693/439
f 693/439 332/438 333/440 695/441
f 695/441 333/440 334/442 697/443
f 697/443 334/442 335/444 699/445
f 699/445 335/444 336/446 701/447
f 701/447 336/446 337/448 703/449
f 703/449 337/448 338/450 705/451
f 705/451 338/450 339/452 707/453
f 707/453 339/452 340/454 709/455
f 709/455 340/454 341/456 711/457
f 789/401 791/458 343/459 314/402
f 314/402 343/459 344/460 315/404
f 315/404 344/460 345/461 316/406
f 316/406 345/461 346/462 317/408
f 317/408 346/462 347/463 318/410
f 318/410 347/463 348/464 319/412
f 319/412 348/464 349/465 320/414
f 320/414 349/465 350/466 321/416
f 321/416 350/466 351/467 322/418
f 322/418 351/467 352/468 323/420
f 323/420 352/468 353/469 324/422
f 324/422 353/469 354/470 325/424
f 325/424 354/470 355/471 326/426
f 326/426 355/471 356/472 327/428
f 327/428 356/472 357/473 328/430
f 328/430 357/473 358/474 329/432
f 329/432 358/474 359/475 330/434
f 330/434 359/475 360/476 331/436
f 331/436 360/476 361/477 332/438
f 332/438 361/477 362/478 333/440
f 333/440 362/478 363/479 334/442
f 334/442 363/479 364/480 335/444
f 335/444 364/480 365/481 336/446
f 336/446 365/481 366/482 337/448
f 337/448 366/482 367/483 338/450
f 338/450 367/483 368/484 339/452
f 339/452 368/484 369/485 340/454
f 340/454 369/485 370/486 341/456
f 791/458 793/487 372/488 343/459
f 343/459 372/488 373/489 344/460
f 344/460 373/489 374/490 345/461
f 345/461 374/490 375/491 346/462
f 346/462 375/491 376/492 347/463
f 347/463 376/492 377/493 348/464
f 348/464 377/493 378/494 349/465
f 349/465 378/494 379/495 350/466
f 350/466 379/495 380/496 351/467
f 351/467 380/496 381/497 352/468
f 352/468 381/497 382/498 353/469
f 353/469 382/498 383/499 354/470
f 354/470 383/499 384/500 355/471
f 355/471 384/500 385/501 356/472
f 356/472 385/501 386/502 357/473
f 357/473 386/502 387/503 358/474
f 358/474 387/503 388/504 359/475
f 359/475 388/504 389/505 360/476
f 360/476 389/505 390/506 361/477
f 361/477 390/506 391/507 362/478
f 362/478 391/507 392/508 363/479
f 363/479 392/508 393/509 364/480
f 364/480 393/509 394/510 365/481
f 365/481 394/510 395/511 366/482
f 366/482 395/511 396/512 367/483
f 367/483 396/512 397/513 368/484
f 368/484 397/513 398/514 369/485
f 369/485 398/514 399/515 370/486
f 793/487 795/516 401/517 372/488
f 372/488 401/517 402/518 373/489
f 373/489 402/518 403/519 374/490
f 374/490 403/519 404/520 375/491
f 375/491 404/520 405/521 376/492
f 376/492 405/521 406/522 377/493
f 377/493 406/522 407/523 378/494
f 378/494 407/523 408/524 379/495
f 379/495 408/524 409/525 380/496
f 380/496 409/525 410/526 381/497
f 381/497 410/526 411/527 382/498
f 382/498 411/527 412/528 383/499
f 383/499 412/528 413/529 384/500
f 384/500 413/529 414/530 385/501
f 385/501 414/530 415/531 386/502
f 386/502 415/531 416/532 387/503
f 387/503 416/532 417/533 388/504
f 388/504 417/533 418/534 389/505
f 389/505 418/534 419/535 390/506
f 390/506 419/535 420/536 391/507
f 391/507 420/536 421/537 392/508
f 392/508 421/537 422/538 393/509
f 393/509 422/538 423/539 394/510
f 394/510 423/539 424/540 395/511
f 395/511 424/540 425/541 396/512
f 396/512 425/541 426/542 397/513
f 397/513 426/542 427/543 398/514
f 398/514 427/543 428/544 399/515
f 795/516 797/75 430/78 401/517
f 401/517 430/78 431/80 402/518
f 402/518 431/80 432/82 403/519
f 403/519 432/82 433/84 404/520
f 404/520 433/84 434/86 405/521
f 405/521 434/86 435/88 406/522
f 406/522 435/88 436/90 407/523
f 407/523 436/90 437/92 408/524
f 408/524 437/92 438/94 409/525
f 409/525 438/94 439/96 410/526
f 410/526 439/96 440/98 411/527
f 411/527 440/98 441/100 412/528
f 412/528 441/100 442/102 413/529
f 413/529 442/102 443/104 414/530
f 414/530 443/104 444/106 415/531
f 415/531 444/106 445/108 416/532
f 416/532 445/108 446/110 417/533
f 417/533 446/110 447/112 418/534
f 418/534 447/112 448/114 419/535
f 419/535 448/114 449/116 420/536
f 420/536 449/116 450/118 421/537
f 421/537 450/118 451/120 422/538
f 422/538 451/120 452/122 423/539
f 423/539 452/122 453/124 424/540
f 424/540 453/124 454/126 425/541
f 425/541 454/126 455/128 426/542
f 426/542 455/128 456/130 427/543
f 427/543 456/130 457/132 428/544
f 775/133 799/545 459/546 111/134
f 111/134 459/546 460/547 112/135
f 112/135 460/547 461/548 113/136
f 113/136 461/548 462/549 114/137
f 114/137 462/549 463/550 115/138
f 115/138 463/550 464/551 116/139
f 116/139 464/551 465/552 117/140
f 117/140 465/552 466/553 118/141
f 118/141 466/553 467/554 119/142
f 119/142 467/554 468/555 120/143
f 120/143 468/555 469/556 121/144
f 121/144 469/556 470/557 122/145
f 122/145 470/557 471/558 123/146
f 123/146 471/558 472/559 124/147
f 124/147 472/559 473/560 125/148
f 125/148 473/560 474/561 126/149
f 126/149 474/561 475/562 127/150
f 127/150 475/562 476/563 128/151
f 128/151 476/563 477/564 129/152
f 129/152 477/564 478/565 130/153
f 130/153 478/565 479/566 131/154
f 131/154 479/566 480/567 132/155
f 132/155 480/567 481/568 133/156
f 133/156 481/568 482/569 134/157
f 134/157 482/569 483/570 135/158
f 135/158 483/570 484/571 136/159
f 136/159 484/571 485/572 137/160
f 137/160 485/572 486/573 138/161
f 799/545 801/574 488/575 459/546
f 801/574 803/576 490/577 488/575
f 803/576 805/578 492/579 490/577
f 805/578 807/580 494/581 492/579
f 826/582 809/583 496/584 713/585
f 809/583 811/586 498/587 496/584
f 811/586 813/588 500/589 498/587
f 813/588 815/590 502/591 500/589
f 815/590 817/162 504/165 502/591
f 82/134 111/9 140/221 81/9
f 458/592 110/593 139/594 487/594 489/595 491/596 493/597 495/598 497/599 499/600 501/601 503/602 532/603 168/604 53/605 197/606 226/607 255/608 284/609 313/610 342/611 371/612 400/613 429/614
f 171/252 170/251 169/9 504/167 505/169 506/171 507/173 508/175 509/177 510/179 511/181 512/183 513/185 514/187 515/189 516/191 517/193 518/195 519/197 520/199 521/201 522/203 523/205 524/207 525/209 526/211 527/213 528/215 529/217 530/219 531/9 196/277 195/276 194/275 193/274 192/273 191/272 190/271 189/270 188/269 187/268 186/267 185/266 184/265 183/264 182/263 181/262 180/261 179/260 178/259 177/258 176/257 175/256 174/255 173/254 172/253
f 432/80 431/78 430/9 459/546 460/547 461/548 462/549 463/550 464/551 465/552 466/553 467/554 468/555 469/556 470/557 471/558 472/559 473/560 474/561 475/562 476/563 477/564 478/565 479/566 480/567 481/568 482/569 483/570 484/571 485/572 486/9 457/130 456/128 455/126 454/124 453/122 452/120 451/118 450/116 449/114 448/112 447/110 446/108 445/106 444/104 443/102 442/100 441/98 440/96 439/94 438/92 437/90 436/88 435/86 434/84 433/82
f 458/614 110/592 533/615 581/616
f 581/616 533/615 534/617 582/618
f 971/619 923/620 535/621 583/622
f 583/622 535/621 536/2 584/1
f 110/592 139/593 537/623 533/615
f 533/615 537/623 538/624 534/617
f 923/620 927/625 539/626 535/621
f 535/621 539/626 540/5 536/2
f 532/627 168/603 541/628 605/629
f 605/629 541/628 542/630 606/631
f 979/632 931/633 543/634 607/635
f 607/635 543/634 544/8 608/7
f 168/603 53/604 609/636 541/628
f 541/628 609/636 610/637 542/630
f 931/633 983/638 611/639 543/634
f 543/634 611/639 612/11 544/8
f 53/604 197/605 545/640 609/636
f 609/636 545/640 546/641 610/637
f 983/638 935/642 547/643 611/639
f 611/639 547/643 548/18 612/11
f 197/605 226/606 549/644 545/640
f 545/640 549/644 550/645 546/641
f 935/642 939/646 551/647 547/643
f 547/643 551/647 552/20 548/18
f 226/606 255/607 553/648 549/644
f 549/644 553/648 554/649 550/645
f 939/646 943/650 555/651 551/647
f 551/647 555/651 556/22 552/20
f 255/607 284/608 557/652 553/648
f 553/648 557/652 558/653 554/649
f 943/650 947/654 559/655 555/651
f 555/651 559/655 560/24 556/22
f 284/608 313/609 561/656 557/652
f 557/652 561/656 562/657 558/653
f 947/654 951/658 563/659 559/655
f 559/655 563/659 564/26 560/24
f 313/609 342/610 565/660 561/656
f 561/656 565/660 566/661 562/657
f 951/658 955/662 567/663 563/659
f 563/659 567/663 568/28 564/26
f 342/610 371/611 569/664 565/660
f 565/660 569/664 570/665 566/661
f 955/662 959/666 571/667 567/663
f 567/663 571/667 572/30 568/28
f 371/611 400/612 573/668 569/664
f 569/664 573/668 574/669 570/665
f 959/666 963/670 575/671 571/667
f 571/667 575/671 576/32 572/30
f 400/612 429/613 577/672 573/668
f 573/668 577/672 578/673 574/669
f 963/670 967/674 579/675 575/671
f 575/671 579/675 580/34 576/32
f 429/613 458/614 581/616 577/672
f 577/672 581/616 582/618 578/673
f 967/674 971/619 583/622 579/675
f 579/675 583/622 584/1 580/34
f 139/593 487/594 585/676 537/623
f 537/623 585/676 586/677 538/624
f 927/625 975/678 587/679 539/626
f 539/626 587/679 588/36 540/5
f 487/594 489/595 589/680 585/676
f 489/595 491/596 591/681 589/680
f 590/37 588/36 616/36 620/37
f 595/682 597/683 633/683 629/682
f 602/49 600/47 640/47 644/49
f 491/596 493/597 593/684 591/681
f 592/39 590/37 620/37 624/39
f 586/677 585/676 613/676 614/677
f 588/36 587/679 615/679 616/36
f 493/597 495/598 595/682 593/684
f 597/683 599/685 637/685 633/683
f 604/51 602/49 644/49 648/51
f 594/41 592/39 624/39 628/41
f 495/598 497/599 597/683 595/682
f 585/676 589/680 617/680 613/676
f 979/632 607/635 651/635 999/632
f 599/685 601/686 641/686 637/685
f 497/599 499/600 599/685 597/683
f 608/7 604/51 648/51 652/7
f 596/43 594/41 628/41 632/43
f 589/680 591/681 621/681 617/680
f 499/600 501/601 601/686 599/685
f 601/686 603/687 645/687 641/686
f 598/45 596/43 632/43 636/45
f 591/681 593/684 625/684 621/681
f 501/601 503/602 603/687 601/686
f 978/688 586/677 614/677 990/688
f 605/629 606/631 650/631 649/629
f 603/687 605/629 649/629 645/687
f 503/602 532/627 605/629 603/687
f 593/684 595/682 629/682 625/684
f 607/635 608/7 652/7 651/635
f 600/47 598/45 636/45 640/47
f 613/676 617/680 618/689 614/677
f 987/678 991/690 619/691 615/679
f 615/679 619/691 620/37 616/36
f 617/680 621/681 622/692 618/689
f 619/691 623/693 624/39 620/37
f 621/681 625/684 626/694 622/692
f 623/693 627/695 628/41 624/39
f 625/684 629/682 630/696 626/694
f 627/695 631/697 632/43 628/41
f 629/682 633/683 634/698 630/696
f 631/697 635/699 636/45 632/43
f 633/683 637/685 638/700 634/698
f 635/699 639/701 640/47 636/45
f 637/685 641/686 642/702 638/700
f 639/701 643/703 644/49 640/47
f 641/686 645/687 646/704 642/702
f 643/703 647/705 648/51 644/49
f 645/687 649/629 650/631 646/704
f 995/706 999/632 651/635 647/705
f 647/705 651/635 652/7 648/51
f 38/63 655/707 654/708 17/64
f 655/707 656/65 653/68 654/708
f 787/375 820/709 658/710 285/376
f 820/709 822/400 657/403 658/710
f 285/376 658/710 660/711 286/377
f 696/712 694/713 752/713 754/712
f 286/377 660/711 662/714 287/378
f 677/423 679/425 737/425 735/423
f 287/378 662/714 664/312 288/379
f 759/447 757/445 1021/445 1022/447
f 246/340 275/367 895/367 883/340
f 754/9 919/712 696/712
f 289/380 666/313 668/715 290/381
f 688/331 686/716 744/716 746/331
f 290/381 668/715 670/717 291/382
f 669/415 671/417 729/417 727/415
f 291/382 670/717 672/283 292/323
f 658/710 657/403 715/403 716/710
f 209/294 238/330 879/330 867/294
f 710/718 708/719 766/719 768/718
f 293/307 674/284 676/720 294/383
f 294/383 676/720 678/721 295/384
f 680/722 678/721 736/721 738/722
f 295/384 678/721 680/722 296/385
f 661/407 663/409 721/409 719/407
f 172/253 201/282 863/282 851/253
f 702/723 700/724 758/724 760/723
f 297/386 682/725 684/726 298/387
f 757/445 699/445 1011/445 1021/445
f 298/387 684/726 686/716 299/388
f 672/283 670/717 728/717 730/283
f 299/388 686/716 688/331 300/290
f 705/451 707/453 765/453 763/451
f 297/386 268/360 892/360 904/386
f 694/713 692/727 750/727 752/713
f 301/390 690/728 692/727 302/391
f 685/431 743/431 1018/431 1008/431
f 302/391 692/727 694/713 303/392
f 697/443 699/445 757/445 755/443
f 303/392 694/713 696/712 304/393
f 664/312 662/714 720/714 722/312
f 260/353 231/324 876/324 888/353
f 686/716 684/726 742/726 744/716
f 305/389 698/729 700/724 306/394
f 708/719 706/730 764/730 766/719
f 306/394 700/724 702/723 307/395
f 701/447 759/447 1022/447 1012/447
f 307/395 702/723 704/302 308/301
f 689/435 691/437 749/437 747/435
f 698/729 305/389 908/389 920/729
f 678/721 676/720 734/720 736/721
f 309/396 706/730 708/719 310/397
f 700/724 698/729 756/729 758/724
f 310/397 708/719 710/718 311/398
f 659/405 661/407 719/407 717/405
f 311/398 710/718 712/731 312/399
f 681/427 683/429 741/429 739/427
f 807/580 824/732 714/733 494/581
f 824/732 826/582 713/585 714/733
f 716/710 715/403 717/405 718/711
f 718/711 717/405 719/407 720/714
f 720/714 719/407 721/409 722/312
f 722/312 721/409 723/411 724/313
f 724/313 723/411 725/413 726/715
f 726/715 725/413 727/415 728/717
f 728/717 727/415 729/417 730/283
f 730/283 729/417 731/419 732/284
f 732/284 731/419 733/421 734/720
f 734/720 733/421 735/423 736/721
f 736/721 735/423 737/425 738/722
f 738/722 737/425 739/427 740/725
f 740/725 739/427 741/429 742/726
f 742/726 741/429 743/431 744/716
f 744/716 743/431 745/433 746/331
f 746/331 745/433 747/435 748/728
f 748/728 747/435 749/437 750/727
f 750/727 749/437 751/439 752/713
f 752/713 751/439 753/441 754/712
f 754/712 753/441 755/443 756/729
f 756/729 755/443 757/445 758/724
f 758/724 757/445 759/447 760/723
f 760/723 759/447 761/449 762/302
f 762/302 761/449 763/451 764/730
f 764/730 763/451 765/453 766/719
f 766/719 765/453 767/455 768/718
f 768/718 767/455 769/457 770/731
f 707/453 709/455 767/455 765/453
f 746/9 917/331 688/331
f 685/431 687/433 745/433 743/431
f 663/409 665/411 723/411 721/409
f 704/302 702/723 760/723 762/302
f 738/9 915/722 680/722
f 660/711 658/710 716/710 718/711
f 693/439 695/441 753/441 751/439
f 712/731 710/718 768/718 770/731
f 671/417 673/419 731/419 729/417
f 711/9 712/731 770/457 769/9
f 730/9 913/283 672/283
f 668/715 666/313 724/313 726/715
f 701/447 703/449 761/449 759/447
f 679/425 681/427 739/427 737/425
f 657/403 659/405 717/405 715/403
f 762/9 921/302 704/302
f 709/455 711/457 769/457 767/455
f 676/720 674/284 732/284 734/720
f 687/433 689/435 747/435 745/433
f 665/411 667/413 725/413 723/411
f 722/9 911/312 664/312
f 684/726 682/725 740/725 742/726
f 662/714 660/711 718/711 720/714
f 695/441 697/443 755/443 753/441
f 673/419 675/421 733/421 731/419
f 692/727 690/728 748/728 750/727
f 670/717 668/715 726/715 728/717
f 703/449 705/451 763/451 761/449
f 22/17 10/16 774/734 798/735
f 798/735 774/734 773/76 797/75
f 10/16 11/15 776/736 774/734
f 774/734 776/736 775/133 773/76
f 42/54 12/53 778/737 818/738
f 818/738 778/737 777/163 817/162
f 12/53 9/56 772/739 778/737
f 778/737 772/739 771/220 777/163
f 9/56 13/55 780/740 772/739
f 772/739 780/740 779/249 771/220
f 13/55 14/58 782/741 780/740
f 780/740 782/741 781/278 779/249
f 14/58 15/60 784/742 782/741
f 782/741 784/742 783/318 781/278
f 15/60 16/62 786/743 784/742
f 784/742 786/743 785/348 783/318
f 16/62 17/64 788/744 786/743
f 786/743 788/744 787/375 785/348
f 653/68 18/67 790/745 821/746
f 821/746 790/745 789/401 822/400
f 18/67 19/70 792/747 790/745
f 790/745 792/747 791/458 789/401
f 19/70 20/72 794/748 792/747
f 792/747 794/748 793/487 791/458
f 20/72 21/74 796/749 794/748
f 794/748 796/749 795/516 793/487
f 21/74 22/17 798/735 796/749
f 796/749 798/735 797/75 795/516
f 11/15 33/14 800/750 776/736
f 776/736 800/750 799/545 775/133
f 33/14 34/73 802/751 800/750
f 800/750 802/751 830/751 828/750
f 34/73 35/71 804/752 802/751
f 808/753 823/754 847/754 836/753
f 35/71 36/69 806/755 804/752
f 813/588 811/586 839/586 841/588
f 36/69 37/66 808/753 806/755
f 802/751 804/752 832/752 830/751
f 655/707 38/63 810/756 825/757
f 823/754 825/757 849/757 847/754
f 38/63 39/61 812/758 810/756
f 804/752 806/755 834/755 832/752
f 39/61 40/59 814/759 812/758
f 815/590 813/588 841/588 843/590
f 40/59 41/57 816/760 814/759
f 806/755 808/753 836/753 834/755
f 41/57 42/54 818/738 816/760
f 817/162 815/590 843/590 845/162
f 17/64 654/708 819/761 788/744
f 788/744 819/761 820/709 787/375
f 654/708 653/68 821/746 819/761
f 819/761 821/746 822/400 820/709
f 37/66 656/65 823/754 808/753
f 825/757 810/756 838/756 849/757
f 656/65 655/707 825/757 823/754
f 810/756 812/758 840/758 838/756
f 828/750 830/751 829/574 827/545
f 830/751 832/752 831/576 829/574
f 832/752 834/755 833/578 831/576
f 834/755 836/753 835/580 833/578
f 849/757 838/756 837/583 850/582
f 838/756 840/758 839/586 837/583
f 840/758 842/759 841/588 839/586
f 842/759 844/760 843/590 841/588
f 844/760 846/738 845/162 843/590
f 836/753 847/754 848/732 835/580
f 847/754 849/757 850/582 848/732
f 811/586 809/583 837/583 839/586
f 799/545 800/750 828/750 827/545
f 809/583 826/582 850/582 837/583
f 807/580 805/578 833/578 835/580
f 816/760 818/738 846/738 844/760
f 818/738 817/162 845/162 846/738
f 805/578 803/576 831/576 833/578
f 826/582 824/732 848/732 850/582
f 814/759 816/760 844/760 842/759
f 803/576 801/574 829/574 831/576
f 824/732 807/580 835/580 848/732
f 801/574 799/545 827/545 829/574
f 812/758 814/759 842/759 840/758
f 851/253 863/282 864/285 852/254
f 853/257 865/288 866/291 854/258
f 855/261 867/294 868/297 856/262
f 857/265 869/300 870/303 858/266
f 859/269 871/306 872/308 860/270
f 861/273 873/311 874/314 862/274
f 863/282 875/322 876/324 864/285
f 865/288 877/295 878/327 866/291
f 867/294 879/330 880/332 868/297
f 869/300 881/335 882/337 870/303
f 871/306 883/340 884/336 872/308
f 873/311 885/343 886/344 874/314
f 875/322 887/352 888/353 876/324
f 877/295 889/296 890/356 878/327
f 879/330 891/359 892/360 880/332
f 881/335 893/289 894/364 882/337
f 883/340 895/367 896/363 884/336
f 885/343 897/370 898/371 886/344
f 887/352 899/379 900/380 888/353
f 889/296 901/323 902/307 890/356
f 891/359 903/385 904/386 892/360
f 893/289 905/290 906/390 894/364
f 895/367 907/393 908/389 896/363
f 897/370 909/301 910/396 898/371
f 899/379 911/312 912/313 900/380
f 901/323 913/283 914/284 902/307
f 903/385 915/722 916/725 904/386
f 905/290 917/331 918/728 906/390
f 907/393 919/712 920/729 908/389
f 909/301 921/302 922/730 910/396
f 690/728 301/390 906/390 918/728
f 293/307 264/356 890/356 902/307
f 279/370 308/301 909/301 897/370
f 205/288 234/295 877/295 865/288
f 242/335 271/289 893/289 881/335
f 680/722 682/725 916/725 915/722
f 706/730 309/396 910/396 922/730
f 264/356 235/327 878/327 890/356
f 301/390 272/364 894/364 906/390
f 176/257 205/288 865/288 853/257
f 213/300 242/335 881/335 869/300
f 250/343 279/370 897/370 885/343
f 688/331 690/728 918/728 917/331
f 309/396 280/371 898/371 910/396
f 235/327 206/291 866/291 878/327
f 272/364 243/337 882/337 894/364
f 177/258 176/257 853/257 854/258
f 184/265 213/300 869/300 857/265
f 221/311 250/343 885/343 873/311
f 696/712 698/729 920/729 919/712
f 288/379 664/312 911/312 899/379
f 243/337 214/303 870/303 882/337
f 280/371 251/344 886/344 898/371
f 185/266 184/265 857/265 858/266
f 206/291 177/258 854/258 866/291
f 192/273 221/311 873/311 861/273
f 704/302 706/730 922/730 921/302
f 296/385 680/722 915/722 903/385
f 193/274 192/273 861/273 862/274
f 214/303 185/266 858/266 870/303
f 251/344 222/314 874/314 886/344
f 259/352 288/379 899/379 887/352
f 666/313 289/380 900/380 912/313
f 304/393 696/712 919/712 907/393
f 222/314 193/274 862/274 874/314
f 230/322 259/352 887/352 875/322
f 267/359 296/385 903/385 891/359
f 682/725 297/386 904/386 916/725
f 289/380 260/353 888/353 900/380
f 275/367 304/393 907/393 895/367
f 201/282 230/322 875/322 863/282
f 238/330 267/359 891/359 879/330
f 582/618 534/617 926/762 974/763
f 974/763 926/762 925/764 973/765
f 973/765 925/764 924/766 972/767
f 972/767 924/766 923/620 971/619
f 534/617 538/624 930/768 926/762
f 926/762 930/768 929/769 925/764
f 925/764 929/769 928/770 924/766
f 924/766 928/770 927/625 923/620
f 606/631 542/630 934/771 982/772
f 982/772 934/771 933/773 981/774
f 981/774 933/773 932/775 980/776
f 980/776 932/775 931/633 979/632
f 542/630 610/637 986/777 934/771
f 934/771 986/777 985/778 933/773
f 933/773 985/778 984/779 932/775
f 932/775 984/779 983/638 931/633
f 610/637 546/641 938/780 986/777
f 986/777 938/780 937/781 985/778
f 985/778 937/781 936/782 984/779
f 984/779 936/782 935/642 983/638
f 546/641 550/645 942/783 938/780
f 938/780 942/783 941/784 937/781
f 937/781 941/784 940/785 936/782
f 936/782 940/785 939/646 935/642
f 550/645 554/649 946/786 942/783
f 942/783 946/786 945/787 941/784
f 941/784 945/787 944/788 940/785
f 940/785 944/788 943/650 939/646
f 554/649 558/653 950/789 946/786
f 946/786 950/789 949/790 945/787
f 945/787 949/790 948/791 944/788
f 944/788 948/791 947/654 943/650
f 558/653 562/657 954/792 950/789
f 950/789 954/792 953/793 949/790
f 949/790 953/793 952/794 948/791
f 948/791 952/794 951/658 947/654
f 562/657 566/661 958/795 954/792
f 954/792 958/795 957/796 953/793
f 953/793 957/796 956/797 952/794
f 952/794 956/797 955/662 951/658
f 566/661 570/665 962/798 958/795
f 958/795 962/798 961/799 957/796
f 957/796 961/799 960/800 956/797
f 956/797 960/800 959/666 955/662
f 570/665 574/669 966/801 962/798
f 962/798 966/801 965/802 961/799
f 961/799 965/802 964/803 960/800
f 960/800 964/803 963/670 959/666
f 574/669 578/673 970/804 966/801
f 966/801 970/804 969/805 965/802
f 965/802 969/805 968/806 964/803
f 964/803 968/806 967/674 963/670
f 578/673 582/618 974/763 970/804
f 970/804 974/763 973/765 969/805
f 969/805 973/765 972/767 968/806
f 968/806 972/767 971/619 967/674
f 538/624 586/677 978/688 930/768
f 930/768 978/688 977/807 929/769
f 929/769 977/807 976/808 928/770
f 928/770 976/808 975/678 927/625
f 606/631 982/772 1002/772 650/631
f 982/772 981/774 1001/774 1002/772
f 981/774 980/776 1000/776 1001/774
f 980/776 979/632 999/632 1000/776
f 587/679 975/678 987/678 615/679
f 975/678 976/808 988/808 987/678
f 976/808 977/807 989/807 988/808
f 977/807 978/688 990/688 989/807
f 614/677 618/689 994/809 990/688
f 990/688 994/809 993/810 989/807
f 989/807 993/810 992/811 988/808
f 988/808 992/811 991/690 987/678
f 646/704 650/631 1002/772 998/812
f 998/812 1002/772 1001/774 997/813
f 997/813 1001/774 1000/776 996/814
f 996/814 1000/776 999/632 995/706
f 618/9 622/692 626/694 630/696 634/698 638/700 642/702 646/704 647/9 643/703 639/701 635/699 631/697 627/695 623/693 619/691
f 1011/445 1012/447 1022/447 1021/445
f 1009/437 1010/439 1020/439 1019/437
f 1007/429 1008/431 1018/431 1017/429
f 1005/421 1006/423 1016/423 1015/421
f 1003/413 1004/415 1014/415 1013/413
f 733/421 675/421 1005/421 1015/421
f 749/437 691/437 1009/437 1019/437
f 677/423 735/423 1016/423 1006/423
f 725/413 667/413 1003/413 1013/413
f 735/423 733/421 1015/421 1016/423
f 669/415 727/415 1014/415 1004/415
f 741/429 683/429 1007/429 1017/429
f 751/439 749/437 1019/437 1020/439
f 727/415 725/413 1013/413 1014/415
f 693/439 751/439 1020/439 1010/439
f 743/431 741/429 1017/429 1018/431
f 658/711 660/714 662/312 664/312 666/715 668/717 670/283 672/283 674/720 676/721 678/721 680/722 682/726 684/716 686/716 688/331 690/727 692/727 694/713 696/712 698/724 700/724 702/302 704/302 706/730 708/719 710/731 712/9 711/455 709/453 707/451 705/449 703/447 701/447 699/443 697/441 695/439 693/439 691/435 689/433 687/431 685/431 683/427 681/425 679/423 677/423 675/419 673/417 671/415 669/415 667/411 665/409 663/407 661/405 659/403 657/710
f 173/285 202/324 231/353 260/380 289/313 666/312 664/379 288/352 259/322 230/282 201/253 172/254
f 177/9 674/283 672/9 176/258
f 180/262 181/9 682/722 680/9
f 184/266 185/9 690/331 688/9
f 189/9 698/712 696/9 188/270
f 192/274 193/9 706/302 704/9
