# This file uses centimeters as units for non-parametric coordinates.

mtllib coffee_table_co_multimesh.mtl
g default
v -1.611706 0.029250 2.938951
v -1.601043 0.031450 2.964709
v -1.611806 0.005776 2.969746
v -1.636995 -0.004922 2.971232
v -1.637413 0.004053 2.943708
v -1.637589 0.027109 2.928347
v -1.831474 0.029250 2.938951
v -1.805590 0.027109 2.928347
v -1.805891 0.004052 2.943645
v -1.806405 -0.004922 2.971012
v -1.831441 0.005786 2.969612
v -1.842137 0.031450 2.964709
v -1.575928 1.922835 2.488825
v -1.601758 1.921530 2.477629
v -1.601252 1.949555 2.483701
v -1.601068 1.962067 2.509261
v -1.575479 1.950844 2.510761
v -1.565251 1.924210 2.515911
v -1.576031 1.925528 2.887185
v -1.565233 1.925195 2.860737
v -1.575675 1.951226 2.855943
v -1.601704 1.962067 2.854194
v -1.601772 1.951822 2.882774
v -1.602106 1.925816 2.898139
v -1.867251 1.922835 2.488825
v -1.877928 1.924210 2.515911
v -1.867622 1.950831 2.510942
v -1.841830 1.962067 2.509579
v -1.841704 1.949554 2.483800
v -1.841421 1.921530 2.477629
v -1.867148 1.925528 2.887185
v -1.841073 1.925816 2.898139
v -1.843184 1.951862 2.883726
v -1.844807 1.962067 2.857525
v -1.868522 1.951123 2.857864
v -1.877947 1.925195 2.860737
v -1.611716 0.033704 3.240631
v -1.637574 0.034817 3.251648
v -1.637796 0.007203 3.244555
v -1.637685 -0.004922 3.218906
v -1.612002 0.006065 3.217896
v -1.601023 0.032511 3.213991
v -1.831463 0.033704 3.240631
v -1.842157 0.032511 3.213991
v -1.831097 0.006077 3.217701
v -1.805201 -0.004922 3.218579
v -1.805220 0.007203 3.244454
v -1.805606 0.034817 3.251648
v -1.616558 0.009294 2.947751
v -1.826676 0.009299 2.947696
v -1.580289 1.944987 2.489485
v -1.580516 1.946823 2.878611
v -1.862800 1.944981 2.489563
v -1.863426 1.946786 2.879398
v -1.616729 0.011732 3.239065
v -1.826385 0.011737 3.238981
vt 0.175657 0.002311
vt 0.247066 0.583629
vt 0.353072 0.583731
vt 0.203296 0.122424
vt 0.298670 0.122424
vt 0.205694 0.142061
vt 0.095216 0.002379
vt 0.235354 0.283110
vt 0.303074 0.245396
vt 0.339402 0.126425
vt 0.560084 0.160446
vt 0.815421 0.003172
vt 0.307103 0.414542
vt 0.254259 0.454602
vt 0.388609 0.489650
vt 0.259191 0.002036
vt 0.302993 0.002036
vt 0.237577 0.298518
vt 0.304145 0.260479
vt 0.461687 0.003082
vt 0.074132 0.122657
vt 0.176009 0.122594
vt 0.301534 0.142193
vt 0.245894 0.466724
vt 0.187500 0.001402
vt 0.249299 0.001402
vt 0.225000 0.588354
vt 0.179412 -0.000000
vt 0.256445 -0.000000
vt 0.240469 0.600000
vt 0.312500 0.001400
vt 0.415500 0.001400
vt 0.359577 0.600000
vt 0.306074 -0.000000
vt 0.452140 -0.000000
vt 0.370163 0.582586
vt 0.188209 0.123582
vt 0.187500 0.123582
vt 0.203644 0.131458
vt 0.180286 0.125000
vt 0.189664 0.135099
vt 0.062747 0.123517
vt 0.225000 0.301780
vt 0.222739 0.289450
vt 0.070036 0.125000
vt 0.235829 0.291536
vt 0.313682 0.123581
vt 0.312500 0.123581
vt 0.312500 0.132230
vt 0.328166 0.127410
vt 0.300400 0.131488
vt 0.313713 0.252911
vt 0.586729 0.164726
vt 0.303948 0.252803
vt 0.567760 0.164271
vt 0.312500 0.242813
vt 0.225000 0.448281
vt 0.083095 0.001433
vt 0.234178 0.442133
vt 0.245105 0.455245
vt 0.091294 -0.000000
vt 0.225000 0.461463
vt 0.871654 0.001912
vt 0.415472 0.497132
vt 0.317298 0.392274
vt 0.839812 -0.000000
vt 0.396480 0.494734
vt 0.303284 0.382899
vt 0.187500 0.000000
vt 0.225000 0.600000
vt 0.250000 0.000000
vt 0.312500 0.000000
vt 0.375000 0.600000
vt 0.416667 0.000000
vt 0.187500 0.125000
vt 0.187500 0.125000
vt 0.062500 0.125000
vt 0.225000 0.300000
vt 0.312500 0.125000
vt 0.312500 0.125000
vt 0.312500 0.250000
vt 0.583333 0.166667
vt 0.225000 0.450000
vt 0.225000 0.450000
vt 0.083333 0.000000
vt 0.875000 0.000000
vt 0.312500 0.375000
vt 0.416667 0.500000
vn 0.999229 -0.028784 -0.026714
vn 0.924522 -0.107010 -0.365797
vn 0.925188 -0.099974 -0.366104
vn 0.998949 -0.020670 -0.040916
vn 0.390875 -0.222747 -0.893085
vn 0.047137 -0.235806 -0.970656
vn 0.047235 -0.225029 -0.973206
vn 0.391150 -0.216231 -0.894565
vn 0.055623 -0.997980 -0.030699
vn 0.388049 -0.921409 -0.020576
vn 0.390032 -0.920353 0.028722
vn 0.053250 -0.997677 0.042485
vn 0.922331 -0.386017 -0.017197
vn 0.999067 -0.016769 0.039794
vn 0.925544 -0.377346 0.031267
vn 0.036850 -0.549611 -0.834607
vn -0.036725 -0.549327 -0.834800
vn -0.047132 -0.235810 -0.970656
vn 0.034986 -0.950939 -0.307394
vn -0.055715 -0.997975 -0.030691
vn -0.034343 -0.950881 -0.307645
vn -0.390879 -0.222713 -0.893091
vn -0.391146 -0.216177 -0.894579
vn -0.047246 -0.225052 -0.973201
vn -0.924523 -0.106979 -0.365804
vn -0.999229 -0.028791 -0.026710
vn -0.998941 -0.021006 -0.040947
vn -0.925193 -0.099911 -0.366109
vn -0.922292 -0.386117 -0.017047
vn -0.925269 -0.378017 0.031310
vn -0.999067 -0.016757 0.039801
vn -0.388233 -0.921345 -0.019973
vn -0.053290 -0.997678 0.042425
vn -0.389697 -0.920473 0.029413
vn 0.039177 0.998704 -0.032476
vn 0.026232 0.899908 -0.435289
vn -0.027075 0.900014 -0.435020
vn -0.039425 0.998691 -0.032591
vn 0.027076 0.209481 -0.977438
vn -0.027194 0.209906 -0.977343
vn 0.933393 0.358073 -0.023712
vn 0.930484 0.366054 0.014294
vn 0.999598 -0.008651 0.026993
vn 0.392187 0.919664 -0.020190
vn 0.041161 0.998816 0.025938
vn 0.389215 0.920958 0.018656
vn 0.926174 0.055039 0.373058
vn 0.926514 0.048055 0.373179
vn 0.387523 0.165901 0.906809
vn 0.049795 0.188234 0.980861
vn 0.045697 0.177868 0.982993
vn 0.387933 0.158712 0.907920
vn 0.027288 0.494752 0.868606
vn -0.025770 0.491634 0.870420
vn -0.049698 0.188355 0.980843
vn 0.028613 0.937773 0.346068
vn -0.041406 0.998805 0.025963
vn -0.020674 0.936923 0.348924
vn -0.407017 0.913121 -0.023398
vn -0.406837 0.913377 0.015073
vn -0.938166 0.345278 -0.025045
vn -0.999599 -0.008703 0.026951
vn -0.936395 0.350658 0.014275
vn -0.387618 0.165309 0.906877
vn -0.387930 0.158661 0.907930
vn -0.045706 0.177875 0.982991
vn -0.926173 0.054588 0.373127
vn -0.926518 0.047998 0.373175
vn 0.035584 -0.906006 0.421766
vn -0.036837 -0.906169 0.421308
vn 0.035761 -0.246116 0.968581
vn -0.036051 -0.246623 0.968441
vn 0.330215 -0.489310 -0.807177
vn 0.873965 -0.387880 -0.292804
vn 0.328621 -0.907066 -0.263133
vn -0.874906 -0.385042 -0.293738
vn -0.330927 -0.486600 -0.808522
vn -0.330720 -0.905782 -0.264922
vn 0.912757 0.242694 -0.328593
vn 0.346475 0.150854 -0.925850
vn 0.349873 0.858837 -0.374151
vn 0.316904 0.450270 0.834763
vn 0.878151 0.364492 0.309832
vn 0.317349 0.903325 0.288607
vn -0.345325 0.156145 -0.925402
vn -0.911579 0.247363 -0.328382
vn -0.346853 0.861118 -0.371710
vn -0.890757 0.320884 0.321847
vn -0.328216 0.410440 0.850772
vn -0.349991 0.881228 0.317716
vn 0.900698 -0.281520 0.330891
vn 0.338057 -0.196418 0.920401
vn 0.338579 -0.867418 0.364624
vn -0.337174 -0.201198 0.919692
vn -0.899609 -0.285910 0.330088
vn -0.335876 -0.869784 0.361473
s 1
g pCube5 group6 leg2 group2
usemtl initialShadingGroup
f 2/1/1 1/25/2 13/38/3 18/22/4
s 2
f 1/26/5 6/16/6 14/4/7 13/37/8
s 3
f 4/2/9 3/27/10 41/62/11 40/24/12
s 1
f 3/28/13 2/1/1 42/7/14 41/61/15
s 2
f 6/16/6 5/29/16 9/34/17 8/17/18
s 3
f 5/30/19 4/2/9 10/3/20 9/33/21
s 2
f 8/17/18 7/31/22 25/48/23 30/5/24
s 4
f 7/32/25 12/20/26 26/10/27 25/47/28
f 12/20/26 11/35/29 45/66/30 44/12/31
s 3
f 11/36/32 10/3/20 46/13/33 45/65/34
s 5
f 16/6/35 15/39/36 29/51/37 28/23/38
s 2
f 15/39/39 14/4/7 30/5/24 29/51/40
s 1
f 18/22/4 17/40/41 21/45/42 20/21/43
s 5
f 17/41/44 16/6/35 22/8/45 21/44/46
s 1
f 20/21/43 19/42/47 37/58/48 42/7/14
s 6
f 19/43/49 24/18/50 38/14/51 37/57/52
f 24/18/50 23/46/53 33/54/54 32/19/55
s 5
f 23/46/56 22/8/45 34/9/57 33/54/58
f 28/23/38 27/49/59 35/56/60 34/9/57
s 4
f 27/50/61 26/10/27 36/11/62 35/55/63
s 6
f 32/19/55 31/52/64 43/64/65 48/15/66
s 4
f 31/53/67 36/11/62 44/12/31 43/63/68
s 3
f 40/24/12 39/59/69 47/68/70 46/13/33
s 6
f 39/60/71 38/14/51 48/15/66 47/67/72
s 2
f 14/4/7 6/16/6 8/17/18 30/5/24
s 6
f 38/14/51 24/18/50 32/19/55 48/15/66
s 4
f 26/10/27 12/20/26 44/12/31 36/11/62
s 1
f 20/21/43 42/7/14 2/1/1 18/22/4
s 5
f 34/9/57 22/8/45 16/6/35 28/23/38
s 3
f 46/13/33 10/3/20 4/2/9 40/24/12
s 2
f 5/29/16 6/16/6 1/26/5 49/71/73
s 1
f 1/25/2 2/1/1 3/28/13 49/69/74
s 3
f 3/27/10 4/2/9 5/30/19 49/70/75
s 4
f 11/35/29 12/20/26 7/32/25 50/74/76
s 2
f 7/31/22 8/17/18 9/34/17 50/72/77
s 3
f 9/33/21 10/3/20 11/36/32 50/73/78
s 1
f 17/40/41 18/22/4 13/38/3 51/76/79
s 2
f 13/37/8 14/4/7 15/39/39 51/75/80
s 5
f 15/39/36 16/6/35 17/41/44 51/75/81
s 6
f 23/46/53 24/18/50 19/43/49 52/78/82
s 1
f 19/42/47 20/21/43 21/45/42 52/77/83
s 5
f 21/44/46 22/8/45 23/46/56 52/78/84
s 2
f 29/51/40 30/5/24 25/48/23 53/80/85
s 4
f 25/47/28 26/10/27 27/50/61 53/79/86
s 5
f 27/49/59 28/23/38 29/51/37 53/80/87
s 4
f 35/55/63 36/11/62 31/53/67 54/82/88
s 6
f 31/52/64 32/19/55 33/54/54 54/81/89
s 5
f 33/54/58 34/9/57 35/56/60 54/81/90
s 1
f 41/61/15 42/7/14 37/58/48 55/85/91
s 6
f 37/57/52 38/14/51 39/60/71 55/83/92
s 3
f 39/59/69 40/24/12 41/62/11 55/84/93
s 6
f 47/67/72 48/15/66 43/64/65 56/88/94
s 4
f 43/63/68 44/12/31 45/66/30 56/86/95
s 3
f 45/65/34 46/13/33 47/68/70 56/87/96
g default
v 1.611706 0.029250 2.938951
v 1.601043 0.031450 2.964709
v 1.611806 0.005776 2.969746
v 1.636995 -0.004922 2.971232
v 1.637413 0.004053 2.943708
v 1.637589 0.027109 2.928347
v 1.831474 0.029250 2.938951
v 1.805590 0.027109 2.928347
v 1.805891 0.004052 2.943645
v 1.806405 -0.004922 2.971012
v 1.831441 0.005786 2.969612
v 1.842137 0.031450 2.964709
v 1.575928 1.922835 2.488825
v 1.601758 1.921530 2.477629
v 1.601252 1.949555 2.483701
v 1.601068 1.962067 2.509261
v 1.575479 1.950844 2.510761
v 1.565251 1.924210 2.515911
v 1.576031 1.925528 2.887185
v 1.565233 1.925195 2.860737
v 1.575675 1.951226 2.855943
v 1.601704 1.962067 2.854194
v 1.601772 1.951822 2.882774
v 1.602106 1.925816 2.898139
v 1.867251 1.922835 2.488825
v 1.877928 1.924210 2.515911
v 1.867622 1.950831 2.510942
v 1.841830 1.962067 2.509579
v 1.841704 1.949554 2.483800
v 1.841421 1.921530 2.477629
v 1.867148 1.925528 2.887185
v 1.841073 1.925816 2.898139
v 1.843184 1.951862 2.883726
v 1.844807 1.962067 2.857525
v 1.868522 1.951123 2.857864
v 1.877947 1.925195 2.860737
v 1.611716 0.033704 3.240631
v 1.637574 0.034817 3.251648
v 1.637796 0.007203 3.244555
v 1.637685 -0.004922 3.218906
v 1.612002 0.006065 3.217896
v 1.601023 0.032511 3.213991
v 1.831463 0.033704 3.240631
v 1.842157 0.032511 3.213991
v 1.831097 0.006077 3.217701
v 1.805201 -0.004922 3.218579
v 1.805220 0.007203 3.244454
v 1.805606 0.034817 3.251648
v 1.616558 0.009294 2.947751
v 1.826676 0.009299 2.947696
v 1.580289 1.944987 2.489485
v 1.580516 1.946823 2.878611
v 1.862800 1.944981 2.489563
v 1.863426 1.946786 2.879398
v 1.616729 0.011732 3.239065
v 1.826385 0.011737 3.238981
vt 0.175657 0.002311
vt 0.247066 0.583629
vt 0.353072 0.583731
vt 0.203296 0.122424
vt 0.298670 0.122424
vt 0.205694 0.142061
vt 0.095216 0.002379
vt 0.235354 0.283110
vt 0.303074 0.245396
vt 0.339402 0.126425
vt 0.560084 0.160446
vt 0.815421 0.003172
vt 0.307103 0.414542
vt 0.254259 0.454602
vt 0.388609 0.489650
vt 0.259191 0.002036
vt 0.302993 0.002036
vt 0.237577 0.298518
vt 0.304145 0.260479
vt 0.461687 0.003082
vt 0.074132 0.122657
vt 0.176009 0.122594
vt 0.301534 0.142193
vt 0.245894 0.466724
vt 0.187500 0.001402
vt 0.249299 0.001402
vt 0.225000 0.588354
vt 0.179412 -0.000000
vt 0.256445 -0.000000
vt 0.240469 0.600000
vt 0.312500 0.001400
vt 0.415500 0.001400
vt 0.359577 0.600000
vt 0.306074 -0.000000
vt 0.452140 -0.000000
vt 0.370163 0.582586
vt 0.188209 0.123582
vt 0.187500 0.123582
vt 0.203644 0.131458
vt 0.180286 0.125000
vt 0.189664 0.135099
vt 0.062747 0.123517
vt 0.225000 0.301780
vt 0.222739 0.289450
vt 0.070036 0.125000
vt 0.235829 0.291536
vt 0.313682 0.123581
vt 0.312500 0.123581
vt 0.312500 0.132230
vt 0.328166 0.127410
vt 0.300400 0.131488
vt 0.313713 0.252911
vt 0.586729 0.164726
vt 0.303948 0.252803
vt 0.567760 0.164271
vt 0.312500 0.242813
vt 0.225000 0.448281
vt 0.083095 0.001433
vt 0.234178 0.442133
vt 0.245105 0.455245
vt 0.091294 -0.000000
vt 0.225000 0.461463
vt 0.871654 0.001912
vt 0.415472 0.497132
vt 0.317298 0.392274
vt 0.839812 -0.000000
vt 0.396480 0.494734
vt 0.303284 0.382899
vt 0.187500 0.000000
vt 0.225000 0.600000
vt 0.250000 0.000000
vt 0.312500 0.000000
vt 0.375000 0.600000
vt 0.416667 0.000000
vt 0.187500 0.125000
vt 0.187500 0.125000
vt 0.062500 0.125000
vt 0.225000 0.300000
vt 0.312500 0.125000
vt 0.312500 0.125000
vt 0.312500 0.250000
vt 0.583333 0.166667
vt 0.225000 0.450000
vt 0.225000 0.450000
vt 0.083333 0.000000
vt 0.875000 0.000000
vt 0.312500 0.375000
vt 0.416667 0.500000
vn -0.999229 -0.028784 -0.026714
vn -0.924522 -0.107010 -0.365797
vn -0.925188 -0.099974 -0.366104
vn -0.998949 -0.020670 -0.040916
vn -0.390875 -0.222747 -0.893085
vn -0.047137 -0.235806 -0.970656
vn -0.047235 -0.225029 -0.973206
vn -0.391150 -0.216231 -0.894565
vn -0.055623 -0.997980 -0.030699
vn -0.388049 -0.921409 -0.020576
vn -0.390032 -0.920353 0.028722
vn -0.053250 -0.997677 0.042485
vn -0.922331 -0.386017 -0.017197
vn -0.999067 -0.016769 0.039794
vn -0.925544 -0.377346 0.031267
vn -0.036850 -0.549611 -0.834607
vn 0.036725 -0.549327 -0.834800
vn 0.047132 -0.235810 -0.970656
vn -0.034986 -0.950939 -0.307394
vn 0.055715 -0.997975 -0.030691
vn 0.034343 -0.950881 -0.307645
vn 0.390879 -0.222713 -0.893091
vn 0.391146 -0.216177 -0.894579
vn 0.047246 -0.225052 -0.973201
vn 0.924523 -0.106979 -0.365804
vn 0.999229 -0.028791 -0.026710
vn 0.998941 -0.021006 -0.040947
vn 0.925193 -0.099911 -0.366109
vn 0.922292 -0.386117 -0.017047
vn 0.925269 -0.378017 0.031310
vn 0.999067 -0.016757 0.039801
vn 0.388233 -0.921345 -0.019973
vn 0.053290 -0.997678 0.042425
vn 0.389697 -0.920473 0.029413
vn -0.039177 0.998704 -0.032476
vn -0.026232 0.899908 -0.435289
vn 0.027075 0.900014 -0.435020
vn 0.039425 0.998691 -0.032591
vn -0.027076 0.209481 -0.977438
vn 0.027194 0.209906 -0.977343
vn -0.933393 0.358073 -0.023712
vn -0.930484 0.366054 0.014294
vn -0.999598 -0.008651 0.026993
vn -0.392187 0.919664 -0.020190
vn -0.041161 0.998816 0.025938
vn -0.389215 0.920958 0.018656
vn -0.926174 0.055039 0.373058
vn -0.926514 0.048055 0.373179
vn -0.387523 0.165901 0.906809
vn -0.049795 0.188234 0.980861
vn -0.045697 0.177868 0.982993
vn -0.387933 0.158712 0.907920
vn -0.027288 0.494752 0.868606
vn 0.025770 0.491634 0.870420
vn 0.049698 0.188355 0.980843
vn -0.028613 0.937773 0.346068
vn 0.041406 0.998805 0.025963
vn 0.020674 0.936923 0.348924
vn 0.407017 0.913121 -0.023398
vn 0.406837 0.913377 0.015073
vn 0.938166 0.345278 -0.025045
vn 0.999599 -0.008703 0.026951
vn 0.936395 0.350658 0.014275
vn 0.387618 0.165309 0.906877
vn 0.387930 0.158661 0.907930
vn 0.045706 0.177875 0.982991
vn 0.926173 0.054588 0.373127
vn 0.926518 0.047998 0.373175
vn -0.035584 -0.906006 0.421766
vn 0.036837 -0.906169 0.421308
vn -0.035761 -0.246116 0.968581
vn 0.036051 -0.246623 0.968441
vn -0.330215 -0.489310 -0.807177
vn -0.873965 -0.387880 -0.292804
vn -0.328621 -0.907066 -0.263133
vn 0.874906 -0.385042 -0.293738
vn 0.330927 -0.486600 -0.808522
vn 0.330720 -0.905782 -0.264922
vn -0.912757 0.242694 -0.328593
vn -0.346475 0.150854 -0.925850
vn -0.349873 0.858837 -0.374151
vn -0.316904 0.450270 0.834763
vn -0.878151 0.364492 0.309832
vn -0.317349 0.903325 0.288607
vn 0.345325 0.156145 -0.925402
vn 0.911579 0.247363 -0.328382
vn 0.346853 0.861118 -0.371710
vn 0.890757 0.320884 0.321847
vn 0.328216 0.410440 0.850772
vn 0.349991 0.881228 0.317716
vn -0.900698 -0.281520 0.330891
vn -0.338057 -0.196418 0.920401
vn -0.338579 -0.867418 0.364624
vn 0.337174 -0.201198 0.919692
vn 0.899609 -0.285910 0.330088
vn 0.335876 -0.869784 0.361473
s 1
g group2 pCube5 group6 leg1
usemtl initialShadingGroup
f 58/89/97 57/113/98 69/126/99 74/110/100
s 2
f 57/114/101 62/104/102 70/92/103 69/125/104
s 3
f 60/90/105 59/115/106 97/150/107 96/112/108
s 1
f 59/116/109 58/89/97 98/95/110 97/149/111
s 2
f 62/104/102 61/117/112 65/122/113 64/105/114
s 3
f 61/118/115 60/90/105 66/91/116 65/121/117
s 2
f 64/105/114 63/119/118 81/136/119 86/93/120
s 4
f 63/120/121 68/108/122 82/98/123 81/135/124
f 68/108/122 67/123/125 101/154/126 100/100/127
s 3
f 67/124/128 66/91/116 102/101/129 101/153/130
s 5
f 72/94/131 71/127/132 85/139/133 84/111/134
s 2
f 71/127/135 70/92/103 86/93/120 85/139/136
s 1
f 74/110/100 73/128/137 77/133/138 76/109/139
s 5
f 73/129/140 72/94/131 78/96/141 77/132/142
s 1
f 76/109/139 75/130/143 93/146/144 98/95/110
s 6
f 75/131/145 80/106/146 94/102/147 93/145/148
f 80/106/146 79/134/149 89/142/150 88/107/151
s 5
f 79/134/152 78/96/141 90/97/153 89/142/154
f 84/111/134 83/137/155 91/144/156 90/97/153
s 4
f 83/138/157 82/98/123 92/99/158 91/143/159
s 6
f 88/107/151 87/140/160 99/152/161 104/103/162
s 4
f 87/141/163 92/99/158 100/100/127 99/151/164
s 3
f 96/112/108 95/147/165 103/156/166 102/101/129
s 6
f 95/148/167 94/102/147 104/103/162 103/155/168
s 2
f 70/92/103 62/104/102 64/105/114 86/93/120
s 6
f 94/102/147 80/106/146 88/107/151 104/103/162
s 4
f 82/98/123 68/108/122 100/100/127 92/99/158
s 1
f 76/109/139 98/95/110 58/89/97 74/110/100
s 5
f 90/97/153 78/96/141 72/94/131 84/111/134
s 3
f 102/101/129 66/91/116 60/90/105 96/112/108
s 2
f 61/117/112 62/104/102 57/114/101 105/159/169
s 1
f 57/113/98 58/89/97 59/116/109 105/157/170
s 3
f 59/115/106 60/90/105 61/118/115 105/158/171
s 4
f 67/123/125 68/108/122 63/120/121 106/162/172
s 2
f 63/119/118 64/105/114 65/122/113 106/160/173
s 3
f 65/121/117 66/91/116 67/124/128 106/161/174
s 1
f 73/128/137 74/110/100 69/126/99 107/164/175
s 2
f 69/125/104 70/92/103 71/127/135 107/163/176
s 5
f 71/127/132 72/94/131 73/129/140 107/163/177
s 6
f 79/134/149 80/106/146 75/131/145 108/166/178
s 1
f 75/130/143 76/109/139 77/133/138 108/165/179
s 5
f 77/132/142 78/96/141 79/134/152 108/166/180
s 2
f 85/139/136 86/93/120 81/136/119 109/168/181
s 4
f 81/135/124 82/98/123 83/138/157 109/167/182
s 5
f 83/137/155 84/111/134 85/139/133 109/168/183
s 4
f 91/143/159 92/99/158 87/141/163 110/170/184
s 6
f 87/140/160 88/107/151 89/142/150 110/169/185
s 5
f 89/142/154 90/97/153 91/144/156 110/169/186
s 1
f 97/149/111 98/95/110 93/146/144 111/173/187
s 6
f 93/145/148 94/102/147 95/148/167 111/171/188
s 3
f 95/147/165 96/112/108 97/150/107 111/172/189
s 6
f 103/155/168 104/103/162 99/152/161 112/176/190
s 4
f 99/151/164 100/100/127 101/154/126 112/174/191
s 3
f 101/153/130 102/101/129 103/156/166 112/175/192
g default
v 1.781606 1.564824 2.640534
v 1.781606 1.557288 2.622340
v 1.799801 1.564824 2.622340
v 1.807337 1.583018 2.622340
v 1.799801 1.583018 2.640534
v 1.781606 1.583018 2.648070
v 1.781606 1.564824 -2.640534
v 1.781606 1.583018 -2.648070
v 1.799801 1.583018 -2.640534
v 1.807337 1.583018 -2.622340
v 1.799801 1.564824 -2.622340
v 1.781606 1.557288 -2.622340
v 1.781606 1.945678 2.640534
v 1.781606 1.927484 2.648070
v 1.799801 1.927484 2.640534
v 1.807337 1.927484 2.622340
v 1.799801 1.945678 2.622340
v 1.781606 1.953215 2.622340
v 1.781606 1.945678 -2.640534
v 1.781606 1.953215 -2.622340
v 1.799801 1.945678 -2.622340
v 1.807337 1.927484 -2.622340
v 1.799801 1.927484 -2.640534
v 1.781606 1.927484 -2.648070
v 1.643320 1.927484 2.640534
v 1.661514 1.927484 2.648070
v 1.661514 1.945678 2.640534
v 1.661514 1.953215 2.622340
v 1.643320 1.945678 2.622340
v 1.635784 1.927484 2.622340
v 1.643320 1.927484 -2.640534
v 1.635784 1.927484 -2.622340
v 1.643320 1.945678 -2.622340
v 1.661514 1.953215 -2.622340
v 1.661514 1.945678 -2.640534
v 1.661514 1.927484 -2.648070
v 1.661514 1.564824 2.640534
v 1.661514 1.583018 2.648070
v 1.643320 1.583018 2.640534
v 1.635784 1.583018 2.622340
v 1.643320 1.564824 2.622340
v 1.661514 1.557288 2.622340
v 1.661514 1.564824 -2.640534
v 1.661514 1.557288 -2.622340
v 1.643320 1.564824 -2.622340
v 1.635784 1.583018 -2.622340
v 1.643320 1.583018 -2.640534
v 1.661514 1.583018 -2.648070
v 1.796457 1.568168 2.637190
v 1.796457 1.568168 -2.637190
v 1.796457 1.942335 2.637190
v 1.796457 1.942335 -2.637190
v 1.646664 1.942335 2.637190
v 1.646664 1.942335 -2.637190
v 1.646664 1.568168 2.637190
v 1.646664 1.568168 -2.637190
vt 0.376215 0.962504
vt 0.376215 0.016247
vt 0.623785 0.962504
vt 0.662496 0.016247
vt 0.376215 0.233753
vt 0.623785 0.233753
vt 0.662496 0.233753
vt 0.162496 0.016247
vt 0.376215 0.462504
vt 0.623785 0.462504
vt 0.837504 0.233753
vt 0.837504 0.016247
vt 0.623785 0.787496
vt 0.376215 0.733753
vt 0.623785 0.733753
vt 0.623785 0.016247
vt 0.376215 0.287496
vt 0.623785 0.287496
vt 0.376215 0.516247
vt 0.623785 0.516247
vt 0.376215 0.787496
vt 0.337504 0.016247
vt 0.337504 0.233753
vt 0.162496 0.233753
vt 0.375000 0.975121
vt 0.350121 -0.000000
vt 0.380185 -0.000000
vt 0.380185 1.000000
vt 0.366663 0.015437
vt 0.649879 -0.000000
vt 0.625000 0.975121
vt 0.633337 0.015437
vt 0.619815 1.000000
vt 0.619815 -0.000000
vt 0.350121 0.250000
vt 0.375000 0.274879
vt 0.366663 0.234563
vt 0.377041 0.251077
vt 0.625000 0.274879
vt 0.649879 0.250000
vt 0.622959 0.251077
vt 0.633337 0.234563
vt 0.125000 0.238928
vt 0.375000 0.511072
vt 0.375000 0.475120
vt 0.149880 0.250000
vt 0.377041 0.498923
vt 0.625000 0.511072
vt 0.875000 0.238928
vt 0.622959 0.498923
vt 0.850120 0.250000
vt 0.625000 0.475120
vt 0.149880 -0.000000
vt 0.375000 0.774880
vt 0.375000 0.738928
vt 0.125000 0.011072
vt 0.377041 0.751077
vt 0.625000 0.774880
vt 0.850120 -0.000000
vt 0.622959 0.751077
vt 0.875000 0.011072
vt 0.625000 0.738928
vt 0.375000 1.000000
vt 0.375000 0.000000
vt 0.625000 0.000000
vt 0.625000 1.000000
vt 0.375000 0.250000
vt 0.625000 0.250000
vt 0.125000 0.250000
vt 0.375000 0.500000
vt 0.625000 0.500000
vt 0.875000 0.250000
vt 0.125000 0.000000
vt 0.375000 0.750000
vt 0.625000 0.750000
vt 0.875000 0.000000
vn 0.054357 -0.998521 0.001363
vn 0.039271 -0.924971 0.378004
vn -0.039271 -0.924971 0.378003
vn -0.054357 -0.998521 0.001363
vn 0.035225 -0.378502 0.924930
vn 0.053712 -0.020010 0.998356
vn -0.053712 -0.020010 0.998356
vn -0.035225 -0.378503 0.924930
vn 0.999784 -0.020733 0.001387
vn 0.923934 -0.382550 0.001168
vn 0.923934 -0.382550 -0.001168
vn 0.999784 -0.020733 -0.001387
vn 0.382646 -0.923895 0.000365
vn 0.054357 -0.998521 -0.001363
vn 0.382646 -0.923895 -0.000365
vn 0.381559 -0.009851 0.924292
vn 0.381559 0.009851 0.924292
vn 0.053712 0.020010 0.998356
vn 0.924562 -0.018017 0.380605
vn 0.999784 0.020733 0.001387
vn 0.924562 0.018017 0.380605
vn 0.053712 -0.020010 -0.998356
vn 0.035225 -0.378502 -0.924930
vn -0.035225 -0.378502 -0.924930
vn -0.053712 -0.020010 -0.998356
vn 0.039271 -0.924971 -0.378003
vn -0.054357 -0.998521 -0.001363
vn -0.039271 -0.924971 -0.378004
vn 0.924562 -0.018017 -0.380605
vn 0.924562 0.018017 -0.380605
vn 0.999784 0.020733 -0.001387
vn 0.381559 -0.009851 -0.924292
vn 0.053712 0.020010 -0.998356
vn 0.381559 0.009851 -0.924292
vn 0.035225 0.378504 0.924929
vn -0.035225 0.378504 0.924929
vn -0.053712 0.020010 0.998356
vn 0.039270 0.924973 0.377999
vn 0.054356 0.998521 0.001363
vn -0.054356 0.998521 0.001363
vn -0.039270 0.924973 0.377999
vn 0.382642 0.923897 0.000365
vn 0.382642 0.923897 -0.000365
vn 0.054356 0.998521 -0.001363
vn 0.923933 0.382552 0.001168
vn 0.923933 0.382552 -0.001168
vn 0.039270 0.924973 -0.377999
vn -0.039270 0.924973 -0.377999
vn -0.054356 0.998521 -0.001363
vn 0.035225 0.378504 -0.924929
vn -0.053712 0.020010 -0.998356
vn -0.035225 0.378504 -0.924929
vn -0.381559 0.009852 0.924292
vn -0.381559 -0.009852 0.924292
vn -0.924559 0.018017 0.380612
vn -0.999784 0.020733 0.001387
vn -0.999784 -0.020733 0.001387
vn -0.924559 -0.018017 0.380612
vn -0.923930 0.382559 0.001168
vn -0.923930 0.382559 -0.001168
vn -0.999784 0.020733 -0.001387
vn -0.382642 0.923897 0.000365
vn -0.382642 0.923897 -0.000365
vn -0.924559 0.018017 -0.380612
vn -0.924559 -0.018017 -0.380612
vn -0.999784 -0.020733 -0.001387
vn -0.381559 0.009852 -0.924292
vn -0.381559 -0.009852 -0.924292
vn -0.382646 -0.923895 0.000365
vn -0.382646 -0.923895 -0.000365
vn -0.923931 -0.382557 0.001168
vn -0.923931 -0.382557 -0.001168
vn 0.325271 -0.325274 0.887916
vn 0.325273 -0.887917 0.325271
vn 0.887918 -0.325271 0.325269
vn 0.325272 -0.887917 -0.325270
vn 0.325271 -0.325274 -0.887916
vn 0.887918 -0.325271 -0.325269
vn 0.325267 0.887921 0.325265
vn 0.325270 0.325275 0.887916
vn 0.887918 0.325272 0.325268
vn 0.325270 0.325275 -0.887916
vn 0.325268 0.887920 -0.325266
vn 0.887918 0.325272 -0.325268
vn -0.887918 0.325272 0.325268
vn -0.325268 0.325278 0.887916
vn -0.325268 0.887920 0.325266
vn -0.325268 0.325283 -0.887914
vn -0.887918 0.325272 -0.325268
vn -0.325267 0.887921 -0.325265
vn -0.325272 -0.887917 0.325270
vn -0.325269 -0.325282 0.887914
vn -0.887918 -0.325271 0.325269
vn -0.325269 -0.325278 -0.887916
vn -0.325273 -0.887917 -0.325271
vn -0.887918 -0.325271 -0.325269
s 1
g long_plank1
usemtl initialShadingGroup
f 114/177/193 113/201/194 149/230/195 154/197/196
s 2
f 113/202/197 118/198/198 150/184/199 149/229/200
s 3
f 116/178/201 115/203/202 123/210/203 122/192/204
s 1
f 115/204/205 114/177/193 124/179/206 123/209/207
s 2
f 118/198/198 117/205/208 127/213/209 126/199/210
s 3
f 117/205/211 116/178/201 128/181/212 127/213/213
s 4
f 120/180/214 119/206/215 155/235/216 160/188/217
s 1
f 119/207/218 124/179/206 156/189/219 155/234/220
s 3
f 122/192/204 121/208/221 135/218/222 134/182/223
s 4
f 121/208/224 120/180/214 136/183/225 135/218/226
s 2
f 126/199/210 125/211/227 139/222/228 138/200/229
s 5
f 125/212/230 130/193/231 140/185/232 139/221/233
f 130/193/231 129/214/234 133/217/235 132/194/236
s 3
f 129/214/237 128/181/212 134/182/223 133/217/238
s 5
f 132/194/236 131/215/239 147/228/240 146/186/241
s 4
f 131/216/242 136/183/225 148/187/243 147/227/244
s 2
f 138/200/229 137/219/245 151/232/246 150/184/199
s 6
f 137/220/247 142/195/248 152/190/249 151/231/250
f 142/195/248 141/223/251 145/226/252 144/196/253
s 5
f 141/223/254 140/185/232 146/186/241 145/226/255
s 6
f 144/196/253 143/224/256 159/238/257 158/191/258
s 4
f 143/225/259 148/187/243 160/188/217 159/237/260
s 1
f 154/197/196 153/233/261 157/236/262 156/189/219
s 6
f 153/233/263 152/190/249 158/191/258 157/236/264
s 3
f 116/178/201 122/192/204 134/182/223 128/181/212
s 5
f 130/193/231 132/194/236 146/186/241 140/185/232
s 6
f 142/195/248 144/196/253 158/191/258 152/190/249
s 1
f 154/197/196 156/189/219 124/179/206 114/177/193
s 4
f 120/180/214 160/188/217 148/187/243 136/183/225
s 2
f 150/184/199 118/198/198 126/199/210 138/200/229
f 117/205/208 118/198/198 113/202/197 161/240/265
s 1
f 113/201/194 114/177/193 115/204/205 161/239/266
s 3
f 115/203/202 116/178/201 117/205/211 161/240/267
s 1
f 123/209/207 124/179/206 119/207/218 162/242/268
s 4
f 119/206/215 120/180/214 121/208/224 162/241/269
s 3
f 121/208/221 122/192/204 123/210/203 162/241/270
s 5
f 129/214/234 130/193/231 125/212/230 163/243/271
s 2
f 125/211/227 126/199/210 127/213/209 163/243/272
s 3
f 127/213/213 128/181/212 129/214/237 163/243/273
s 4
f 135/218/226 136/183/225 131/216/242 164/244/274
s 5
f 131/215/239 132/194/236 133/217/235 164/244/275
s 3
f 133/217/238 134/182/223 135/218/222 164/244/276
s 6
f 141/223/251 142/195/248 137/220/247 165/246/277
s 2
f 137/219/245 138/200/229 139/222/228 165/245/278
s 5
f 139/221/233 140/185/232 141/223/254 165/246/279
s 4
f 147/227/244 148/187/243 143/225/259 166/248/280
s 6
f 143/224/256 144/196/253 145/226/252 166/247/281
s 5
f 145/226/255 146/186/241 147/228/240 166/247/282
s 1
f 153/233/261 154/197/196 149/230/195 167/250/283
s 2
f 149/229/200 150/184/199 151/232/246 167/249/284
s 6
f 151/231/250 152/190/249 153/233/263 167/250/285
s 4
f 159/237/260 160/188/217 155/235/216 168/252/286
s 1
f 155/234/220 156/189/219 157/236/262 168/251/287
s 6
f 157/236/264 158/191/258 159/238/257 168/251/288
g default
v -1.611706 0.029250 -2.938951
v -1.601043 0.031450 -2.964709
v -1.611806 0.005776 -2.969746
v -1.636995 -0.004922 -2.971232
v -1.637413 0.004053 -2.943708
v -1.637589 0.027109 -2.928347
v -1.831474 0.029250 -2.938951
v -1.805590 0.027109 -2.928347
v -1.805891 0.004052 -2.943645
v -1.806405 -0.004922 -2.971012
v -1.831441 0.005786 -2.969612
v -1.842137 0.031450 -2.964709
v -1.575928 1.922835 -2.488825
v -1.601758 1.921530 -2.477629
v -1.601252 1.949555 -2.483701
v -1.601068 1.962067 -2.509261
v -1.575479 1.950844 -2.510761
v -1.565251 1.924210 -2.515911
v -1.576031 1.925528 -2.887185
v -1.565233 1.925195 -2.860737
v -1.575675 1.951226 -2.855943
v -1.601704 1.962067 -2.854194
v -1.601772 1.951822 -2.882774
v -1.602106 1.925816 -2.898139
v -1.867251 1.922835 -2.488825
v -1.877928 1.924210 -2.515911
v -1.867622 1.950831 -2.510942
v -1.841830 1.962067 -2.509579
v -1.841704 1.949554 -2.483800
v -1.841421 1.921530 -2.477629
v -1.867148 1.925528 -2.887185
v -1.841073 1.925816 -2.898139
v -1.843184 1.951862 -2.883726
v -1.844807 1.962067 -2.857525
v -1.868522 1.951123 -2.857864
v -1.877947 1.925195 -2.860737
v -1.611716 0.033704 -3.240631
v -1.637574 0.034817 -3.251648
v -1.637796 0.007203 -3.244555
v -1.637685 -0.004922 -3.218906
v -1.612002 0.006065 -3.217896
v -1.601023 0.032511 -3.213991
v -1.831463 0.033704 -3.240631
v -1.842157 0.032511 -3.213991
v -1.831097 0.006077 -3.217701
v -1.805201 -0.004922 -3.218579
v -1.805220 0.007203 -3.244454
v -1.805606 0.034817 -3.251648
v -1.616558 0.009294 -2.947751
v -1.826676 0.009299 -2.947696
v -1.580289 1.944987 -2.489485
v -1.580516 1.946823 -2.878611
v -1.862800 1.944981 -2.489563
v -1.863426 1.946786 -2.879398
v -1.616729 0.011732 -3.239065
v -1.826385 0.011737 -3.238981
vt 0.175657 0.002311
vt 0.247066 0.583629
vt 0.353072 0.583731
vt 0.203296 0.122424
vt 0.298670 0.122424
vt 0.205694 0.142061
vt 0.095216 0.002379
vt 0.235354 0.283110
vt 0.303074 0.245396
vt 0.339402 0.126425
vt 0.560084 0.160446
vt 0.815421 0.003172
vt 0.307103 0.414542
vt 0.254259 0.454602
vt 0.388609 0.489650
vt 0.259191 0.002036
vt 0.302993 0.002036
vt 0.237577 0.298518
vt 0.304145 0.260479
vt 0.461687 0.003082
vt 0.074132 0.122657
vt 0.176009 0.122594
vt 0.301534 0.142193
vt 0.245894 0.466724
vt 0.187500 0.001402
vt 0.249299 0.001402
vt 0.225000 0.588354
vt 0.179412 -0.000000
vt 0.256445 -0.000000
vt 0.240469 0.600000
vt 0.312500 0.001400
vt 0.415500 0.001400
vt 0.359577 0.600000
vt 0.306074 -0.000000
vt 0.452140 -0.000000
vt 0.370163 0.582586
vt 0.188209 0.123582
vt 0.187500 0.123582
vt 0.203644 0.131458
vt 0.180286 0.125000
vt 0.189664 0.135099
vt 0.062747 0.123517
vt 0.225000 0.301780
vt 0.222739 0.289450
vt 0.070036 0.125000
vt 0.235829 0.291536
vt 0.313682 0.123581
vt 0.312500 0.123581
vt 0.312500 0.132230
vt 0.328166 0.127410
vt 0.300400 0.131488
vt 0.313713 0.252911
vt 0.586729 0.164726
vt 0.303948 0.252803
vt 0.567760 0.164271
vt 0.312500 0.242813
vt 0.225000 0.448281
vt 0.083095 0.001433
vt 0.234178 0.442133
vt 0.245105 0.455245
vt 0.091294 -0.000000
vt 0.225000 0.461463
vt 0.871654 0.001912
vt 0.415472 0.497132
vt 0.317298 0.392274
vt 0.839812 -0.000000
vt 0.396480 0.494734
vt 0.303284 0.382899
vt 0.187500 0.000000
vt 0.225000 0.600000
vt 0.250000 0.000000
vt 0.312500 0.000000
vt 0.375000 0.600000
vt 0.416667 0.000000
vt 0.187500 0.125000
vt 0.187500 0.125000
vt 0.062500 0.125000
vt 0.225000 0.300000
vt 0.312500 0.125000
vt 0.312500 0.125000
vt 0.312500 0.250000
vt 0.583333 0.166667
vt 0.225000 0.450000
vt 0.225000 0.450000
vt 0.083333 0.000000
vt 0.875000 0.000000
vt 0.312500 0.375000
vt 0.416667 0.500000
vn 0.999229 -0.028784 0.026714
vn 0.924522 -0.107010 0.365797
vn 0.925188 -0.099974 0.366104
vn 0.998949 -0.020670 0.040916
vn 0.390875 -0.222747 0.893085
vn 0.047137 -0.235806 0.970656
vn 0.047235 -0.225029 0.973206
vn 0.391150 -0.216231 0.894565
vn 0.055623 -0.997980 0.030699
vn 0.388049 -0.921409 0.020576
vn 0.390032 -0.920353 -0.028722
vn 0.053250 -0.997677 -0.042485
vn 0.922331 -0.386017 0.017197
vn 0.999067 -0.016769 -0.039794
vn 0.925544 -0.377346 -0.031267
vn 0.036850 -0.549611 0.834607
vn -0.036725 -0.549327 0.834800
vn -0.047132 -0.235810 0.970656
vn 0.034986 -0.950939 0.307394
vn -0.055715 -0.997975 0.030691
vn -0.034343 -0.950881 0.307645
vn -0.390879 -0.222713 0.893091
vn -0.391146 -0.216177 0.894579
vn -0.047246 -0.225052 0.973201
vn -0.924523 -0.106979 0.365804
vn -0.999229 -0.028791 0.026710
vn -0.998941 -0.021006 0.040947
vn -0.925193 -0.099911 0.366109
vn -0.922292 -0.386117 0.017047
vn -0.925269 -0.378017 -0.031310
vn -0.999067 -0.016757 -0.039801
vn -0.388233 -0.921345 0.019973
vn -0.053290 -0.997678 -0.042425
vn -0.389697 -0.920473 -0.029413
vn 0.039177 0.998704 0.032476
vn 0.026232 0.899908 0.435289
vn -0.027075 0.900014 0.435020
vn -0.039425 0.998691 0.032591
vn 0.027076 0.209481 0.977438
vn -0.027194 0.209906 0.977343
vn 0.933393 0.358073 0.023712
vn 0.930484 0.366054 -0.014294
vn 0.999598 -0.008651 -0.026993
vn 0.392187 0.919664 0.020190
vn 0.041161 0.998816 -0.025938
vn 0.389215 0.920958 -0.018656
vn 0.926174 0.055039 -0.373058
vn 0.926514 0.048055 -0.373179
vn 0.387523 0.165901 -0.906809
vn 0.049795 0.188234 -0.980861
vn 0.045697 0.177868 -0.982993
vn 0.387933 0.158712 -0.907920
vn 0.027288 0.494752 -0.868606
vn -0.025770 0.491634 -0.870420
vn -0.049698 0.188355 -0.980843
vn 0.028613 0.937773 -0.346068
vn -0.041406 0.998805 -0.025963
vn -0.020674 0.936923 -0.348924
vn -0.407017 0.913121 0.023398
vn -0.406837 0.913377 -0.015073
vn -0.938166 0.345278 0.025045
vn -0.999599 -0.008703 -0.026951
vn -0.936395 0.350658 -0.014275
vn -0.387618 0.165309 -0.906877
vn -0.387930 0.158661 -0.907930
vn -0.045706 0.177875 -0.982991
vn -0.926173 0.054588 -0.373127
vn -0.926518 0.047998 -0.373175
vn 0.035584 -0.906006 -0.421766
vn -0.036837 -0.906169 -0.421308
vn 0.035761 -0.246116 -0.968581
vn -0.036051 -0.246623 -0.968441
vn 0.330215 -0.489310 0.807177
vn 0.873965 -0.387880 0.292804
vn 0.328621 -0.907066 0.263133
vn -0.874906 -0.385042 0.293738
vn -0.330927 -0.486600 0.808522
vn -0.330720 -0.905782 0.264922
vn 0.912757 0.242694 0.328593
vn 0.346475 0.150854 0.925850
vn 0.349873 0.858837 0.374151
vn 0.316904 0.450270 -0.834763
vn 0.878151 0.364492 -0.309832
vn 0.317349 0.903325 -0.288607
vn -0.345325 0.156145 0.925402
vn -0.911579 0.247363 0.328382
vn -0.346853 0.861118 0.371710
vn -0.890757 0.320884 -0.321847
vn -0.328216 0.410440 -0.850772
vn -0.349991 0.881228 -0.317716
vn 0.900698 -0.281520 -0.330891
vn 0.338057 -0.196418 -0.920401
vn 0.338579 -0.867418 -0.364624
vn -0.337174 -0.201198 -0.919692
vn -0.899609 -0.285910 -0.330088
vn -0.335876 -0.869784 -0.361473
s 1
g group2 pCube5 group6 leg3
usemtl initialShadingGroup
f 170/253/289 169/277/290 181/290/291 186/274/292
s 2
f 169/278/293 174/268/294 182/256/295 181/289/296
s 3
f 172/254/297 171/279/298 209/314/299 208/276/300
s 1
f 171/280/301 170/253/289 210/259/302 209/313/303
s 2
f 174/268/294 173/281/304 177/286/305 176/269/306
s 3
f 173/282/307 172/254/297 178/255/308 177/285/309
s 2
f 176/269/306 175/283/310 193/300/311 198/257/312
s 4
f 175/284/313 180/272/314 194/262/315 193/299/316
f 180/272/314 179/287/317 213/318/318 212/264/319
s 3
f 179/288/320 178/255/308 214/265/321 213/317/322
s 5
f 184/258/323 183/291/324 197/303/325 196/275/326
s 2
f 183/291/327 182/256/295 198/257/312 197/303/328
s 1
f 186/274/292 185/292/329 189/297/330 188/273/331
s 5
f 185/293/332 184/258/323 190/260/333 189/296/334
s 1
f 188/273/331 187/294/335 205/310/336 210/259/302
s 6
f 187/295/337 192/270/338 206/266/339 205/309/340
f 192/270/338 191/298/341 201/306/342 200/271/343
s 5
f 191/298/344 190/260/333 202/261/345 201/306/346
f 196/275/326 195/301/347 203/308/348 202/261/345
s 4
f 195/302/349 194/262/315 204/263/350 203/307/351
s 6
f 200/271/343 199/304/352 211/316/353 216/267/354
s 4
f 199/305/355 204/263/350 212/264/319 211/315/356
s 3
f 208/276/300 207/311/357 215/320/358 214/265/321
s 6
f 207/312/359 206/266/339 216/267/354 215/319/360
s 2
f 182/256/295 174/268/294 176/269/306 198/257/312
s 6
f 206/266/339 192/270/338 200/271/343 216/267/354
s 4
f 194/262/315 180/272/314 212/264/319 204/263/350
s 1
f 188/273/331 210/259/302 170/253/289 186/274/292
s 5
f 202/261/345 190/260/333 184/258/323 196/275/326
s 3
f 214/265/321 178/255/308 172/254/297 208/276/300
s 2
f 173/281/304 174/268/294 169/278/293 217/323/361
s 1
f 169/277/290 170/253/289 171/280/301 217/321/362
s 3
f 171/279/298 172/254/297 173/282/307 217/322/363
s 4
f 179/287/317 180/272/314 175/284/313 218/326/364
s 2
f 175/283/310 176/269/306 177/286/305 218/324/365
s 3
f 177/285/309 178/255/308 179/288/320 218/325/366
s 1
f 185/292/329 186/274/292 181/290/291 219/328/367
s 2
f 181/289/296 182/256/295 183/291/327 219/327/368
s 5
f 183/291/324 184/258/323 185/293/332 219/327/369
s 6
f 191/298/341 192/270/338 187/295/337 220/330/370
s 1
f 187/294/335 188/273/331 189/297/330 220/329/371
s 5
f 189/296/334 190/260/333 191/298/344 220/330/372
s 2
f 197/303/328 198/257/312 193/300/311 221/332/373
s 4
f 193/299/316 194/262/315 195/302/349 221/331/374
s 5
f 195/301/347 196/275/326 197/303/325 221/332/375
s 4
f 203/307/351 204/263/350 199/305/355 222/334/376
s 6
f 199/304/352 200/271/343 201/306/342 222/333/377
s 5
f 201/306/346 202/261/345 203/308/348 222/333/378
s 1
f 209/313/303 210/259/302 205/310/336 223/337/379
s 6
f 205/309/340 206/266/339 207/312/359 223/335/380
s 3
f 207/311/357 208/276/300 209/314/299 223/336/381
s 6
f 215/319/360 216/267/354 211/316/353 224/340/382
s 4
f 211/315/356 212/264/319 213/318/318 224/338/383
s 3
f 213/317/322 214/265/321 215/320/358 224/339/384
g default
v 1.611175 1.564824 2.594554
v 1.600073 1.557287 2.594554
v 1.600073 1.564824 2.576360
v 1.600073 1.583018 2.568824
v 1.611175 1.583018 2.576360
v 1.615773 1.583018 2.594554
v -1.611175 1.564824 2.594554
v -1.615773 1.583018 2.594554
v -1.611175 1.583018 2.576360
v -1.600073 1.583018 2.568824
v -1.600073 1.564824 2.576360
v -1.600073 1.557287 2.594554
v 1.611175 1.945678 2.594554
v 1.615773 1.927484 2.594554
v 1.611175 1.927484 2.576360
v 1.600073 1.927484 2.568824
v 1.600073 1.945678 2.576360
v 1.600073 1.953215 2.594554
v -1.611175 1.945678 2.594554
v -1.600073 1.953215 2.594554
v -1.600073 1.945678 2.576360
v -1.600073 1.927484 2.568824
v -1.611175 1.927484 2.576360
v -1.615773 1.927484 2.594554
v 1.611175 1.927484 2.732841
v 1.615773 1.927484 2.714646
v 1.611175 1.945678 2.714646
v 1.600073 1.953215 2.714646
v 1.600073 1.945678 2.732841
v 1.600073 1.927484 2.740377
v -1.611175 1.927484 2.732841
v -1.600073 1.927484 2.740377
v -1.600073 1.945678 2.732841
v -1.600073 1.953215 2.714646
v -1.611175 1.945678 2.714646
v -1.615773 1.927484 2.714646
v 1.611175 1.564824 2.714646
v 1.615773 1.583018 2.714646
v 1.611175 1.583018 2.732841
v 1.600073 1.583018 2.740377
v 1.600073 1.564824 2.732841
v 1.600073 1.557287 2.714646
v -1.611175 1.564824 2.714646
v -1.600073 1.557287 2.714646
v -1.600073 1.564824 2.732841
v -1.600073 1.583018 2.740377
v -1.611175 1.583018 2.732841
v -1.615773 1.583018 2.714646
v 1.609134 1.568168 2.579704
v -1.609134 1.568168 2.579704
v 1.609134 1.942335 2.579704
v -1.609134 1.942335 2.579704
v 1.609134 1.942335 2.729497
v -1.609134 1.942335 2.729497
v 1.609134 1.568168 2.729497
v -1.609134 1.568168 2.729497
vt 0.376215 0.962504
vt 0.376215 0.016247
vt 0.623785 0.962504
vt 0.662496 0.016247
vt 0.376215 0.233753
vt 0.623785 0.233753
vt 0.662496 0.233753
vt 0.162496 0.016247
vt 0.376215 0.462504
vt 0.623785 0.462504
vt 0.837504 0.233753
vt 0.837504 0.016247
vt 0.623785 0.787496
vt 0.376215 0.733753
vt 0.623785 0.733753
vt 0.623785 0.016247
vt 0.376215 0.287496
vt 0.623785 0.287496
vt 0.376215 0.516247
vt 0.623785 0.516247
vt 0.376215 0.787496
vt 0.337504 0.016247
vt 0.337504 0.233753
vt 0.162496 0.233753
vt 0.375000 0.975121
vt 0.350121 -0.000000
vt 0.380185 -0.000000
vt 0.380185 1.000000
vt 0.366663 0.015437
vt 0.649879 -0.000000
vt 0.625000 0.975121
vt 0.633337 0.015437
vt 0.619815 1.000000
vt 0.619815 -0.000000
vt 0.350121 0.250000
vt 0.375000 0.274879
vt 0.366663 0.234563
vt 0.377041 0.251077
vt 0.625000 0.274879
vt 0.649879 0.250000
vt 0.622959 0.251077
vt 0.633337 0.234563
vt 0.125000 0.238928
vt 0.375000 0.511072
vt 0.375000 0.475120
vt 0.149880 0.250000
vt 0.377041 0.498923
vt 0.625000 0.511072
vt 0.875000 0.238928
vt 0.622959 0.498923
vt 0.850120 0.250000
vt 0.625000 0.475120
vt 0.149880 -0.000000
vt 0.375000 0.774880
vt 0.375000 0.738928
vt 0.125000 0.011072
vt 0.377041 0.751077
vt 0.625000 0.774880
vt 0.850120 -0.000000
vt 0.622959 0.751077
vt 0.875000 0.011072
vt 0.625000 0.738928
vt 0.375000 1.000000
vt 0.375000 0.000000
vt 0.625000 0.000000
vt 0.625000 1.000000
vt 0.375000 0.250000
vt 0.625000 0.250000
vt 0.125000 0.250000
vt 0.375000 0.500000
vt 0.625000 0.500000
vt 0.875000 0.250000
vt 0.125000 0.000000
vt 0.375000 0.750000
vt 0.625000 0.750000
vt 0.875000 0.000000
vn 0.002233 -0.998519 -0.054357
vn 0.556139 -0.830341 -0.035253
vn 0.556138 -0.830342 0.035254
vn 0.002233 -0.998519 0.054357
vn 0.969962 -0.242209 -0.022539
vn 0.999387 -0.012223 -0.032808
vn 0.999387 -0.012223 0.032809
vn 0.969962 -0.242209 0.022541
vn 0.002273 -0.020733 -0.999782
vn 0.001915 -0.382552 -0.923932
vn -0.001915 -0.382552 -0.923932
vn -0.002273 -0.020733 -0.999782
vn 0.000599 -0.923893 -0.382651
vn -0.002233 -0.998519 -0.054357
vn -0.000599 -0.923893 -0.382651
vn 0.969690 -0.006306 -0.244257
vn 0.969690 0.006306 -0.244257
vn 0.999387 0.012223 -0.032808
vn 0.559212 -0.016152 -0.828867
vn 0.002273 0.020733 -0.999782
vn 0.559212 0.016152 -0.828867
vn -0.999387 -0.012222 -0.032807
vn -0.969965 -0.242198 -0.022540
vn -0.969965 -0.242197 0.022540
vn -0.999387 -0.012222 0.032807
vn -0.556135 -0.830344 -0.035254
vn -0.002233 -0.998519 0.054357
vn -0.556135 -0.830344 0.035253
vn -0.559209 -0.016152 -0.828869
vn -0.559209 0.016152 -0.828870
vn -0.002273 0.020733 -0.999782
vn -0.969691 -0.006307 -0.244253
vn -0.999387 0.012222 -0.032807
vn -0.969691 0.006306 -0.244253
vn 0.969962 0.242210 -0.022539
vn 0.969962 0.242210 0.022541
vn 0.999387 0.012223 0.032809
vn 0.556134 0.830345 -0.035252
vn 0.002233 0.998519 -0.054357
vn 0.002233 0.998519 0.054357
vn 0.556133 0.830345 0.035253
vn 0.000599 0.923895 -0.382647
vn -0.000599 0.923895 -0.382647
vn -0.002233 0.998519 -0.054357
vn 0.001915 0.382553 -0.923932
vn -0.001915 0.382553 -0.923932
vn -0.556130 0.830347 -0.035253
vn -0.556130 0.830347 0.035253
vn -0.002233 0.998519 0.054357
vn -0.969965 0.242198 -0.022540
vn -0.999387 0.012222 0.032807
vn -0.969965 0.242198 0.022540
vn 0.969688 0.006306 0.244266
vn 0.969688 -0.006306 0.244266
vn 0.559220 0.016152 0.828862
vn 0.002273 0.020733 0.999783
vn 0.002273 -0.020733 0.999782
vn 0.559220 -0.016152 0.828862
vn 0.001915 0.382559 0.923929
vn -0.001915 0.382559 0.923929
vn -0.002273 0.020733 0.999783
vn 0.000599 0.923895 0.382645
vn -0.000599 0.923895 0.382645
vn -0.559215 0.016152 0.828865
vn -0.559215 -0.016152 0.828865
vn -0.002273 -0.020733 0.999783
vn -0.969692 0.006306 0.244251
vn -0.969691 -0.006306 0.244251
vn 0.000599 -0.923893 0.382650
vn -0.000599 -0.923893 0.382650
vn 0.001915 -0.382558 0.923930
vn -0.001915 -0.382558 0.923930
vn 0.953494 -0.213130 -0.213130
vn 0.491083 -0.817955 -0.299644
vn 0.491080 -0.299643 -0.817958
vn -0.491087 -0.817952 -0.299649
vn -0.953493 -0.213139 -0.213129
vn -0.491074 -0.299641 -0.817962
vn 0.491077 0.817961 -0.299640
vn 0.953494 0.213132 -0.213128
vn 0.491078 0.299643 -0.817959
vn -0.953493 0.213137 -0.213128
vn -0.491079 0.817957 -0.299644
vn -0.491073 0.299641 -0.817963
vn 0.491076 0.299642 0.817960
vn 0.953493 0.213134 0.213132
vn 0.491071 0.817964 0.299640
vn -0.953494 0.213137 0.213126
vn -0.491076 0.299645 0.817960
vn -0.491077 0.817960 0.299641
vn 0.491076 -0.817960 0.299643
vn 0.953493 -0.213131 0.213133
vn 0.491078 -0.299642 0.817959
vn -0.953494 -0.213136 0.213127
vn -0.491084 -0.817954 0.299646
vn -0.491077 -0.299645 0.817958
s 1
g long_plank4 group7
usemtl initialShadingGroup
f 226/341/385 225/365/386 261/394/387 266/361/388
s 2
f 225/366/389 230/362/390 262/348/391 261/393/392
s 3
f 228/342/393 227/367/394 235/374/395 234/356/396
s 1
f 227/368/397 226/341/385 236/343/398 235/373/399
s 2
f 230/362/390 229/369/400 239/377/401 238/363/402
s 3
f 229/369/403 228/342/393 240/345/404 239/377/405
s 4
f 232/344/406 231/370/407 267/399/408 272/352/409
s 1
f 231/371/410 236/343/398 268/353/411 267/398/412
s 3
f 234/356/396 233/372/413 247/382/414 246/346/415
s 4
f 233/372/416 232/344/406 248/347/417 247/382/418
s 2
f 238/363/402 237/375/419 251/386/420 250/364/421
s 5
f 237/376/422 242/357/423 252/349/424 251/385/425
f 242/357/423 241/378/426 245/381/427 244/358/428
s 3
f 241/378/429 240/345/404 246/346/415 245/381/430
s 5
f 244/358/428 243/379/431 259/392/432 258/350/433
s 4
f 243/380/434 248/347/417 260/351/435 259/391/436
s 2
f 250/364/421 249/383/437 263/396/438 262/348/391
s 6
f 249/384/439 254/359/440 264/354/441 263/395/442
f 254/359/440 253/387/443 257/390/444 256/360/445
s 5
f 253/387/446 252/349/424 258/350/433 257/390/447
s 6
f 256/360/445 255/388/448 271/402/449 270/355/450
s 4
f 255/389/451 260/351/435 272/352/409 271/401/452
s 1
f 266/361/388 265/397/453 269/400/454 268/353/411
s 6
f 265/397/455 264/354/441 270/355/450 269/400/456
s 3
f 228/342/393 234/356/396 246/346/415 240/345/404
s 5
f 242/357/423 244/358/428 258/350/433 252/349/424
s 6
f 254/359/440 256/360/445 270/355/450 264/354/441
s 1
f 266/361/388 268/353/411 236/343/398 226/341/385
s 4
f 232/344/406 272/352/409 260/351/435 248/347/417
s 2
f 262/348/391 230/362/390 238/363/402 250/364/421
f 229/369/400 230/362/390 225/366/389 273/404/457
s 1
f 225/365/386 226/341/385 227/368/397 273/403/458
s 3
f 227/367/394 228/342/393 229/369/403 273/404/459
s 1
f 235/373/399 236/343/398 231/371/410 274/406/460
s 4
f 231/370/407 232/344/406 233/372/416 274/405/461
s 3
f 233/372/413 234/356/396 235/374/395 274/405/462
s 5
f 241/378/426 242/357/423 237/376/422 275/407/463
s 2
f 237/375/419 238/363/402 239/377/401 275/407/464
s 3
f 239/377/405 240/345/404 241/378/429 275/407/465
s 4
f 247/382/418 248/347/417 243/380/434 276/408/466
s 5
f 243/379/431 244/358/428 245/381/427 276/408/467
s 3
f 245/381/430 246/346/415 247/382/414 276/408/468
s 6
f 253/387/443 254/359/440 249/384/439 277/410/469
s 2
f 249/383/437 250/364/421 251/386/420 277/409/470
s 5
f 251/385/425 252/349/424 253/387/446 277/410/471
s 4
f 259/391/436 260/351/435 255/389/451 278/412/472
s 6
f 255/388/448 256/360/445 257/390/444 278/411/473
s 5
f 257/390/447 258/350/433 259/392/432 278/411/474
s 1
f 265/397/453 266/361/388 261/394/387 279/414/475
s 2
f 261/393/392 262/348/391 263/396/438 279/413/476
s 6
f 263/395/442 264/354/441 265/397/455 279/414/477
s 4
f 271/401/452 272/352/409 267/399/408 280/416/478
s 1
f 267/398/412 268/353/411 269/400/454 280/415/479
s 6
f 269/400/456 270/355/450 271/402/449 280/415/480
g default
v 1.611175 1.564824 -2.730971
v 1.600073 1.557287 -2.730971
v 1.600073 1.564824 -2.749165
v 1.600073 1.583018 -2.756701
v 1.611175 1.583018 -2.749165
v 1.615773 1.583018 -2.730971
v -1.611175 1.564824 -2.730971
v -1.615773 1.583018 -2.730971
v -1.611175 1.583018 -2.749165
v -1.600073 1.583018 -2.756701
v -1.600073 1.564824 -2.749165
v -1.600073 1.557287 -2.730971
v 1.611175 1.945678 -2.730971
v 1.615773 1.927484 -2.730971
v 1.611175 1.927484 -2.749165
v 1.600073 1.927484 -2.756701
v 1.600073 1.945678 -2.749165
v 1.600073 1.953215 -2.730971
v -1.611175 1.945678 -2.730971
v -1.600073 1.953215 -2.730971
v -1.600073 1.945678 -2.749165
v -1.600073 1.927484 -2.756701
v -1.611175 1.927484 -2.749165
v -1.615773 1.927484 -2.730971
v 1.611175 1.927484 -2.592685
v 1.615773 1.927484 -2.610879
v 1.611175 1.945678 -2.610879
v 1.600073 1.953215 -2.610879
v 1.600073 1.945678 -2.592685
v 1.600073 1.927484 -2.585148
v -1.611175 1.927484 -2.592684
v -1.600073 1.927484 -2.585148
v -1.600073 1.945678 -2.592684
v -1.600073 1.953215 -2.610879
v -1.611175 1.945678 -2.610879
v -1.615773 1.927484 -2.610879
v 1.611175 1.564824 -2.610879
v 1.615773 1.583018 -2.610879
v 1.611175 1.583018 -2.592685
v 1.600073 1.583018 -2.585148
v 1.600073 1.564824 -2.592685
v 1.600073 1.557287 -2.610879
v -1.611175 1.564824 -2.610879
v -1.600073 1.557287 -2.610879
v -1.600073 1.564824 -2.592684
v -1.600073 1.583018 -2.585148
v -1.611175 1.583018 -2.592684
v -1.615773 1.583018 -2.610879
v 1.609134 1.568168 -2.745821
v -1.609134 1.568168 -2.745821
v 1.609134 1.942335 -2.745821
v -1.609134 1.942335 -2.745821
v 1.609134 1.942335 -2.596028
v -1.609134 1.942335 -2.596028
v 1.609134 1.568168 -2.596028
v -1.609134 1.568168 -2.596028
vt 0.376215 0.962504
vt 0.376215 0.016247
vt 0.623785 0.962504
vt 0.662496 0.016247
vt 0.376215 0.233753
vt 0.623785 0.233753
vt 0.662496 0.233753
vt 0.162496 0.016247
vt 0.376215 0.462504
vt 0.623785 0.462504
vt 0.837504 0.233753
vt 0.837504 0.016247
vt 0.623785 0.787496
vt 0.376215 0.733753
vt 0.623785 0.733753
vt 0.623785 0.016247
vt 0.376215 0.287496
vt 0.623785 0.287496
vt 0.376215 0.516247
vt 0.623785 0.516247
vt 0.376215 0.787496
vt 0.337504 0.016247
vt 0.337504 0.233753
vt 0.162496 0.233753
vt 0.375000 0.975121
vt 0.350121 -0.000000
vt 0.380185 -0.000000
vt 0.380185 1.000000
vt 0.366663 0.015437
vt 0.649879 -0.000000
vt 0.625000 0.975121
vt 0.633337 0.015437
vt 0.619815 1.000000
vt 0.619815 -0.000000
vt 0.350121 0.250000
vt 0.375000 0.274879
vt 0.366663 0.234563
vt 0.377041 0.251077
vt 0.625000 0.274879
vt 0.649879 0.250000
vt 0.622959 0.251077
vt 0.633337 0.234563
vt 0.125000 0.238928
vt 0.375000 0.511072
vt 0.375000 0.475120
vt 0.149880 0.250000
vt 0.377041 0.498923
vt 0.625000 0.511072
vt 0.875000 0.238928
vt 0.622959 0.498923
vt 0.850120 0.250000
vt 0.625000 0.475120
vt 0.149880 -0.000000
vt 0.375000 0.774880
vt 0.375000 0.738928
vt 0.125000 0.011072
vt 0.377041 0.751077
vt 0.625000 0.774880
vt 0.850120 -0.000000
vt 0.622959 0.751077
vt 0.875000 0.011072
vt 0.625000 0.738928
vt 0.375000 1.000000
vt 0.375000 0.000000
vt 0.625000 0.000000
vt 0.625000 1.000000
vt 0.375000 0.250000
vt 0.625000 0.250000
vt 0.125000 0.250000
vt 0.375000 0.500000
vt 0.625000 0.500000
vt 0.875000 0.250000
vt 0.125000 0.000000
vt 0.375000 0.750000
vt 0.625000 0.750000
vt 0.875000 0.000000
vn 0.002233 -0.998519 -0.054357
vn 0.556139 -0.830341 -0.035253
vn 0.556138 -0.830342 0.035254
vn 0.002233 -0.998519 0.054357
vn 0.969962 -0.242209 -0.022539
vn 0.999387 -0.012223 -0.032808
vn 0.999387 -0.012223 0.032809
vn 0.969962 -0.242209 0.022541
vn 0.002273 -0.020733 -0.999782
vn 0.001915 -0.382552 -0.923932
vn -0.001915 -0.382552 -0.923932
vn -0.002273 -0.020733 -0.999782
vn 0.000599 -0.923893 -0.382651
vn -0.002233 -0.998519 -0.054357
vn -0.000599 -0.923893 -0.382651
vn 0.969690 -0.006306 -0.244257
vn 0.969690 0.006306 -0.244257
vn 0.999387 0.012223 -0.032808
vn 0.559212 -0.016152 -0.828867
vn 0.002273 0.020733 -0.999782
vn 0.559212 0.016152 -0.828867
vn -0.999387 -0.012222 -0.032807
vn -0.969965 -0.242198 -0.022540
vn -0.969965 -0.242197 0.022540
vn -0.999387 -0.012222 0.032807
vn -0.556135 -0.830344 -0.035254
vn -0.002233 -0.998519 0.054357
vn -0.556135 -0.830344 0.035253
vn -0.559209 -0.016152 -0.828869
vn -0.559209 0.016152 -0.828870
vn -0.002273 0.020733 -0.999782
vn -0.969691 -0.006307 -0.244253
vn -0.999387 0.012222 -0.032807
vn -0.969691 0.006306 -0.244253
vn 0.969962 0.242210 -0.022539
vn 0.969962 0.242210 0.022541
vn 0.999387 0.012223 0.032809
vn 0.556134 0.830345 -0.035252
vn 0.002233 0.998519 -0.054357
vn 0.002233 0.998519 0.054357
vn 0.556133 0.830345 0.035253
vn 0.000599 0.923895 -0.382647
vn -0.000599 0.923895 -0.382647
vn -0.002233 0.998519 -0.054357
vn 0.001915 0.382553 -0.923932
vn -0.001915 0.382553 -0.923932
vn -0.556130 0.830347 -0.035253
vn -0.556130 0.830347 0.035253
vn -0.002233 0.998519 0.054357
vn -0.969965 0.242198 -0.022540
vn -0.999387 0.012222 0.032807
vn -0.969965 0.242198 0.022540
vn 0.969688 0.006306 0.244266
vn 0.969688 -0.006306 0.244266
vn 0.559220 0.016152 0.828862
vn 0.002273 0.020733 0.999783
vn 0.002273 -0.020733 0.999782
vn 0.559220 -0.016152 0.828862
vn 0.001915 0.382559 0.923929
vn -0.001915 0.382559 0.923929
vn -0.002273 0.020733 0.999783
vn 0.000599 0.923895 0.382645
vn -0.000599 0.923895 0.382645
vn -0.559215 0.016152 0.828865
vn -0.559215 -0.016152 0.828865
vn -0.002273 -0.020733 0.999783
vn -0.969692 0.006306 0.244251
vn -0.969691 -0.006306 0.244251
vn 0.000599 -0.923893 0.382650
vn -0.000599 -0.923893 0.382650
vn 0.001915 -0.382558 0.923930
vn -0.001915 -0.382558 0.923930
vn 0.953494 -0.213130 -0.213130
vn 0.491083 -0.817955 -0.299644
vn 0.491080 -0.299643 -0.817958
vn -0.491087 -0.817952 -0.299649
vn -0.953493 -0.213139 -0.213129
vn -0.491074 -0.299641 -0.817962
vn 0.491077 0.817961 -0.299640
vn 0.953494 0.213132 -0.213128
vn 0.491078 0.299643 -0.817959
vn -0.953493 0.213137 -0.213128
vn -0.491079 0.817957 -0.299644
vn -0.491073 0.299641 -0.817963
vn 0.491076 0.299642 0.817960
vn 0.953493 0.213134 0.213132
vn 0.491071 0.817964 0.299640
vn -0.953494 0.213137 0.213126
vn -0.491076 0.299645 0.817960
vn -0.491077 0.817960 0.299641
vn 0.491076 -0.817960 0.299643
vn 0.953493 -0.213131 0.213133
vn 0.491078 -0.299642 0.817959
vn -0.953494 -0.213136 0.213127
vn -0.491084 -0.817954 0.299646
vn -0.491077 -0.299645 0.817958
s 1
g group7 long_plank5
usemtl initialShadingGroup
f 282/417/481 281/441/482 317/470/483 322/437/484
s 2
f 281/442/485 286/438/486 318/424/487 317/469/488
s 3
f 284/418/489 283/443/490 291/450/491 290/432/492
s 1
f 283/444/493 282/417/481 292/419/494 291/449/495
s 2
f 286/438/486 285/445/496 295/453/497 294/439/498
s 3
f 285/445/499 284/418/489 296/421/500 295/453/501
s 4
f 288/420/502 287/446/503 323/475/504 328/428/505
s 1
f 287/447/506 292/419/494 324/429/507 323/474/508
s 3
f 290/432/492 289/448/509 303/458/510 302/422/511
s 4
f 289/448/512 288/420/502 304/423/513 303/458/514
s 2
f 294/439/498 293/451/515 307/462/516 306/440/517
s 5
f 293/452/518 298/433/519 308/425/520 307/461/521
f 298/433/519 297/454/522 301/457/523 300/434/524
s 3
f 297/454/525 296/421/500 302/422/511 301/457/526
s 5
f 300/434/524 299/455/527 315/468/528 314/426/529
s 4
f 299/456/530 304/423/513 316/427/531 315/467/532
s 2
f 306/440/517 305/459/533 319/472/534 318/424/487
s 6
f 305/460/535 310/435/536 320/430/537 319/471/538
f 310/435/536 309/463/539 313/466/540 312/436/541
s 5
f 309/463/542 308/425/520 314/426/529 313/466/543
s 6
f 312/436/541 311/464/544 327/478/545 326/431/546
s 4
f 311/465/547 316/427/531 328/428/505 327/477/548
s 1
f 322/437/484 321/473/549 325/476/550 324/429/507
s 6
f 321/473/551 320/430/537 326/431/546 325/476/552
s 3
f 284/418/489 290/432/492 302/422/511 296/421/500
s 5
f 298/433/519 300/434/524 314/426/529 308/425/520
s 6
f 310/435/536 312/436/541 326/431/546 320/430/537
s 1
f 322/437/484 324/429/507 292/419/494 282/417/481
s 4
f 288/420/502 328/428/505 316/427/531 304/423/513
s 2
f 318/424/487 286/438/486 294/439/498 306/440/517
f 285/445/496 286/438/486 281/442/485 329/480/553
s 1
f 281/441/482 282/417/481 283/444/493 329/479/554
s 3
f 283/443/490 284/418/489 285/445/499 329/480/555
s 1
f 291/449/495 292/419/494 287/447/506 330/482/556
s 4
f 287/446/503 288/420/502 289/448/512 330/481/557
s 3
f 289/448/509 290/432/492 291/450/491 330/481/558
s 5
f 297/454/522 298/433/519 293/452/518 331/483/559
s 2
f 293/451/515 294/439/498 295/453/497 331/483/560
s 3
f 295/453/501 296/421/500 297/454/525 331/483/561
s 4
f 303/458/514 304/423/513 299/456/530 332/484/562
s 5
f 299/455/527 300/434/524 301/457/523 332/484/563
s 3
f 301/457/526 302/422/511 303/458/510 332/484/564
s 6
f 309/463/539 310/435/536 305/460/535 333/486/565
s 2
f 305/459/533 306/440/517 307/462/516 333/485/566
s 5
f 307/461/521 308/425/520 309/463/542 333/486/567
s 4
f 315/467/532 316/427/531 311/465/547 334/488/568
s 6
f 311/464/544 312/436/541 313/466/540 334/487/569
s 5
f 313/466/543 314/426/529 315/468/528 334/487/570
s 1
f 321/473/549 322/437/484 317/470/483 335/490/571
s 2
f 317/469/488 318/424/487 319/472/534 335/489/572
s 6
f 319/471/538 320/430/537 321/473/551 335/490/573
s 4
f 327/477/548 328/428/505 323/475/504 336/492/574
s 1
f 323/474/508 324/429/507 325/476/550 336/491/575
s 6
f 325/476/552 326/431/546 327/478/545 336/491/576
g default
v 1.611175 1.564824 2.594554
v 1.600073 1.557288 2.594554
v 1.600073 1.564824 2.576360
v 1.600073 1.583018 2.568824
v 1.611175 1.583018 2.576360
v 1.615773 1.583018 2.594554
v -1.611175 1.564824 2.594554
v -1.615773 1.583018 2.594554
v -1.611175 1.583018 2.576360
v -1.600073 1.583018 2.568824
v -1.600073 1.564824 2.576360
v -1.600073 1.557288 2.594554
v 1.611175 1.945678 2.594554
v 1.615773 1.927484 2.594554
v 1.611175 1.927484 2.576360
v 1.600073 1.927484 2.568824
v 1.600073 1.945678 2.576360
v 1.600073 1.953215 2.594554
v -1.611175 1.945678 2.594554
v -1.600073 1.953215 2.594554
v -1.600073 1.945678 2.576360
v -1.600073 1.927484 2.568824
v -1.611175 1.927484 2.576360
v -1.615773 1.927484 2.594554
v 1.611175 1.927484 2.732841
v 1.615773 1.927484 2.714646
v 1.611175 1.945678 2.714646
v 1.600073 1.953215 2.714646
v 1.600073 1.945678 2.732841
v 1.600073 1.927484 2.740377
v -1.611175 1.927484 2.732841
v -1.600073 1.927484 2.740377
v -1.600073 1.945678 2.732841
v -1.600073 1.953215 2.714646
v -1.611175 1.945678 2.714646
v -1.615773 1.927484 2.714646
v 1.611175 1.564824 2.714646
v 1.615773 1.583018 2.714646
v 1.611175 1.583018 2.732841
v 1.600073 1.583018 2.740377
v 1.600073 1.564824 2.732841
v 1.600073 1.557288 2.714646
v -1.611175 1.564824 2.714646
v -1.600073 1.557288 2.714646
v -1.600073 1.564824 2.732841
v -1.600073 1.583018 2.740377
v -1.611175 1.583018 2.732841
v -1.615773 1.583018 2.714646
v 1.609134 1.568168 2.579704
v -1.609134 1.568168 2.579704
v 1.609134 1.942335 2.579704
v -1.609134 1.942335 2.579704
v 1.609134 1.942335 2.729497
v -1.609134 1.942335 2.729497
v 1.609134 1.568168 2.729497
v -1.609134 1.568168 2.729497
vt 0.376215 0.962504
vt 0.376215 0.016247
vt 0.623785 0.962504
vt 0.662496 0.016247
vt 0.376215 0.233753
vt 0.623785 0.233753
vt 0.662496 0.233753
vt 0.162496 0.016247
vt 0.376215 0.462504
vt 0.623785 0.462504
vt 0.837504 0.233753
vt 0.837504 0.016247
vt 0.623785 0.787496
vt 0.376215 0.733753
vt 0.623785 0.733753
vt 0.623785 0.016247
vt 0.376215 0.287496
vt 0.623785 0.287496
vt 0.376215 0.516247
vt 0.623785 0.516247
vt 0.376215 0.787496
vt 0.337504 0.016247
vt 0.337504 0.233753
vt 0.162496 0.233753
vt 0.375000 0.975121
vt 0.350121 -0.000000
vt 0.380185 -0.000000
vt 0.380185 1.000000
vt 0.366663 0.015437
vt 0.649879 -0.000000
vt 0.625000 0.975121
vt 0.633337 0.015437
vt 0.619815 1.000000
vt 0.619815 -0.000000
vt 0.350121 0.250000
vt 0.375000 0.274879
vt 0.366663 0.234563
vt 0.377041 0.251077
vt 0.625000 0.274879
vt 0.649879 0.250000
vt 0.622959 0.251077
vt 0.633337 0.234563
vt 0.125000 0.238928
vt 0.375000 0.511072
vt 0.375000 0.475120
vt 0.149880 0.250000
vt 0.377041 0.498923
vt 0.625000 0.511072
vt 0.875000 0.238928
vt 0.622959 0.498923
vt 0.850120 0.250000
vt 0.625000 0.475120
vt 0.149880 -0.000000
vt 0.375000 0.774880
vt 0.375000 0.738928
vt 0.125000 0.011072
vt 0.377041 0.751077
vt 0.625000 0.774880
vt 0.850120 -0.000000
vt 0.622959 0.751077
vt 0.875000 0.011072
vt 0.625000 0.738928
vt 0.375000 1.000000
vt 0.375000 0.000000
vt 0.625000 0.000000
vt 0.625000 1.000000
vt 0.375000 0.250000
vt 0.625000 0.250000
vt 0.125000 0.250000
vt 0.375000 0.500000
vt 0.625000 0.500000
vt 0.875000 0.250000
vt 0.125000 0.000000
vt 0.375000 0.750000
vt 0.625000 0.750000
vt 0.875000 0.000000
vn 0.002233 -0.998519 -0.054357
vn 0.556130 -0.830347 -0.035253
vn 0.556130 -0.830347 0.035253
vn 0.002233 -0.998519 0.054357
vn 0.969966 -0.242196 -0.022540
vn 0.999387 -0.012222 -0.032807
vn 0.999387 -0.012222 0.032807
vn 0.969965 -0.242196 0.022540
vn 0.002273 -0.020733 -0.999782
vn 0.001915 -0.382550 -0.923933
vn -0.001915 -0.382550 -0.923933
vn -0.002273 -0.020733 -0.999782
vn 0.000599 -0.923895 -0.382646
vn -0.002233 -0.998519 -0.054357
vn -0.000599 -0.923895 -0.382646
vn 0.969691 -0.006306 -0.244252
vn 0.969691 0.006306 -0.244252
vn 0.999387 0.012222 -0.032807
vn 0.559209 -0.016152 -0.828870
vn 0.002273 0.020733 -0.999782
vn 0.559209 0.016152 -0.828870
vn -0.999387 -0.012222 -0.032807
vn -0.969966 -0.242196 -0.022540
vn -0.969966 -0.242196 0.022540
vn -0.999387 -0.012222 0.032807
vn -0.556130 -0.830347 -0.035253
vn -0.002233 -0.998519 0.054357
vn -0.556130 -0.830347 0.035253
vn -0.559209 -0.016152 -0.828870
vn -0.559209 0.016152 -0.828870
vn -0.002273 0.020733 -0.999782
vn -0.969691 -0.006306 -0.244252
vn -0.999387 0.012222 -0.032807
vn -0.969691 0.006306 -0.244252
vn 0.969965 0.242197 -0.022540
vn 0.969965 0.242197 0.022540
vn 0.999387 0.012222 0.032807
vn 0.556125 0.830350 -0.035253
vn 0.002233 0.998519 -0.054356
vn 0.002233 0.998519 0.054356
vn 0.556125 0.830350 0.035253
vn 0.000599 0.923897 -0.382642
vn -0.000599 0.923897 -0.382642
vn -0.002233 0.998519 -0.054356
vn 0.001915 0.382552 -0.923932
vn -0.001915 0.382552 -0.923932
vn -0.556125 0.830350 -0.035253
vn -0.556125 0.830350 0.035253
vn -0.002233 0.998519 0.054356
vn -0.969965 0.242197 -0.022540
vn -0.999387 0.012222 0.032807
vn -0.969965 0.242197 0.022540
vn 0.969691 0.006306 0.244251
vn 0.969691 -0.006307 0.244251
vn 0.559217 0.016152 0.828864
vn 0.002273 0.020733 0.999783
vn 0.002273 -0.020733 0.999782
vn 0.559217 -0.016152 0.828864
vn 0.001915 0.382559 0.923929
vn -0.001915 0.382559 0.923929
vn -0.002273 0.020733 0.999783
vn 0.000599 0.923897 0.382642
vn -0.000599 0.923897 0.382642
vn -0.559217 0.016152 0.828864
vn -0.559217 -0.016152 0.828864
vn -0.002273 -0.020733 0.999782
vn -0.969691 0.006307 0.244251
vn -0.969691 -0.006306 0.244251
vn 0.000599 -0.923895 0.382646
vn -0.000599 -0.923895 0.382646
vn 0.001915 -0.382557 0.923930
vn -0.001915 -0.382557 0.923930
vn 0.953494 -0.213131 -0.213129
vn 0.491080 -0.817957 -0.299645
vn 0.491078 -0.299643 -0.817959
vn -0.491079 -0.817958 -0.299644
vn -0.953494 -0.213131 -0.213129
vn -0.491078 -0.299643 -0.817959
vn 0.491073 0.817963 -0.299640
vn 0.953494 0.213131 -0.213128
vn 0.491076 0.299644 -0.817959
vn -0.953494 0.213131 -0.213128
vn -0.491074 0.817962 -0.299640
vn -0.491076 0.299644 -0.817959
vn 0.491077 0.299644 0.817959
vn 0.953494 0.213134 0.213127
vn 0.491074 0.817962 0.299640
vn -0.953493 0.213137 0.213127
vn -0.491076 0.299644 0.817959
vn -0.491073 0.817963 0.299640
vn 0.491079 -0.817958 0.299644
vn 0.953493 -0.213137 0.213128
vn 0.491078 -0.299643 0.817959
vn -0.953494 -0.213133 0.213128
vn -0.491080 -0.817957 0.299645
vn -0.491078 -0.299643 0.817959
s 1
g group7 long_plank3
usemtl initialShadingGroup
f 338/493/577 337/517/578 373/546/579 378/513/580
s 2
f 337/518/581 342/514/582 374/500/583 373/545/584
s 3
f 340/494/585 339/519/586 347/526/587 346/508/588
s 1
f 339/520/589 338/493/577 348/495/590 347/525/591
s 2
f 342/514/582 341/521/592 351/529/593 350/515/594
s 3
f 341/521/595 340/494/585 352/497/596 351/529/597
s 4
f 344/496/598 343/522/599 379/551/600 384/504/601
s 1
f 343/523/602 348/495/590 380/505/603 379/550/604
s 3
f 346/508/588 345/524/605 359/534/606 358/498/607
s 4
f 345/524/608 344/496/598 360/499/609 359/534/610
s 2
f 350/515/594 349/527/611 363/538/612 362/516/613
s 5
f 349/528/614 354/509/615 364/501/616 363/537/617
f 354/509/615 353/530/618 357/533/619 356/510/620
s 3
f 353/530/621 352/497/596 358/498/607 357/533/622
s 5
f 356/510/620 355/531/623 371/544/624 370/502/625
s 4
f 355/532/626 360/499/609 372/503/627 371/543/628
s 2
f 362/516/613 361/535/629 375/548/630 374/500/583
s 6
f 361/536/631 366/511/632 376/506/633 375/547/634
f 366/511/632 365/539/635 369/542/636 368/512/637
s 5
f 365/539/638 364/501/616 370/502/625 369/542/639
s 6
f 368/512/637 367/540/640 383/554/641 382/507/642
s 4
f 367/541/643 372/503/627 384/504/601 383/553/644
s 1
f 378/513/580 377/549/645 381/552/646 380/505/603
s 6
f 377/549/647 376/506/633 382/507/642 381/552/648
s 3
f 340/494/585 346/508/588 358/498/607 352/497/596
s 5
f 354/509/615 356/510/620 370/502/625 364/501/616
s 6
f 366/511/632 368/512/637 382/507/642 376/506/633
s 1
f 378/513/580 380/505/603 348/495/590 338/493/577
s 4
f 344/496/598 384/504/601 372/503/627 360/499/609
s 2
f 374/500/583 342/514/582 350/515/594 362/516/613
f 341/521/592 342/514/582 337/518/581 385/556/649
s 1
f 337/517/578 338/493/577 339/520/589 385/555/650
s 3
f 339/519/586 340/494/585 341/521/595 385/556/651
s 1
f 347/525/591 348/495/590 343/523/602 386/558/652
s 4
f 343/522/599 344/496/598 345/524/608 386/557/653
s 3
f 345/524/605 346/508/588 347/526/587 386/557/654
s 5
f 353/530/618 354/509/615 349/528/614 387/559/655
s 2
f 349/527/611 350/515/594 351/529/593 387/559/656
s 3
f 351/529/597 352/497/596 353/530/621 387/559/657
s 4
f 359/534/610 360/499/609 355/532/626 388/560/658
s 5
f 355/531/623 356/510/620 357/533/619 388/560/659
s 3
f 357/533/622 358/498/607 359/534/606 388/560/660
s 6
f 365/539/635 366/511/632 361/536/631 389/562/661
s 2
f 361/535/629 362/516/613 363/538/612 389/561/662
s 5
f 363/537/617 364/501/616 365/539/638 389/562/663
s 4
f 371/543/628 372/503/627 367/541/643 390/564/664
s 6
f 367/540/640 368/512/637 369/542/636 390/563/665
s 5
f 369/542/639 370/502/625 371/544/624 390/563/666
s 1
f 377/549/645 378/513/580 373/546/579 391/566/667
s 2
f 373/545/584 374/500/583 375/548/630 391/565/668
s 6
f 375/547/634 376/506/633 377/549/647 391/566/669
s 4
f 383/553/644 384/504/601 379/551/600 392/568/670
s 1
f 379/550/604 380/505/603 381/552/646 392/567/671
s 6
f 381/552/648 382/507/642 383/554/641 392/567/672
g default
v 1.611706 0.029250 -2.938951
v 1.601043 0.031450 -2.964709
v 1.611806 0.005776 -2.969746
v 1.636995 -0.004922 -2.971232
v 1.637413 0.004053 -2.943708
v 1.637589 0.027109 -2.928347
v 1.831474 0.029250 -2.938951
v 1.805590 0.027109 -2.928347
v 1.805891 0.004052 -2.943645
v 1.806405 -0.004922 -2.971012
v 1.831441 0.005786 -2.969612
v 1.842137 0.031450 -2.964709
v 1.575928 1.922835 -2.488825
v 1.601758 1.921530 -2.477629
v 1.601252 1.949555 -2.483701
v 1.601068 1.962067 -2.509261
v 1.575479 1.950844 -2.510761
v 1.565251 1.924210 -2.515911
v 1.576031 1.925528 -2.887185
v 1.565233 1.925195 -2.860737
v 1.575675 1.951226 -2.855943
v 1.601704 1.962067 -2.854194
v 1.601772 1.951822 -2.882774
v 1.602106 1.925816 -2.898139
v 1.867251 1.922835 -2.488825
v 1.877928 1.924210 -2.515911
v 1.867622 1.950831 -2.510942
v 1.841830 1.962067 -2.509579
v 1.841704 1.949554 -2.483800
v 1.841421 1.921530 -2.477629
v 1.867148 1.925528 -2.887185
v 1.841073 1.925816 -2.898139
v 1.843184 1.951862 -2.883726
v 1.844807 1.962067 -2.857525
v 1.868522 1.951123 -2.857864
v 1.877947 1.925195 -2.860737
v 1.611716 0.033704 -3.240631
v 1.637574 0.034817 -3.251648
v 1.637796 0.007203 -3.244555
v 1.637685 -0.004922 -3.218906
v 1.612002 0.006065 -3.217896
v 1.601023 0.032511 -3.213991
v 1.831463 0.033704 -3.240631
v 1.842157 0.032511 -3.213991
v 1.831097 0.006077 -3.217701
v 1.805201 -0.004922 -3.218579
v 1.805220 0.007203 -3.244454
v 1.805606 0.034817 -3.251648
v 1.616558 0.009294 -2.947751
v 1.826676 0.009299 -2.947696
v 1.580289 1.944987 -2.489485
v 1.580516 1.946823 -2.878611
v 1.862800 1.944981 -2.489563
v 1.863426 1.946786 -2.879398
v 1.616729 0.011732 -3.239065
v 1.826385 0.011737 -3.238981
vt 0.175657 0.002311
vt 0.247066 0.583629
vt 0.353072 0.583731
vt 0.203296 0.122424
vt 0.298670 0.122424
vt 0.205694 0.142061
vt 0.095216 0.002379
vt 0.235354 0.283110
vt 0.303074 0.245396
vt 0.339402 0.126425
vt 0.560084 0.160446
vt 0.815421 0.003172
vt 0.307103 0.414542
vt 0.254259 0.454602
vt 0.388609 0.489650
vt 0.259191 0.002036
vt 0.302993 0.002036
vt 0.237577 0.298518
vt 0.304145 0.260479
vt 0.461687 0.003082
vt 0.074132 0.122657
vt 0.176009 0.122594
vt 0.301534 0.142193
vt 0.245894 0.466724
vt 0.187500 0.001402
vt 0.249299 0.001402
vt 0.225000 0.588354
vt 0.179412 -0.000000
vt 0.256445 -0.000000
vt 0.240469 0.600000
vt 0.312500 0.001400
vt 0.415500 0.001400
vt 0.359577 0.600000
vt 0.306074 -0.000000
vt 0.452140 -0.000000
vt 0.370163 0.582586
vt 0.188209 0.123582
vt 0.187500 0.123582
vt 0.203644 0.131458
vt 0.180286 0.125000
vt 0.189664 0.135099
vt 0.062747 0.123517
vt 0.225000 0.301780
vt 0.222739 0.289450
vt 0.070036 0.125000
vt 0.235829 0.291536
vt 0.313682 0.123581
vt 0.312500 0.123581
vt 0.312500 0.132230
vt 0.328166 0.127410
vt 0.300400 0.131488
vt 0.313713 0.252911
vt 0.586729 0.164726
vt 0.303948 0.252803
vt 0.567760 0.164271
vt 0.312500 0.242813
vt 0.225000 0.448281
vt 0.083095 0.001433
vt 0.234178 0.442133
vt 0.245105 0.455245
vt 0.091294 -0.000000
vt 0.225000 0.461463
vt 0.871654 0.001912
vt 0.415472 0.497132
vt 0.317298 0.392274
vt 0.839812 -0.000000
vt 0.396480 0.494734
vt 0.303284 0.382899
vt 0.187500 0.000000
vt 0.225000 0.600000
vt 0.250000 0.000000
vt 0.312500 0.000000
vt 0.375000 0.600000
vt 0.416667 0.000000
vt 0.187500 0.125000
vt 0.187500 0.125000
vt 0.062500 0.125000
vt 0.225000 0.300000
vt 0.312500 0.125000
vt 0.312500 0.125000
vt 0.312500 0.250000
vt 0.583333 0.166667
vt 0.225000 0.450000
vt 0.225000 0.450000
vt 0.083333 0.000000
vt 0.875000 0.000000
vt 0.312500 0.375000
vt 0.416667 0.500000
vn -0.999229 -0.028784 0.026714
vn -0.924522 -0.107010 0.365797
vn -0.925188 -0.099974 0.366104
vn -0.998949 -0.020670 0.040916
vn -0.390875 -0.222747 0.893085
vn -0.047137 -0.235806 0.970656
vn -0.047235 -0.225029 0.973206
vn -0.391150 -0.216231 0.894565
vn -0.055623 -0.997980 0.030699
vn -0.388049 -0.921409 0.020576
vn -0.390032 -0.920353 -0.028722
vn -0.053250 -0.997677 -0.042485
vn -0.922331 -0.386017 0.017197
vn -0.999067 -0.016769 -0.039794
vn -0.925544 -0.377346 -0.031267
vn -0.036850 -0.549611 0.834607
vn 0.036725 -0.549327 0.834800
vn 0.047132 -0.235810 0.970656
vn -0.034986 -0.950939 0.307394
vn 0.055715 -0.997975 0.030691
vn 0.034343 -0.950881 0.307645
vn 0.390879 -0.222713 0.893091
vn 0.391146 -0.216177 0.894579
vn 0.047246 -0.225052 0.973201
vn 0.924523 -0.106979 0.365804
vn 0.999229 -0.028791 0.026710
vn 0.998941 -0.021006 0.040947
vn 0.925193 -0.099911 0.366109
vn 0.922292 -0.386117 0.017047
vn 0.925269 -0.378017 -0.031310
vn 0.999067 -0.016757 -0.039801
vn 0.388233 -0.921345 0.019973
vn 0.053290 -0.997678 -0.042425
vn 0.389697 -0.920473 -0.029413
vn -0.039177 0.998704 0.032476
vn -0.026232 0.899908 0.435289
vn 0.027075 0.900014 0.435020
vn 0.039425 0.998691 0.032591
vn -0.027076 0.209481 0.977438
vn 0.027194 0.209906 0.977343
vn -0.933393 0.358073 0.023712
vn -0.930484 0.366054 -0.014294
vn -0.999598 -0.008651 -0.026993
vn -0.392187 0.919664 0.020190
vn -0.041161 0.998816 -0.025938
vn -0.389215 0.920958 -0.018656
vn -0.926174 0.055039 -0.373058
vn -0.926514 0.048055 -0.373179
vn -0.387523 0.165901 -0.906809
vn -0.049795 0.188234 -0.980861
vn -0.045697 0.177868 -0.982993
vn -0.387933 0.158712 -0.907920
vn -0.027288 0.494752 -0.868606
vn 0.025770 0.491634 -0.870420
vn 0.049698 0.188355 -0.980843
vn -0.028613 0.937773 -0.346068
vn 0.041406 0.998805 -0.025963
vn 0.020674 0.936923 -0.348924
vn 0.407017 0.913121 0.023398
vn 0.406837 0.913377 -0.015073
vn 0.938166 0.345278 0.025045
vn 0.999599 -0.008703 -0.026951
vn 0.936395 0.350658 -0.014275
vn 0.387618 0.165309 -0.906877
vn 0.387930 0.158661 -0.907930
vn 0.045706 0.177875 -0.982991
vn 0.926173 0.054588 -0.373127
vn 0.926518 0.047998 -0.373175
vn -0.035584 -0.906006 -0.421766
vn 0.036837 -0.906169 -0.421308
vn -0.035761 -0.246116 -0.968581
vn 0.036051 -0.246623 -0.968441
vn -0.330215 -0.489310 0.807177
vn -0.873965 -0.387880 0.292804
vn -0.328621 -0.907066 0.263133
vn 0.874906 -0.385042 0.293738
vn 0.330927 -0.486600 0.808522
vn 0.330720 -0.905782 0.264922
vn -0.912757 0.242694 0.328593
vn -0.346475 0.150854 0.925850
vn -0.349873 0.858837 0.374151
vn -0.316904 0.450270 -0.834763
vn -0.878151 0.364492 -0.309832
vn -0.317349 0.903325 -0.288607
vn 0.345325 0.156145 0.925402
vn 0.911579 0.247363 0.328382
vn 0.346853 0.861118 0.371710
vn 0.890757 0.320884 -0.321847
vn 0.328216 0.410440 -0.850772
vn 0.349991 0.881228 -0.317716
vn -0.900698 -0.281520 -0.330891
vn -0.338057 -0.196418 -0.920401
vn -0.338579 -0.867418 -0.364624
vn 0.337174 -0.201198 -0.919692
vn 0.899609 -0.285910 -0.330088
vn 0.335876 -0.869784 -0.361473
s 1
g group2 pCube5 group6 leg4
usemtl initialShadingGroup
f 394/569/673 393/593/674 405/606/675 410/590/676
s 2
f 393/594/677 398/584/678 406/572/679 405/605/680
s 3
f 396/570/681 395/595/682 433/630/683 432/592/684
s 1
f 395/596/685 394/569/673 434/575/686 433/629/687
s 2
f 398/584/678 397/597/688 401/602/689 400/585/690
s 3
f 397/598/691 396/570/681 402/571/692 401/601/693
s 2
f 400/585/690 399/599/694 417/616/695 422/573/696
s 4
f 399/600/697 404/588/698 418/578/699 417/615/700
f 404/588/698 403/603/701 437/634/702 436/580/703
s 3
f 403/604/704 402/571/692 438/581/705 437/633/706
s 5
f 408/574/707 407/607/708 421/619/709 420/591/710
s 2
f 407/607/711 406/572/679 422/573/696 421/619/712
s 1
f 410/590/676 409/608/713 413/613/714 412/589/715
s 5
f 409/609/716 408/574/707 414/576/717 413/612/718
s 1
f 412/589/715 411/610/719 429/626/720 434/575/686
s 6
f 411/611/721 416/586/722 430/582/723 429/625/724
f 416/586/722 415/614/725 425/622/726 424/587/727
s 5
f 415/614/728 414/576/717 426/577/729 425/622/730
f 420/591/710 419/617/731 427/624/732 426/577/729
s 4
f 419/618/733 418/578/699 428/579/734 427/623/735
s 6
f 424/587/727 423/620/736 435/632/737 440/583/738
s 4
f 423/621/739 428/579/734 436/580/703 435/631/740
s 3
f 432/592/684 431/627/741 439/636/742 438/581/705
s 6
f 431/628/743 430/582/723 440/583/738 439/635/744
s 2
f 406/572/679 398/584/678 400/585/690 422/573/696
s 6
f 430/582/723 416/586/722 424/587/727 440/583/738
s 4
f 418/578/699 404/588/698 436/580/703 428/579/734
s 1
f 412/589/715 434/575/686 394/569/673 410/590/676
s 5
f 426/577/729 414/576/717 408/574/707 420/591/710
s 3
f 438/581/705 402/571/692 396/570/681 432/592/684
s 2
f 397/597/688 398/584/678 393/594/677 441/639/745
s 1
f 393/593/674 394/569/673 395/596/685 441/637/746
s 3
f 395/595/682 396/570/681 397/598/691 441/638/747
s 4
f 403/603/701 404/588/698 399/600/697 442/642/748
s 2
f 399/599/694 400/585/690 401/602/689 442/640/749
s 3
f 401/601/693 402/571/692 403/604/704 442/641/750
s 1
f 409/608/713 410/590/676 405/606/675 443/644/751
s 2
f 405/605/680 406/572/679 407/607/711 443/643/752
s 5
f 407/607/708 408/574/707 409/609/716 443/643/753
s 6
f 415/614/725 416/586/722 411/611/721 444/646/754
s 1
f 411/610/719 412/589/715 413/613/714 444/645/755
s 5
f 413/612/718 414/576/717 415/614/728 444/646/756
s 2
f 421/619/712 422/573/696 417/616/695 445/648/757
s 4
f 417/615/700 418/578/699 419/618/733 445/647/758
s 5
f 419/617/731 420/591/710 421/619/709 445/648/759
s 4
f 427/623/735 428/579/734 423/621/739 446/650/760
s 6
f 423/620/736 424/587/727 425/622/726 446/649/761
s 5
f 425/622/730 426/577/729 427/624/732 446/649/762
s 1
f 433/629/687 434/575/686 429/626/720 447/653/763
s 6
f 429/625/724 430/582/723 431/628/743 447/651/764
s 3
f 431/627/741 432/592/684 433/630/683 447/652/765
s 6
f 439/635/744 440/583/738 435/632/737 448/656/766
s 4
f 435/631/740 436/580/703 437/634/702 448/654/767
s 3
f 437/633/706 438/581/705 439/636/742 448/655/768
g default
v -2.297759 2.144917 3.741360
v -2.292051 2.166222 3.735652
v -2.276454 2.181818 3.720056
v -2.255150 2.187527 3.698751
v 2.255150 2.187527 3.698751
v 2.276454 2.181818 3.720056
v 2.292051 2.166222 3.735652
v 2.297759 2.144917 3.741360
v -2.255150 2.187527 -3.698751
v -2.276454 2.181818 -3.720056
v -2.292051 2.166222 -3.735652
v -2.297759 2.144917 -3.741360
v 2.255150 2.187527 -3.698751
v 2.276454 2.181818 -3.720056
v 2.292051 2.166222 -3.735652
v 2.297759 2.144917 -3.741360
v -2.070094 1.903435 3.464479
v -2.173655 1.921672 3.563377
v -2.244372 1.974451 3.654431
v 2.244372 1.974451 3.654431
v 2.173655 1.921672 3.563377
v 2.070094 1.903435 3.464479
v -2.244372 1.974451 -3.654431
v -2.173655 1.921672 -3.563377
v -2.070094 1.903435 -3.464479
v 2.070094 1.903435 -3.464479
v 2.173655 1.921672 -3.563377
v 2.244372 1.974451 -3.654431
v -2.297759 2.095194 3.741360
v -2.274117 2.014025 3.702864
v 2.297759 2.095194 3.741360
v 2.274117 2.014025 3.702864
v -2.297759 2.095194 -3.741360
v -2.274117 2.014025 -3.702864
v 2.297759 2.095194 -3.741360
v 2.274117 2.014025 -3.702864
vt 0.377318 0.251424
vt 0.622682 0.251424
vt 0.622682 0.498576
vt 0.875000 0.212504
vt 0.375000 0.537496
vt 0.377318 0.498576
vt 0.375000 0.250000
vt 0.376520 0.250992
vt 0.623480 0.250992
vt 0.625000 0.250000
vt 0.376520 0.499008
vt 0.375000 0.500000
vt 0.125000 0.250000
vt 0.623480 0.499008
vt 0.625000 0.500000
vt 0.875000 0.250000
vt 0.381898 0.996390
vt 0.618102 0.753610
vt 0.625000 0.687506
vt 0.381898 0.753610
vt 0.125000 0.062494
vt 0.618102 0.996390
vt 0.375000 0.000000
vt 0.375000 1.000000
vt 0.625000 1.000000
vt 0.625000 0.000000
vt 0.375000 0.750000
vt 0.125000 0.000000
vt 0.875000 0.000000
vt 0.625000 0.750000
vt 0.125000 0.168747
vt 0.125977 0.125000
vt 0.874027 0.125341
vt 0.375000 0.652681
vt 0.625000 0.581253
vt 0.625000 0.168747
vt 0.375000 0.212504
vt 0.625000 0.537496
vt 0.375000 0.581253
vt 0.875000 0.168747
vt 0.625000 0.212504
vt 0.375000 0.168747
vt 0.125000 0.212504
vt 0.625000 0.062494
vt 0.375000 0.097319
vt 0.625000 0.652681
vt 0.375000 0.687506
vt 0.875000 0.062494
vt 0.875000 0.097319
vt 0.625000 0.097319
vt 0.375000 0.062494
vt 0.125000 0.097319
vn -0.001869 0.999998 0.001141
vn -0.411032 0.876166 0.251764
vn 0.411032 0.876166 0.251764
vn 0.001869 0.999998 0.001141
vn 0.000000 0.425476 0.904970
vn 0.000000 0.425476 0.904970
vn 0.000000 0.070599 0.997505
vn 0.000000 0.070599 0.997505
vn 0.001869 0.999998 -0.001141
vn -0.001869 0.999998 -0.001141
vn 0.904882 0.425663 0.000000
vn 0.997503 0.070621 0.000000
vn 0.997503 0.070621 0.000000
vn 0.904882 0.425663 0.000000
vn 0.411032 0.876166 -0.251764
vn -0.997503 0.070621 0.000000
vn -0.904882 0.425663 0.000000
vn -0.904882 0.425663 0.000000
vn -0.997503 0.070621 0.000000
vn -0.411032 0.876166 -0.251764
vn 0.000000 0.070599 -0.997505
vn 0.000000 0.425476 -0.904970
vn 0.000000 0.425476 -0.904970
vn 0.000000 0.070599 -0.997505
vn 0.000000 -0.817284 0.576236
vn -0.313794 -0.933129 0.175511
vn 0.313793 -0.933129 0.175511
vn 0.000000 -0.817284 0.576236
vn -0.006242 -0.999973 0.003843
vn 0.006242 -0.999973 0.003843
vn -0.006242 -0.999973 -0.003843
vn -0.313794 -0.933129 -0.175511
vn 0.313793 -0.933129 -0.175511
vn 0.006242 -0.999973 -0.003843
vn 0.000000 -0.817284 -0.576236
vn 0.000000 -0.817284 -0.576236
vn -0.732880 -0.680358 0.000000
vn -0.732880 -0.680358 0.000000
vn 0.732879 -0.680359 0.000000
vn 0.732879 -0.680359 0.000000
vn 0.000000 -0.263485 0.964664
vn 0.000000 -0.542582 0.840003
vn 0.000000 -0.542582 0.840003
vn 0.000000 -0.263485 0.964664
vn -0.939247 -0.343241 0.000000
vn -0.987777 -0.155872 0.000000
vn -0.987777 -0.155872 0.000000
vn -0.939247 -0.343241 0.000000
vn 0.987777 -0.155872 0.000000
vn 0.939247 -0.343241 0.000000
vn 0.939247 -0.343241 0.000000
vn 0.987777 -0.155872 0.000000
vn 0.000000 -0.542582 -0.840003
vn 0.000000 -0.263485 -0.964664
vn 0.000000 -0.263485 -0.964664
vn 0.000000 -0.542582 -0.840003
s 1
g table_top
usemtl initialShadingGroup
f 452/657/769 451/664/770 454/665/771 453/658/772
f 451/664/770 450/663/773 455/666/774 454/665/771
f 450/663/773 449/693/775 456/697/776 455/666/774
f 452/657/769 453/658/772 461/659/777 457/662/778
f 455/666/779 456/697/780 464/660/781 463/672/782
f 453/658/772 454/665/771 462/670/783 461/659/777
f 454/665/771 455/666/779 463/671/782 462/670/783
f 449/693/784 450/663/785 459/669/786 460/699/787
f 450/663/785 451/664/770 458/667/788 459/668/786
f 451/664/770 452/657/769 457/662/778 458/667/788
f 460/661/789 459/668/790 463/671/791 464/694/792
f 459/668/790 458/667/788 462/670/783 463/671/791
f 458/667/788 457/662/778 461/659/777 462/670/783
f 467/707/793 466/679/794 469/682/795 468/700/796
f 466/680/794 465/673/797 470/678/798 469/681/795
f 473/676/799 472/683/800 475/686/801 474/674/802
f 472/683/800 471/703/803 476/675/804 475/686/801
f 473/676/799 474/674/802 470/678/798 465/673/797
f 465/673/797 466/680/794 472/683/800 473/676/799
f 466/679/794 467/707/805 471/677/806 472/684/800
f 468/700/807 469/682/795 475/685/801 476/704/808
f 469/681/795 470/678/798 474/674/802 475/686/801
f 477/698/809 478/701/810 480/706/811 479/692/812
f 478/701/813 477/698/814 481/687/815 482/688/816
f 479/692/817 480/706/818 484/689/819 483/696/820
f 482/690/821 481/695/822 483/691/823 484/702/824
f 477/698/809 479/692/812 456/697/776 449/693/775
f 460/661/789 464/694/792 483/691/823 481/695/822
f 479/692/817 483/696/820 464/660/781 456/697/780
f 481/687/815 477/698/814 449/693/784 460/699/787
f 467/707/793 468/700/796 480/706/811 478/701/810
f 482/690/821 484/702/824 476/675/804 471/703/803
f 468/700/807 476/704/808 484/705/819 480/706/818
f 471/677/806 467/707/805 478/701/813 482/708/816
g default
v -1.781606 1.564824 2.640534
v -1.781606 1.557288 2.622340
v -1.799801 1.564824 2.622340
v -1.807337 1.583018 2.622340
v -1.799801 1.583018 2.640534
v -1.781606 1.583018 2.648070
v -1.781606 1.564824 -2.640534
v -1.781606 1.583018 -2.648070
v -1.799801 1.583018 -2.640534
v -1.807337 1.583018 -2.622340
v -1.799801 1.564824 -2.622340
v -1.781606 1.557288 -2.622340
v -1.781606 1.945678 2.640534
v -1.781606 1.927484 2.648070
v -1.799801 1.927484 2.640534
v -1.807337 1.927484 2.622340
v -1.799801 1.945678 2.622340
v -1.781606 1.953215 2.622340
v -1.781606 1.945678 -2.640534
v -1.781606 1.953215 -2.622340
v -1.799801 1.945678 -2.622340
v -1.807337 1.927484 -2.622340
v -1.799801 1.927484 -2.640534
v -1.781606 1.927484 -2.648070
v -1.643320 1.927484 2.640534
v -1.661514 1.927484 2.648070
v -1.661514 1.945678 2.640534
v -1.661514 1.953215 2.622340
v -1.643320 1.945678 2.622340
v -1.635784 1.927484 2.622340
v -1.643320 1.927484 -2.640534
v -1.635784 1.927484 -2.622340
v -1.643320 1.945678 -2.622340
v -1.661514 1.953215 -2.622340
v -1.661514 1.945678 -2.640534
v -1.661514 1.927484 -2.648070
v -1.661514 1.564824 2.640534
v -1.661514 1.583018 2.648070
v -1.643320 1.583018 2.640534
v -1.635784 1.583018 2.622340
v -1.643320 1.564824 2.622340
v -1.661514 1.557288 2.622340
v -1.661514 1.564824 -2.640534
v -1.661514 1.557288 -2.622340
v -1.643320 1.564824 -2.622340
v -1.635784 1.583018 -2.622340
v -1.643320 1.583018 -2.640534
v -1.661514 1.583018 -2.648070
v -1.796457 1.568168 2.637190
v -1.796457 1.568168 -2.637190
v -1.796457 1.942335 2.637190
v -1.796457 1.942335 -2.637190
v -1.646664 1.942335 2.637190
v -1.646664 1.942335 -2.637190
v -1.646664 1.568168 2.637190
v -1.646664 1.568168 -2.637190
vt 0.376215 0.962504
vt 0.376215 0.016247
vt 0.623785 0.962504
vt 0.662496 0.016247
vt 0.376215 0.233753
vt 0.623785 0.233753
vt 0.662496 0.233753
vt 0.162496 0.016247
vt 0.376215 0.462504
vt 0.623785 0.462504
vt 0.837504 0.233753
vt 0.837504 0.016247
vt 0.623785 0.787496
vt 0.376215 0.733753
vt 0.623785 0.733753
vt 0.623785 0.016247
vt 0.376215 0.287496
vt 0.623785 0.287496
vt 0.376215 0.516247
vt 0.623785 0.516247
vt 0.376215 0.787496
vt 0.337504 0.016247
vt 0.337504 0.233753
vt 0.162496 0.233753
vt 0.375000 0.975121
vt 0.350121 -0.000000
vt 0.380185 -0.000000
vt 0.380185 1.000000
vt 0.366663 0.015437
vt 0.649879 -0.000000
vt 0.625000 0.975121
vt 0.633337 0.015437
vt 0.619815 1.000000
vt 0.619815 -0.000000
vt 0.350121 0.250000
vt 0.375000 0.274879
vt 0.366663 0.234563
vt 0.377041 0.251077
vt 0.625000 0.274879
vt 0.649879 0.250000
vt 0.622959 0.251077
vt 0.633337 0.234563
vt 0.125000 0.238928
vt 0.375000 0.511072
vt 0.375000 0.475120
vt 0.149880 0.250000
vt 0.377041 0.498923
vt 0.625000 0.511072
vt 0.875000 0.238928
vt 0.622959 0.498923
vt 0.850120 0.250000
vt 0.625000 0.475120
vt 0.149880 -0.000000
vt 0.375000 0.774880
vt 0.375000 0.738928
vt 0.125000 0.011072
vt 0.377041 0.751077
vt 0.625000 0.774880
vt 0.850120 -0.000000
vt 0.622959 0.751077
vt 0.875000 0.011072
vt 0.625000 0.738928
vt 0.375000 1.000000
vt 0.375000 0.000000
vt 0.625000 0.000000
vt 0.625000 1.000000
vt 0.375000 0.250000
vt 0.625000 0.250000
vt 0.125000 0.250000
vt 0.375000 0.500000
vt 0.625000 0.500000
vt 0.875000 0.250000
vt 0.125000 0.000000
vt 0.375000 0.750000
vt 0.625000 0.750000
vt 0.875000 0.000000
vn -0.054357 -0.998521 0.001363
vn -0.039271 -0.924971 0.378004
vn 0.039271 -0.924971 0.378003
vn 0.054357 -0.998521 0.001363
vn -0.035225 -0.378502 0.924930
vn -0.053712 -0.020010 0.998356
vn 0.053712 -0.020010 0.998356
vn 0.035225 -0.378503 0.924930
vn -0.999784 -0.020733 0.001387
vn -0.923934 -0.382550 0.001168
vn -0.923934 -0.382550 -0.001168
vn -0.999784 -0.020733 -0.001387
vn -0.382646 -0.923895 0.000365
vn -0.054357 -0.998521 -0.001363
vn -0.382646 -0.923895 -0.000365
vn -0.381559 -0.009851 0.924292
vn -0.381559 0.009851 0.924292
vn -0.053712 0.020010 0.998356
vn -0.924562 -0.018017 0.380605
vn -0.999784 0.020733 0.001387
vn -0.924562 0.018017 0.380605
vn -0.053712 -0.020010 -0.998356
vn -0.035225 -0.378502 -0.924930
vn 0.035225 -0.378502 -0.924930
vn 0.053712 -0.020010 -0.998356
vn -0.039271 -0.924971 -0.378003
vn 0.054357 -0.998521 -0.001363
vn 0.039271 -0.924971 -0.378004
vn -0.924562 -0.018017 -0.380605
vn -0.924562 0.018017 -0.380605
vn -0.999784 0.020733 -0.001387
vn -0.381559 -0.009851 -0.924292
vn -0.053712 0.020010 -0.998356
vn -0.381559 0.009851 -0.924292
vn -0.035225 0.378504 0.924929
vn 0.035225 0.378504 0.924929
vn 0.053712 0.020010 0.998356
vn -0.039270 0.924973 0.377999
vn -0.054356 0.998521 0.001363
vn 0.054356 0.998521 0.001363
vn 0.039270 0.924973 0.377999
vn -0.382642 0.923897 0.000365
vn -0.382642 0.923897 -0.000365
vn -0.054356 0.998521 -0.001363
vn -0.923933 0.382552 0.001168
vn -0.923933 0.382552 -0.001168
vn -0.039270 0.924973 -0.377999
vn 0.039270 0.924973 -0.377999
vn 0.054356 0.998521 -0.001363
vn -0.035225 0.378504 -0.924929
vn 0.053712 0.020010 -0.998356
vn 0.035225 0.378504 -0.924929
vn 0.381559 0.009852 0.924292
vn 0.381559 -0.009852 0.924292
vn 0.924559 0.018017 0.380612
vn 0.999784 0.020733 0.001387
vn 0.999784 -0.020733 0.001387
vn 0.924559 -0.018017 0.380612
vn 0.923930 0.382559 0.001168
vn 0.923930 0.382559 -0.001168
vn 0.999784 0.020733 -0.001387
vn 0.382642 0.923897 0.000365
vn 0.382642 0.923897 -0.000365
vn 0.924559 0.018017 -0.380612
vn 0.924559 -0.018017 -0.380612
vn 0.999784 -0.020733 -0.001387
vn 0.381559 0.009852 -0.924292
vn 0.381559 -0.009852 -0.924292
vn 0.382646 -0.923895 0.000365
vn 0.382646 -0.923895 -0.000365
vn 0.923931 -0.382557 0.001168
vn 0.923931 -0.382557 -0.001168
vn -0.325271 -0.325274 0.887916
vn -0.325273 -0.887917 0.325271
vn -0.887918 -0.325271 0.325269
vn -0.325272 -0.887917 -0.325270
vn -0.325271 -0.325274 -0.887916
vn -0.887918 -0.325271 -0.325269
vn -0.325267 0.887921 0.325265
vn -0.325270 0.325275 0.887916
vn -0.887918 0.325272 0.325268
vn -0.325270 0.325275 -0.887916
vn -0.325268 0.887920 -0.325266
vn -0.887918 0.325272 -0.325268
vn 0.887918 0.325272 0.325268
vn 0.325268 0.325278 0.887916
vn 0.325268 0.887920 0.325266
vn 0.325268 0.325283 -0.887914
vn 0.887918 0.325272 -0.325268
vn 0.325267 0.887921 -0.325265
vn 0.325272 -0.887917 0.325270
vn 0.325269 -0.325282 0.887914
vn 0.887918 -0.325271 0.325269
vn 0.325269 -0.325278 -0.887916
vn 0.325273 -0.887917 -0.325271
vn 0.887918 -0.325271 -0.325269
s 1
g pCube7 long_plank2_
usemtl initialShadingGroup
f 486/709/825 485/733/826 521/762/827 526/729/828
s 2
f 485/734/829 490/730/830 522/716/831 521/761/832
s 3
f 488/710/833 487/735/834 495/742/835 494/724/836
s 1
f 487/736/837 486/709/825 496/711/838 495/741/839
s 2
f 490/730/830 489/737/840 499/745/841 498/731/842
s 3
f 489/737/843 488/710/833 500/713/844 499/745/845
s 4
f 492/712/846 491/738/847 527/767/848 532/720/849
s 1
f 491/739/850 496/711/838 528/721/851 527/766/852
s 3
f 494/724/836 493/740/853 507/750/854 506/714/855
s 4
f 493/740/856 492/712/846 508/715/857 507/750/858
s 2
f 498/731/842 497/743/859 511/754/860 510/732/861
s 5
f 497/744/862 502/725/863 512/717/864 511/753/865
f 502/725/863 501/746/866 505/749/867 504/726/868
s 3
f 501/746/869 500/713/844 506/714/855 505/749/870
s 5
f 504/726/868 503/747/871 519/760/872 518/718/873
s 4
f 503/748/874 508/715/857 520/719/875 519/759/876
s 2
f 510/732/861 509/751/877 523/764/878 522/716/831
s 6
f 509/752/879 514/727/880 524/722/881 523/763/882
f 514/727/880 513/755/883 517/758/884 516/728/885
s 5
f 513/755/886 512/717/864 518/718/873 517/758/887
s 6
f 516/728/885 515/756/888 531/770/889 530/723/890
s 4
f 515/757/891 520/719/875 532/720/849 531/769/892
s 1
f 526/729/828 525/765/893 529/768/894 528/721/851
s 6
f 525/765/895 524/722/881 530/723/890 529/768/896
s 3
f 488/710/833 494/724/836 506/714/855 500/713/844
s 5
f 502/725/863 504/726/868 518/718/873 512/717/864
s 6
f 514/727/880 516/728/885 530/723/890 524/722/881
s 1
f 526/729/828 528/721/851 496/711/838 486/709/825
s 4
f 492/712/846 532/720/849 520/719/875 508/715/857
s 2
f 522/716/831 490/730/830 498/731/842 510/732/861
f 489/737/840 490/730/830 485/734/829 533/772/897
s 1
f 485/733/826 486/709/825 487/736/837 533/771/898
s 3
f 487/735/834 488/710/833 489/737/843 533/772/899
s 1
f 495/741/839 496/711/838 491/739/850 534/774/900
s 4
f 491/738/847 492/712/846 493/740/856 534/773/901
s 3
f 493/740/853 494/724/836 495/742/835 534/773/902
s 5
f 501/746/866 502/725/863 497/744/862 535/775/903
s 2
f 497/743/859 498/731/842 499/745/841 535/775/904
s 3
f 499/745/845 500/713/844 501/746/869 535/775/905
s 4
f 507/750/858 508/715/857 503/748/874 536/776/906
s 5
f 503/747/871 504/726/868 505/749/867 536/776/907
s 3
f 505/749/870 506/714/855 507/750/854 536/776/908
s 6
f 513/755/883 514/727/880 509/752/879 537/778/909
s 2
f 509/751/877 510/732/861 511/754/860 537/777/910
s 5
f 511/753/865 512/717/864 513/755/886 537/778/911
s 4
f 519/759/876 520/719/875 515/757/891 538/780/912
s 6
f 515/756/888 516/728/885 517/758/884 538/779/913
s 5
f 517/758/887 518/718/873 519/760/872 538/779/914
s 1
f 525/765/893 526/729/828 521/762/827 539/782/915
s 2
f 521/761/832 522/716/831 523/764/878 539/781/916
s 6
f 523/763/882 524/722/881 525/765/895 539/782/917
s 4
f 531/769/892 532/720/849 527/767/848 540/784/918
s 1
f 527/766/852 528/721/851 529/768/894 540/783/919
s 6
f 529/768/896 530/723/890 531/770/889 540/783/920
