# This file uses centimeters as units for non-parametric coordinates.

mtllib room.mtl
g default
v 6.694422 10.096227 9.386866
v 6.694422 10.983997 9.386866
v -11.856181 10.096227 9.386866
v -11.856181 10.983997 9.386866
v -11.856181 10.096227 -11.017472
v -11.856181 10.983997 -11.017472
v 6.694422 10.096227 -11.017472
v 6.694422 10.983997 -11.017472
vt 0.375000 0.000000
vt 0.625000 0.000000
vt 0.375000 0.250000
vt 0.625000 0.250000
vt 0.375000 0.500000
vt 0.625000 0.500000
vt 0.375000 0.750000
vt 0.625000 0.750000
vt 0.375000 1.000000
vt 0.625000 1.000000
vt 0.875000 0.000000
vt 0.875000 0.250000
vt 0.125000 0.000000
vt 0.125000 0.250000
vn 0.000000 0.000000 1.000000
vn 0.000000 0.000000 1.000000
vn 0.000000 0.000000 1.000000
vn 0.000000 0.000000 1.000000
vn -1.000000 -0.000000 0.000000
vn -1.000000 -0.000000 0.000000
vn -1.000000 -0.000000 0.000000
vn -1.000000 -0.000000 0.000000
vn -0.000000 0.000000 -1.000000
vn -0.000000 0.000000 -1.000000
vn -0.000000 0.000000 -1.000000
vn -0.000000 0.000000 -1.000000
vn 1.000000 0.000000 0.000000
vn 1.000000 0.000000 0.000000
vn 1.000000 0.000000 0.000000
vn 1.000000 0.000000 0.000000
vn -0.000000 1.000000 0.000000
vn -0.000000 1.000000 0.000000
vn -0.000000 1.000000 0.000000
vn -0.000000 1.000000 0.000000
vn 0.000000 -1.000000 0.000000
vn 0.000000 -1.000000 0.000000
vn 0.000000 -1.000000 0.000000
vn 0.000000 -1.000000 0.000000
s off
g pCube11 WALLS
usemtl initialShadingGroup
f 1/1/1 2/2/2 4/4/3 3/3/4
f 3/3/5 4/4/6 6/6/7 5/5/8
f 5/5/9 6/6/10 8/8/11 7/7/12
f 7/7/13 8/8/14 2/10/15 1/9/16
f 2/2/17 8/11/18 6/12/19 4/4/20
f 7/13/21 1/1/22 3/3/23 5/14/24
g default
v -11.676648 -0.066656 8.460053
v -10.788879 -0.066656 8.460053
v -11.676648 10.933195 8.460053
v -10.788879 10.933195 8.460053
v -11.676648 10.933195 -10.090659
v -10.788879 10.933195 -10.090659
v -11.676648 -0.066656 -10.090659
v -10.788879 -0.066656 -10.090659
vt 0.375000 0.000000
vt 0.625000 0.000000
vt 0.375000 0.250000
vt 0.625000 0.250000
vt 0.375000 0.500000
vt 0.625000 0.500000
vt 0.375000 0.750000
vt 0.625000 0.750000
vt 0.375000 1.000000
vt 0.625000 1.000000
vt 0.875000 0.000000
vt 0.875000 0.250000
vt 0.125000 0.000000
vt 0.125000 0.250000
vn 0.000000 0.000000 1.000000
vn 0.000000 0.000000 1.000000
vn 0.000000 0.000000 1.000000
vn 0.000000 0.000000 1.000000
vn 0.000000 1.000000 0.000000
vn 0.000000 1.000000 0.000000
vn 0.000000 1.000000 0.000000
vn 0.000000 1.000000 0.000000
vn 0.000000 0.000000 -1.000000
vn 0.000000 0.000000 -1.000000
vn 0.000000 0.000000 -1.000000
vn 0.000000 0.000000 -1.000000
vn 0.000000 -1.000000 0.000000
vn 0.000000 -1.000000 0.000000
vn 0.000000 -1.000000 0.000000
vn 0.000000 -1.000000 0.000000
vn 1.000000 0.000000 0.000000
vn 1.000000 0.000000 0.000000
vn 1.000000 0.000000 0.000000
vn 1.000000 0.000000 0.000000
vn -1.000000 0.000000 0.000000
vn -1.000000 0.000000 0.000000
vn -1.000000 0.000000 0.000000
vn -1.000000 0.000000 0.000000
s off
g WALLS pCube8
usemtl initialShadingGroup
f 9/15/25 10/16/26 12/18/27 11/17/28
f 11/17/29 12/18/30 14/20/31 13/19/32
f 13/19/33 14/20/34 16/22/35 15/21/36
f 15/21/37 16/22/38 10/24/39 9/23/40
f 10/16/41 16/25/42 14/26/43 12/18/44
f 15/27/45 9/15/46 11/17/47 13/28/48
g default
v 6.660396 -0.066656 9.383178
v 6.660396 -0.066656 8.495409
v 6.660396 10.933195 9.383178
v 6.660396 10.933195 8.495409
v -11.890315 10.933195 9.383178
v -11.890315 10.933195 8.495409
v -11.890315 -0.066656 9.383178
v -11.890315 -0.066656 8.495409
vt 0.375000 0.000000
vt 0.625000 0.000000
vt 0.375000 0.250000
vt 0.625000 0.250000
vt 0.375000 0.500000
vt 0.625000 0.500000
vt 0.375000 0.750000
vt 0.625000 0.750000
vt 0.375000 1.000000
vt 0.625000 1.000000
vt 0.875000 0.000000
vt 0.875000 0.250000
vt 0.125000 0.000000
vt 0.125000 0.250000
vn 1.000000 0.000000 0.000000
vn 1.000000 0.000000 0.000000
vn 1.000000 0.000000 0.000000
vn 1.000000 0.000000 0.000000
vn 0.000000 1.000000 0.000000
vn 0.000000 1.000000 0.000000
vn 0.000000 1.000000 0.000000
vn 0.000000 1.000000 0.000000
vn -1.000000 0.000000 -0.000000
vn -1.000000 0.000000 -0.000000
vn -1.000000 0.000000 -0.000000
vn -1.000000 0.000000 -0.000000
vn 0.000000 -1.000000 0.000000
vn 0.000000 -1.000000 0.000000
vn 0.000000 -1.000000 0.000000
vn 0.000000 -1.000000 0.000000
vn 0.000000 0.000000 -1.000000
vn 0.000000 0.000000 -1.000000
vn 0.000000 0.000000 -1.000000
vn 0.000000 0.000000 -1.000000
vn -0.000000 0.000000 1.000000
vn -0.000000 0.000000 1.000000
vn -0.000000 0.000000 1.000000
vn -0.000000 0.000000 1.000000
s off
g WALLS pCube10
usemtl initialShadingGroup
f 17/29/49 18/30/50 20/32/51 19/31/52
f 19/31/53 20/32/54 22/34/55 21/33/56
f 21/33/57 22/34/58 24/36/59 23/35/60
f 23/35/61 24/36/62 18/38/63 17/37/64
f 18/30/65 24/39/66 22/40/67 20/32/68
f 23/41/69 17/29/70 19/31/71 21/42/72
g default
v 6.660396 -0.066655 -10.090152
v 6.660396 -0.066655 -10.977924
v 6.660396 10.933195 -10.090152
v 6.660396 10.933195 -10.977924
v -11.890315 10.933195 -10.090152
v -11.890315 10.933195 -10.977924
v -11.890315 -0.066655 -10.090152
v -11.890315 -0.066655 -10.977924
v -6.403911 2.510632 -10.933538
v -6.372527 2.510632 -10.977924
v -6.448296 2.489782 -10.977924
v -6.416912 2.504525 -10.964924
v -6.403905 8.355907 -10.933538
v -6.416906 8.362014 -10.964924
v -6.448290 8.376757 -10.977924
v -6.372520 8.355907 -10.977924
v -1.902772 2.510632 -10.933538
v -1.889772 2.506719 -10.964924
v -1.858387 2.497274 -10.977924
v -1.934156 2.510632 -10.977924
v -1.902777 8.355907 -10.933538
v -1.934161 8.355907 -10.977924
v -1.858393 8.369265 -10.977924
v -1.889777 8.359820 -10.964924
v -1.902775 2.510632 -10.134536
v -1.934159 2.510632 -10.090152
v -1.858391 2.497274 -10.090152
v -1.889775 2.506719 -10.103150
v -1.902775 8.355907 -10.134536
v -1.889775 8.359820 -10.103150
v -1.858391 8.369265 -10.090152
v -1.934159 8.355907 -10.090152
v -6.403909 2.510632 -10.134536
v -6.416910 2.504525 -10.103150
v -6.448293 2.489782 -10.090152
v -6.372524 2.510632 -10.090152
v -6.403909 8.355907 -10.134536
v -6.372524 8.355907 -10.090152
v -6.448293 8.376757 -10.090152
v -6.416910 8.362014 -10.103150
vt 0.375000 0.500000
vt 0.625000 0.500000
vt 0.375000 0.750000
vt 0.625000 0.750000
vt 0.375000 1.000000
vt 0.625000 1.000000
vt 0.875000 0.000000
vt 0.625000 0.250000
vt 0.375000 0.000000
vt 0.125000 0.250000
vt 0.875000 0.250000
vt 0.625000 0.000000
vt 0.375000 0.250000
vt 0.125000 0.000000
vt 0.837503 0.000000
vt 0.875000 0.250000
vt 0.625000 0.000000
vt 0.612501 0.250000
vt 0.387499 0.000000
vt 0.375000 0.250000
vt 0.125000 0.000000
vt 0.162496 0.250000
vt 0.875000 0.000000
vt 0.873257 0.000000
vt 0.837504 0.250000
vt 0.873257 0.250000
vt 0.612501 0.000000
vt 0.626743 0.000000
vt 0.625000 0.250000
vt 0.626743 0.250000
vt 0.375000 0.000000
vt 0.373257 0.000000
vt 0.387499 0.250000
vt 0.373257 0.250000
vt 0.162496 0.000000
vt 0.126743 0.000000
vt 0.125000 0.250000
vt 0.126743 0.250000
vt 0.875000 0.000000
vt 0.875000 0.250000
vt 0.625000 0.000000
vt 0.625000 0.250000
vt 0.375000 0.000000
vt 0.375000 0.250000
vt 0.125000 0.000000
vt 0.125000 0.250000
vn 1.000000 0.000000 0.000000
vn 1.000000 0.000000 0.000000
vn 1.000000 0.000000 0.000000
vn 1.000000 0.000000 0.000000
vn 0.000000 1.000000 0.000000
vn 0.000000 1.000000 0.000000
vn 0.000000 1.000000 0.000000
vn 0.000000 1.000000 0.000000
vn -1.000000 0.000000 -0.000000
vn -1.000000 0.000000 -0.000000
vn -1.000000 0.000000 -0.000000
vn -1.000000 0.000000 -0.000000
vn 0.000000 -1.000000 0.000000
vn 0.000000 -1.000000 0.000000
vn 0.000000 -1.000000 0.000000
vn 0.000000 -1.000000 0.000000
vn 0.000000 0.000000 -1.000000
vn 0.000000 0.000000 -1.000000
vn 0.000000 0.000000 -1.000000
vn 0.000000 0.000000 -1.000000
vn 0.000000 0.000000 -1.000000
vn 0.000000 0.000000 -1.000000
vn 0.000000 0.000000 -1.000000
vn 0.000000 0.000000 -1.000000
vn 0.001094 -0.000000 -0.999999
vn 0.001094 -0.000000 -0.999999
vn 0.000000 0.000000 -1.000000
vn 0.000000 0.000000 -1.000000
vn 0.000000 0.000000 -1.000000
vn 0.000000 0.000000 -1.000000
vn 0.000000 0.000000 -1.000000
vn 0.000000 0.000000 -1.000000
vn 0.000000 -0.000000 -1.000000
vn 0.000000 -0.000000 -1.000000
vn -0.000785 -0.000000 -1.000000
vn -0.000785 -0.000000 -1.000000
vn -0.000000 -0.000000 1.000000
vn -0.000000 -0.000000 1.000000
vn -0.000000 -0.000000 1.000000
vn -0.000000 -0.000000 1.000000
vn -0.000000 -0.000000 1.000000
vn -0.000000 -0.000000 1.000000
vn -0.000000 0.000000 1.000000
vn -0.000000 0.000000 1.000000
vn -0.000785 -0.000000 1.000000
vn -0.000785 -0.000000 1.000000
vn -0.000000 -0.000000 1.000000
vn -0.000000 -0.000000 1.000000
vn -0.000000 -0.000000 1.000000
vn -0.000000 -0.000000 1.000000
vn -0.000000 -0.000000 1.000000
vn -0.000000 -0.000000 1.000000
vn -0.000000 0.000000 1.000000
vn -0.000000 0.000000 1.000000
vn 0.001094 0.000000 0.999999
vn 0.001094 0.000000 0.999999
vn 0.999875 -0.000001 -0.015820
vn 0.999875 -0.000001 -0.015820
vn 0.999875 -0.000001 0.015822
vn 0.999875 -0.000001 0.015822
vn -0.999876 -0.000000 -0.015761
vn -0.999876 -0.000000 -0.015761
vn -0.999876 -0.000000 0.015758
vn -0.999876 -0.000000 0.015758
vn -0.000001 -1.000000 -0.000000
vn -0.000033 -1.000000 -0.000053
vn 0.000021 -1.000000 -0.000034
vn 0.000000 -1.000000 -0.000000
vn 0.000000 -1.000000 0.000000
vn 0.000021 -1.000000 0.000034
vn -0.000033 -1.000000 0.000053
vn -0.000001 -1.000000 0.000000
vn 0.000000 1.000000 -0.000000
vn 0.000021 1.000000 -0.000034
vn -0.000033 1.000000 -0.000053
vn -0.000001 1.000000 -0.000000
vn -0.000001 1.000000 0.000000
vn -0.000033 1.000000 0.000053
vn 0.000021 1.000000 0.000034
vn 0.000000 1.000000 0.000000
vn 0.923876 -0.000001 -0.382692
vn 0.923876 -0.000001 -0.382692
vn 0.382675 -0.000000 -0.923883
vn 0.382675 -0.000000 -0.923883
vn -0.382672 -0.000000 -0.923884
vn -0.382672 -0.000000 -0.923884
vn -0.923887 -0.000001 -0.382664
vn -0.923887 -0.000001 -0.382664
vn -0.923887 -0.000000 0.382664
vn -0.923887 -0.000000 0.382664
vn -0.382650 -0.000000 0.923893
vn -0.382651 -0.000000 0.923893
vn 0.382657 0.000000 0.923891
vn 0.382657 0.000000 0.923891
vn 0.923873 0.000000 0.382699
vn 0.923873 0.000000 0.382699
vn -0.241671 0.878269 -0.412600
vn -0.175145 0.974503 -0.140244
vn -0.175163 -0.974498 -0.140255
vn -0.241680 -0.878272 -0.412588
vn 0.113735 0.989377 -0.090540
vn 0.166463 0.944210 -0.284178
vn 0.166465 -0.944216 -0.284158
vn 0.113751 -0.989375 -0.090545
vn 0.166465 0.944204 0.284198
vn 0.113741 0.989376 0.090542
vn 0.113744 -0.989375 0.090546
vn 0.166466 -0.944210 0.284175
vn -0.175157 0.974500 0.140247
vn -0.241674 0.878262 0.412612
vn -0.241682 -0.878266 0.412600
vn -0.175167 -0.974497 0.140256
s off
g WALLS pCube9
usemtl initialShadingGroup
f 25/51/73 26/54/74 28/50/75 27/55/76
f 27/55/77 28/50/78 30/44/79 29/43/80
f 29/43/81 30/44/82 32/46/83 31/45/84
f 31/45/85 32/46/86 26/48/87 25/47/88
f 26/54/89 32/49/90 35/65/91 34/66/92 44/70/93 43/59/94
s 1
f 32/49/95 30/53/96 39/58/97 35/65/98
s off
f 30/53/99 28/50/100 47/71/101 46/72/102 40/68/103 39/58/104
s 2
f 28/50/105 26/54/106 43/59/107 47/71/108
s off
f 31/56/109 25/51/110 51/73/111 50/74/112 60/78/113 59/63/114
s 3
f 25/51/115 27/55/116 55/62/117 51/73/118
s off
f 27/55/119 29/52/120 63/79/121 62/80/122 56/76/123 55/62/124
s 4
f 29/52/125 31/56/126 59/63/127 63/79/128
s 5
f 33/57/129 37/67/130 61/64/131 57/77/132
s 6
f 45/60/133 41/69/134 49/61/135 53/75/136
s 7
f 37/67/137 40/68/138 46/72/139 45/60/140 53/75/141 56/76/142 62/80/143 61/64/144
s 8
f 41/69/145 44/70/146 34/66/147 33/57/148 57/77/149 60/78/150 50/74/151 49/61/152
s 5
f 33/57/129 36/81/153 38/82/154 37/67/130
s 1
f 36/81/155 35/65/98 39/58/97 38/82/156
s 2
f 43/59/107 42/83/157 48/84/158 47/71/108
s 6
f 42/83/159 41/69/134 45/60/133 48/84/160
f 49/61/135 52/85/161 54/86/162 53/75/136
s 3
f 52/85/163 51/73/118 55/62/117 54/86/164
s 4
f 59/63/127 58/87/165 64/88/166 63/79/128
s 5
f 58/87/167 57/77/132 61/64/131 64/88/168
s 8
f 34/66/147 35/65/169 36/81/170
f 34/66/147 36/81/170 33/57/148
s 7
f 40/68/138 37/67/137 38/82/171
f 40/68/138 38/82/171 39/58/172
s 8
f 44/70/146 41/69/145 42/83/173
f 44/70/146 42/83/173 43/59/174
s 7
f 46/72/139 47/71/175 48/84/176
f 46/72/139 48/84/176 45/60/140
s 8
f 50/74/151 51/73/177 52/85/178
f 50/74/151 52/85/178 49/61/152
s 7
f 56/76/142 53/75/141 54/86/179
f 56/76/142 54/86/179 55/62/180
s 8
f 60/78/150 57/77/149 58/87/181
f 60/78/150 58/87/181 59/63/182
s 7
f 62/80/143 63/79/183 64/88/184
f 62/80/143 64/88/184 61/64/144
g default
v -6.752287 7.859161 -9.806717
v -6.704592 7.838136 -9.808485
v -6.706203 7.857692 -9.759160
v -6.707681 7.906276 -9.735572
v -6.753208 7.908058 -9.755080
v -6.772043 7.909894 -9.802223
v -1.549439 7.859161 -9.806717
v -1.529684 7.909894 -9.802223
v -1.549440 7.909729 -9.754880
v -1.597135 7.909546 -9.735270
v -1.597074 7.858645 -9.759086
v -1.597135 7.838136 -9.808485
v -6.752287 8.857710 -9.715081
v -6.772043 8.806963 -9.719901
v -6.752286 8.807147 -9.672510
v -6.704592 8.807311 -9.652885
v -6.704542 8.857359 -9.668233
v -6.704592 8.878720 -9.712990
v -1.549439 8.857710 -9.715081
v -1.597135 8.878720 -9.712990
v -1.598966 8.856241 -9.668313
v -1.600717 8.803519 -9.653231
v -1.550476 8.805248 -9.672745
v -1.529684 8.806963 -9.719901
v -6.752287 8.806963 -10.166745
v -6.772043 8.806963 -10.119610
v -6.752287 8.857703 -10.119610
v -6.704592 8.878720 -10.119610
v -6.704592 8.857703 -10.166745
v -6.704592 8.806963 -10.186270
v -1.549439 8.806963 -10.166745
v -1.597135 8.806963 -10.186270
v -1.597135 8.857703 -10.166745
v -1.597135 8.878720 -10.119610
v -1.549439 8.857703 -10.119610
v -1.529684 8.806963 -10.119610
v -6.752287 7.859154 -10.119610
v -6.772043 7.909894 -10.119610
v -6.752287 7.909894 -10.166745
v -6.704592 7.909894 -10.186270
v -6.704592 7.859154 -10.166745
v -6.704592 7.838136 -10.119610
v -1.549439 7.859154 -10.119610
v -1.597135 7.838136 -10.119610
v -1.597135 7.859154 -10.166745
v -1.597135 7.909894 -10.186270
v -1.549439 7.909894 -10.166745
v -1.529684 7.909894 -10.119610
v -6.744207 7.867457 -9.767172
v -1.558182 7.868157 -9.767088
v -6.743501 8.848171 -9.677656
v -1.558973 8.847363 -9.677754
v -6.743521 8.848377 -10.158082
v -1.558205 8.848377 -10.158082
v -6.743521 7.868479 -10.158082
v -1.558205 7.868479 -10.158082
vt 0.378217 0.962503
vt 0.378069 0.016370
vt 0.621783 0.962503
vt 0.658975 0.017240
vt 0.378217 0.232844
vt 0.621613 0.231933
vt 0.656015 0.232760
vt 0.162496 0.017240
vt 0.378217 0.469136
vt 0.621783 0.469136
vt 0.841087 0.232760
vt 0.837504 0.017240
vt 0.621783 0.787496
vt 0.378217 0.732760
vt 0.621783 0.732760
vt 0.621783 0.017156
vt 0.378217 0.280865
vt 0.621783 0.280865
vt 0.378217 0.517240
vt 0.621783 0.517240
vt 0.378217 0.787496
vt 0.341025 0.017240
vt 0.343985 0.232760
vt 0.158913 0.232760
vt 0.375000 0.974629
vt 0.349629 -0.000000
vt 0.380301 -0.000000
vt 0.380301 1.000000
vt 0.368442 0.016056
vt 0.650436 -0.000000
vt 0.625000 0.974564
vt 0.631467 0.016476
vt 0.619716 1.000000
vt 0.619716 -0.000000
vt 0.355424 0.250000
vt 0.375000 0.269576
vt 0.369346 0.233670
vt 0.378609 0.249166
vt 0.625000 0.269549
vt 0.644549 0.250000
vt 0.621299 0.248970
vt 0.630586 0.233193
vt 0.125000 0.238339
vt 0.375000 0.511661
vt 0.375000 0.479888
vt 0.145112 0.250000
vt 0.378595 0.500473
vt 0.625000 0.511661
vt 0.875000 0.238339
vt 0.621405 0.500473
vt 0.854885 0.250000
vt 0.625000 0.479885
vt 0.149717 -0.000000
vt 0.375000 0.774717
vt 0.375000 0.738339
vt 0.125000 0.011661
vt 0.378595 0.751155
vt 0.625000 0.774710
vt 0.850290 -0.000000
vt 0.621405 0.751155
vt 0.875000 0.011661
vt 0.625000 0.738339
vt 0.375000 1.000000
vt 0.375000 0.000000
vt 0.625000 0.000000
vt 0.625000 1.000000
vt 0.375000 0.250000
vt 0.625000 0.250000
vt 0.125000 0.250000
vt 0.375000 0.500000
vt 0.625000 0.500000
vt 0.875000 0.250000
vt 0.125000 0.000000
vt 0.375000 0.750000
vt 0.625000 0.750000
vt 0.875000 0.000000
vn -0.004216 -0.998460 0.055310
vn -0.396689 -0.916865 0.044682
vn -0.398445 -0.916250 -0.041577
vn -0.003891 -0.998286 -0.058390
vn -0.931878 -0.361872 0.025526
vn -0.999112 -0.018184 0.038020
vn -0.998673 -0.018037 -0.048238
vn -0.932712 -0.358876 -0.035437
vn -0.004059 -0.111180 0.993792
vn -0.002929 -0.429964 0.902841
vn 0.003245 -0.429797 0.902920
vn 0.004111 -0.111075 0.993804
vn -0.001144 -0.926675 0.375862
vn 0.004239 -0.998463 0.055254
vn 0.001307 -0.926645 0.375935
vn -0.925770 -0.041982 0.375750
vn -0.926325 -0.020721 0.376155
vn -0.998092 0.022112 0.057645
vn -0.384761 -0.103527 0.917192
vn -0.003212 -0.070595 0.997500
vn -0.385309 -0.068813 0.920219
vn 0.999048 -0.018345 0.039579
vn 0.931865 -0.361749 0.027662
vn 0.932715 -0.358869 -0.035436
vn 0.998673 -0.018037 -0.048237
vn 0.395985 -0.916960 0.048791
vn 0.003891 -0.998286 -0.058390
vn 0.398443 -0.916250 -0.041577
vn 0.368532 -0.104187 0.923758
vn 0.369074 -0.069103 0.926827
vn 0.003291 -0.070697 0.997492
vn 0.918885 -0.043215 0.392151
vn 0.997953 0.021951 0.060067
vn 0.919352 -0.022503 0.392791
vn -0.933789 0.355934 0.036717
vn -0.932648 0.359668 -0.028401
vn -0.998614 0.022272 -0.047684
vn -0.401121 0.915643 0.026465
vn -0.003474 0.998820 0.048434
vn -0.003913 0.998928 -0.046130
vn -0.399414 0.916181 -0.032871
vn -0.001074 0.898001 0.439993
vn 0.001271 0.897959 0.440078
vn 0.003494 0.998823 0.048371
vn -0.002752 0.283645 0.958925
vn 0.003133 0.283429 0.958988
vn 0.400885 0.915667 0.029062
vn 0.399412 0.916182 -0.032871
vn 0.003913 0.998928 -0.046130
vn 0.933923 0.355238 0.039931
vn 0.998614 0.022272 -0.047683
vn 0.932652 0.359658 -0.028401
vn -0.922725 0.010104 -0.385327
vn -0.922725 -0.010104 -0.385327
vn -0.376695 0.017559 -0.926171
vn -0.003665 0.020485 -0.999783
vn -0.003665 -0.020485 -0.999783
vn -0.376695 -0.017559 -0.926171
vn -0.003016 0.358804 -0.933408
vn 0.003016 0.358804 -0.933408
vn 0.003665 0.020485 -0.999783
vn -0.001192 0.913376 -0.407116
vn 0.001192 0.913376 -0.407116
vn 0.376694 0.017559 -0.926171
vn 0.376694 -0.017559 -0.926171
vn 0.003665 -0.020485 -0.999783
vn 0.922728 0.010104 -0.385319
vn 0.922728 -0.010104 -0.385319
vn -0.001192 -0.913376 -0.407116
vn 0.001192 -0.913376 -0.407116
vn -0.003016 -0.358798 -0.933410
vn 0.003016 -0.358798 -0.933410
vn -0.892210 -0.335762 0.302036
vn -0.341665 -0.889427 0.303618
vn -0.336382 -0.383607 0.860054
vn 0.335220 -0.884061 0.325674
vn 0.885851 -0.332108 0.323994
vn 0.319607 -0.369855 0.872387
vn -0.349280 0.864082 0.362445
vn -0.899783 0.281010 0.333802
vn -0.331697 0.237613 0.912972
vn 0.892616 0.272301 0.359290
vn 0.342605 0.854848 0.389687
vn 0.313809 0.218098 0.924098
vn -0.324223 0.304772 -0.895541
vn -0.892291 0.307267 -0.330762
vn -0.340839 0.874575 -0.344889
vn 0.892295 0.307264 -0.330755
vn 0.324222 0.304771 -0.895542
vn 0.340838 0.874575 -0.344888
vn -0.340839 -0.874574 -0.344888
vn -0.892293 -0.307261 -0.330762
vn -0.324223 -0.304767 -0.895543
vn 0.892297 -0.307257 -0.330756
vn 0.340837 -0.874575 -0.344888
vn 0.324222 -0.304765 -0.895544
s 1
g pCube12 WINDOW
usemtl initialShadingGroup
f 66/89/185 65/113/186 101/142/187 106/109/188
s 2
f 65/114/189 70/110/190 102/96/191 101/141/192
s 3
f 68/90/193 67/115/194 75/122/195 74/104/196
s 1
f 67/116/197 66/89/185 76/91/198 75/121/199
s 2
f 70/110/190 69/117/200 79/125/201 78/111/202
s 3
f 69/117/203 68/90/193 80/93/204 79/125/205
s 4
f 72/92/206 71/118/207 107/147/208 112/100/209
s 1
f 71/119/210 76/91/198 108/101/211 107/146/212
s 3
f 74/104/196 73/120/213 87/130/214 86/94/215
s 4
f 73/120/216 72/92/206 88/95/217 87/130/218
s 2
f 78/111/202 77/123/219 91/134/220 90/112/221
s 5
f 77/124/222 82/105/223 92/97/224 91/133/225
f 82/105/223 81/126/226 85/129/227 84/106/228
s 3
f 81/126/229 80/93/204 86/94/215 85/129/230
s 5
f 84/106/228 83/127/231 99/140/232 98/98/233
s 4
f 83/128/234 88/95/217 100/99/235 99/139/236
s 2
f 90/112/221 89/131/237 103/144/238 102/96/191
s 6
f 89/132/239 94/107/240 104/102/241 103/143/242
f 94/107/240 93/135/243 97/138/244 96/108/245
s 5
f 93/135/246 92/97/224 98/98/233 97/138/247
s 6
f 96/108/245 95/136/248 111/150/249 110/103/250
s 4
f 95/137/251 100/99/235 112/100/209 111/149/252
s 1
f 106/109/188 105/145/253 109/148/254 108/101/211
s 6
f 105/145/255 104/102/241 110/103/250 109/148/256
s 3
f 68/90/193 74/104/196 86/94/215 80/93/204
s 5
f 82/105/223 84/106/228 98/98/233 92/97/224
s 6
f 94/107/240 96/108/245 110/103/250 104/102/241
s 1
f 106/109/188 108/101/211 76/91/198 66/89/185
s 4
f 72/92/206 112/100/209 100/99/235 88/95/217
s 2
f 102/96/191 70/110/190 78/111/202 90/112/221
f 69/117/200 70/110/190 65/114/189 113/152/257
s 1
f 65/113/186 66/89/185 67/116/197 113/151/258
s 3
f 67/115/194 68/90/193 69/117/203 113/152/259
s 1
f 75/121/199 76/91/198 71/119/210 114/154/260
s 4
f 71/118/207 72/92/206 73/120/216 114/153/261
s 3
f 73/120/213 74/104/196 75/122/195 114/153/262
s 5
f 81/126/226 82/105/223 77/124/222 115/155/263
s 2
f 77/123/219 78/111/202 79/125/201 115/155/264
s 3
f 79/125/205 80/93/204 81/126/229 115/155/265
s 4
f 87/130/218 88/95/217 83/128/234 116/156/266
s 5
f 83/127/231 84/106/228 85/129/227 116/156/267
s 3
f 85/129/230 86/94/215 87/130/214 116/156/268
s 6
f 93/135/243 94/107/240 89/132/239 117/158/269
s 2
f 89/131/237 90/112/221 91/134/220 117/157/270
s 5
f 91/133/225 92/97/224 93/135/246 117/158/271
s 4
f 99/139/236 100/99/235 95/137/251 118/160/272
s 6
f 95/136/248 96/108/245 97/138/244 118/159/273
s 5
f 97/138/247 98/98/233 99/140/232 118/159/274
s 1
f 105/145/253 106/109/188 101/142/187 119/162/275
s 2
f 101/141/192 102/96/191 103/144/238 119/161/276
s 6
f 103/143/242 104/102/241 105/145/255 119/162/277
s 4
f 111/149/252 112/100/209 107/147/208 120/164/278
s 1
f 107/146/212 108/101/211 109/148/254 120/163/279
s 6
f 109/148/256 110/103/250 111/150/249 120/163/280
g default
v -4.378690 5.203540 -10.259588
v -3.973207 5.203540 -10.259588
v -4.378690 5.609022 -10.259588
v -3.973207 5.609022 -10.259588
v -4.378690 5.609022 -10.665070
v -3.973207 5.609022 -10.665070
v -4.378690 5.203540 -10.665070
v -3.973207 5.203540 -10.665070
v -4.378690 8.109336 -10.259588
v -3.973207 8.109336 -10.259588
v -3.973207 8.109336 -10.665070
v -4.378690 8.109336 -10.665070
v -4.378689 2.703226 -10.665070
v -3.973207 2.703226 -10.665069
v -3.973207 2.703227 -10.259588
v -4.378689 2.703227 -10.259588
v -1.472894 5.203540 -10.665070
v -1.472894 5.203540 -10.259588
v -1.472894 5.609023 -10.665069
v -1.472894 5.609023 -10.259588
v -6.879003 5.203540 -10.665069
v -6.879003 5.203540 -10.259588
v -6.879003 5.609023 -10.259588
v -6.879003 5.609023 -10.665069
vt 0.375000 0.000000
vt 0.625000 0.000000
vt 0.375000 0.250000
vt 0.625000 0.250000
vt 0.375000 0.500000
vt 0.625000 0.500000
vt 0.375000 0.750000
vt 0.625000 0.750000
vt 0.375000 1.000000
vt 0.625000 1.000000
vt 0.875000 0.000000
vt 0.875000 0.250000
vt 0.125000 0.000000
vt 0.125000 0.250000
vt 0.375000 0.250000
vt 0.625000 0.250000
vt 0.625000 0.500000
vt 0.375000 0.500000
vt 0.375000 0.750000
vt 0.625000 0.750000
vt 0.625000 1.000000
vt 0.375000 1.000000
vt 0.625000 0.000000
vt 0.875000 0.000000
vt 0.875000 0.250000
vt 0.625000 0.250000
vt 0.125000 0.000000
vt 0.375000 0.000000
vt 0.375000 0.250000
vt 0.125000 0.250000
vn 0.000000 -0.000000 1.000000
vn 0.000000 0.000000 1.000000
vn 0.000000 0.000000 1.000000
vn -0.000000 -0.000000 1.000000
vn 0.000000 1.000000 0.000000
vn 0.000000 1.000000 0.000000
vn 0.000000 1.000000 0.000000
vn 0.000000 1.000000 0.000000
vn -0.000000 -0.000000 -1.000000
vn 0.000000 0.000000 -1.000000
vn 0.000000 0.000000 -1.000000
vn 0.000000 -0.000000 -1.000000
vn 0.000000 -1.000000 0.000001
vn 0.000000 -1.000000 0.000001
vn 0.000000 -1.000000 0.000001
vn 0.000000 -1.000000 0.000001
vn 1.000000 0.000000 0.000000
vn 1.000000 0.000000 0.000000
vn 1.000000 0.000000 0.000000
vn 1.000000 0.000000 0.000000
vn -1.000000 0.000000 0.000000
vn -1.000000 0.000000 0.000000
vn -1.000000 0.000000 0.000000
vn -1.000000 0.000000 0.000000
vn 0.000000 -0.000000 1.000000
vn 0.000000 -0.000000 1.000000
vn 1.000000 -0.000000 0.000000
vn 1.000000 -0.000000 0.000000
vn 1.000000 -0.000000 0.000000
vn 1.000000 -0.000000 0.000000
vn 0.000000 -0.000000 -1.000000
vn 0.000000 -0.000000 -1.000000
vn -1.000000 -0.000000 0.000000
vn -1.000000 -0.000000 0.000000
vn -1.000000 -0.000000 0.000000
vn -1.000000 -0.000000 0.000000
vn 0.000001 -0.000000 -1.000000
vn 0.000001 -0.000000 -1.000000
vn 1.000000 0.000000 -0.000000
vn 1.000000 0.000000 -0.000000
vn 1.000000 0.000000 -0.000000
vn 1.000000 0.000000 -0.000000
vn 0.000001 -0.000000 1.000000
vn 0.000001 -0.000000 1.000000
vn -1.000000 -0.000000 0.000000
vn -1.000000 -0.000000 0.000000
vn -1.000000 -0.000000 0.000000
vn -1.000000 -0.000000 0.000000
vn -0.000000 -1.000000 0.000000
vn -0.000000 -1.000000 0.000000
vn -0.000000 -1.000000 0.000000
vn -0.000000 -1.000000 0.000000
vn 0.000000 0.000001 -1.000000
vn 0.000000 0.000001 -1.000000
vn -0.000000 1.000000 0.000000
vn -0.000000 1.000000 0.000000
vn -0.000000 1.000000 0.000000
vn -0.000000 1.000000 0.000000
vn 0.000000 0.000001 1.000000
vn 0.000000 0.000001 1.000000
vn 0.000000 -1.000000 0.000000
vn 0.000000 -1.000000 0.000000
vn 0.000000 -1.000000 0.000000
vn 0.000000 -1.000000 0.000000
vn -0.000000 0.000000 1.000000
vn -0.000000 0.000000 1.000000
vn 0.000000 1.000000 0.000000
vn 0.000000 1.000000 0.000000
vn 0.000000 1.000000 0.000000
vn 0.000000 1.000000 0.000000
vn -0.000000 0.000000 -1.000000
vn -0.000000 0.000000 -1.000000
s 1
g WINDOW pCube14
usemtl initialShadingGroup
f 121/165/281 122/166/282 124/168/283 123/167/284
s off
f 129/193/285 130/168/286 131/170/287 132/169/288
s 2
f 125/169/289 126/170/290 128/172/291 127/171/292
s off
f 133/171/293 134/172/294 135/174/295 136/173/296
f 138/166/297 137/175/298 139/176/299 140/168/300
f 141/191/301 142/192/302 143/193/303 144/194/304
s 1
f 123/167/284 124/168/283 130/180/305 129/179/306
s off
f 124/168/307 126/170/308 131/181/309 130/180/310
s 2
f 126/170/290 125/169/289 132/182/311 131/181/312
s off
f 125/169/313 123/167/314 129/179/315 132/182/316
s 2
f 127/171/292 128/172/291 134/184/317 133/183/318
s off
f 128/172/319 122/174/320 135/185/321 134/184/322
s 1
f 122/174/282 121/173/281 136/186/323 135/185/324
s off
f 121/173/325 127/171/326 133/183/327 136/186/328
f 122/166/329 128/175/330 137/188/331 138/187/332
s 2
f 128/175/291 126/176/290 139/189/333 137/188/334
s off
f 126/176/335 124/168/336 140/190/337 139/189/338
s 1
f 124/168/283 122/166/282 138/187/339 140/190/340
s off
f 127/177/341 121/165/342 142/192/343 141/191/344
s 1
f 121/165/281 123/167/284 143/193/345 142/192/346
s off
f 123/167/347 125/178/348 144/194/349 143/193/350
s 2
f 125/178/289 127/177/292 141/191/351 144/194/352
g default
v -6.428453 2.223362 -9.794798
v -6.428453 2.251647 -9.766513
v -6.456738 2.251647 -9.794798
v -1.758390 2.251647 -9.794798
v -1.786675 2.251647 -9.766513
v -1.786675 2.223362 -9.794798
v -6.456738 2.760832 -9.794798
v -6.428453 2.760832 -9.766513
v -6.428453 2.789117 -9.794798
v -1.786675 2.789117 -9.794798
v -1.786675 2.760832 -9.766513
v -1.758390 2.760832 -9.794798
v -6.456738 2.760832 -10.957268
v -6.428453 2.789117 -10.957268
v -6.428453 2.760832 -10.985553
v -1.786675 2.760832 -10.985553
v -1.786675 2.789117 -10.957268
v -1.758390 2.760832 -10.957268
v -6.456738 2.251647 -10.957268
v -6.428453 2.251647 -10.985553
v -6.428453 2.223362 -10.957268
v -1.786675 2.223362 -10.957268
v -1.786675 2.251647 -10.985553
v -1.758390 2.251647 -10.957268
vt 0.376505 0.994199
vt 0.375000 0.994199
vt 0.375000 0.755801
vt 0.376505 0.000000
vt 0.376505 0.012499
vt 0.625000 0.994199
vt 0.623495 0.994199
vt 0.625000 0.755801
vt 0.630801 0.012499
vt 0.375000 0.255801
vt 0.375000 0.494199
vt 0.376505 0.237501
vt 0.623495 0.237501
vt 0.625000 0.255801
vt 0.375000 0.512499
vt 0.375000 0.737501
vt 0.376505 0.494199
vt 0.623495 0.494199
vt 0.625000 0.512499
vt 0.625000 0.737501
vt 0.376505 0.737501
vt 0.623495 0.737501
vt 0.623495 0.755801
vt 0.623495 0.012499
vt 0.376505 0.255801
vt 0.623495 0.255801
vt 0.376505 0.512499
vt 0.623495 0.512499
vt 0.376505 0.755801
vt 0.869199 0.012499
vt 0.869199 0.237501
vt 0.130801 0.012499
vt 0.369199 0.012499
vt 0.369199 0.237501
vt 0.130801 0.237501
vt 0.623495 0.000000
vt 0.630801 0.237501
vt 0.625000 0.494199
vn -0.707108 -0.707106 0.000000
vn -0.707108 -0.707106 0.000000
vn -0.707108 -0.707106 0.000000
vn -0.707108 -0.707106 0.000000
vn 0.000000 -0.707110 0.707104
vn 0.000000 -0.707110 0.707104
vn 0.000000 -0.707110 0.707104
vn 0.000000 -0.707110 0.707104
vn -0.707111 0.000000 0.707103
vn -0.707111 0.000000 0.707103
vn -0.707111 0.000000 0.707103
vn -0.707111 0.000000 0.707103
vn 0.707109 -0.707104 0.000000
vn 0.707109 -0.707104 0.000000
vn 0.707109 -0.707104 0.000000
vn 0.707109 -0.707104 0.000000
vn 0.707113 0.000000 0.707101
vn 0.707113 0.000000 0.707101
vn 0.707113 0.000000 0.707101
vn 0.707113 0.000000 0.707101
vn -0.707109 0.707104 0.000000
vn -0.707109 0.707104 0.000000
vn -0.707109 0.707104 0.000000
vn -0.707109 0.707104 0.000000
vn 0.000000 0.707108 0.707106
vn 0.000000 0.707108 0.707106
vn 0.000000 0.707108 0.707106
vn 0.000000 0.707108 0.707106
vn 0.707111 0.707102 0.000000
vn 0.707111 0.707102 0.000000
vn 0.707111 0.707102 0.000000
vn 0.707111 0.707102 0.000000
vn -0.707111 0.000000 -0.707103
vn -0.707111 0.000000 -0.707103
vn -0.707111 0.000000 -0.707103
vn -0.707111 0.000000 -0.707103
vn 0.000000 0.707108 -0.707106
vn 0.000000 0.707108 -0.707106
vn 0.000000 0.707108 -0.707106
vn 0.000000 0.707108 -0.707106
vn 0.707113 0.000000 -0.707101
vn 0.707113 0.000000 -0.707101
vn 0.707113 0.000000 -0.707101
vn 0.707113 0.000000 -0.707101
vn 0.000000 -0.707110 -0.707104
vn 0.000000 -0.707110 -0.707104
vn 0.000000 -0.707110 -0.707104
vn 0.000000 -0.707110 -0.707104
vn 0.000000 0.000000 1.000000
vn 0.000000 0.000000 1.000000
vn 0.000000 0.000000 1.000000
vn 0.000000 0.000000 1.000000
vn 0.000000 1.000000 0.000000
vn 0.000000 1.000000 0.000000
vn 0.000000 1.000000 0.000000
vn 0.000000 1.000000 0.000000
vn 0.000000 0.000000 -1.000000
vn 0.000000 0.000000 -1.000000
vn 0.000000 0.000000 -1.000000
vn 0.000000 0.000000 -1.000000
vn 0.000000 -1.000000 0.000000
vn 0.000000 -1.000000 0.000000
vn 0.000000 -1.000000 0.000000
vn 0.000000 -1.000000 0.000000
vn 1.000000 0.000000 0.000000
vn 1.000000 0.000000 0.000000
vn 1.000000 0.000000 0.000000
vn 1.000000 0.000000 0.000000
vn -1.000000 0.000000 0.000000
vn -1.000000 0.000000 0.000000
vn -1.000000 0.000000 0.000000
vn -1.000000 0.000000 0.000000
vn -0.577354 -0.577350 0.577347
vn -0.577354 -0.577350 0.577347
vn -0.577354 -0.577350 0.577347
vn 0.577355 -0.577351 0.577345
vn 0.577355 -0.577351 0.577345
vn 0.577355 -0.577351 0.577345
vn -0.577355 0.577348 0.577347
vn -0.577355 0.577348 0.577347
vn -0.577355 0.577348 0.577347
vn 0.577356 0.577349 0.577346
vn 0.577356 0.577349 0.577346
vn 0.577356 0.577349 0.577346
vn -0.577355 0.577348 -0.577347
vn -0.577355 0.577348 -0.577347
vn -0.577355 0.577348 -0.577347
vn 0.577356 0.577349 -0.577346
vn 0.577356 0.577349 -0.577346
vn 0.577356 0.577349 -0.577346
vn -0.577354 -0.577350 -0.577347
vn -0.577354 -0.577350 -0.577347
vn -0.577354 -0.577350 -0.577347
vn 0.577355 -0.577351 -0.577345
vn 0.577355 -0.577351 -0.577345
vn 0.577355 -0.577351 -0.577345
s off
g WINDOW pCube15
usemtl initialShadingGroup
f 145/195/353 147/196/354 163/197/355 165/223/356
f 146/199/357 145/198/358 150/230/359 149/218/360
f 147/227/361 146/199/362 152/206/363 151/228/364
f 148/200/365 150/201/366 166/217/367 168/202/368
f 149/218/369 148/203/370 156/231/371 155/207/372
f 151/204/373 153/219/374 158/211/375 157/205/376
f 153/219/377 152/206/378 155/207/379 154/220/380
f 154/220/381 156/208/382 162/232/383 161/212/384
f 157/209/385 159/221/386 164/215/387 163/210/388
f 159/221/389 158/211/390 161/212/391 160/222/392
f 160/222/393 162/213/394 168/214/395 167/216/396
f 165/223/397 164/215/398 167/216/399 166/217/400
f 146/199/401 149/218/402 155/207/403 152/206/404
f 153/219/405 154/220/406 161/212/407 158/211/408
f 159/221/409 160/222/410 167/216/411 164/215/412
f 165/223/413 166/217/414 150/201/415 145/195/416
f 148/203/417 168/224/418 162/225/419 156/231/420
f 163/226/421 147/227/422 151/228/423 157/229/424
f 145/198/425 146/199/426 147/227/427
f 148/203/428 149/218/429 150/230/430
f 151/228/431 152/206/432 153/219/433
f 154/220/434 155/207/435 156/231/436
f 157/205/437 158/211/438 159/221/439
f 160/222/440 161/212/441 162/232/442
f 163/210/443 164/215/444 165/223/445
f 166/217/446 167/216/447 168/214/448
